<svg width="375" height="163" viewBox="0 0 375 163" fill="none" xmlns="http://www.w3.org/2000/svg">
<path d="M374.287 1.95783C374.816 1.79913 375.117 1.24164 374.958 0.712652C374.799 0.183659 374.242 -0.116524 373.713 0.0421737L374 1L374.287 1.95783ZM334.99 23.62L335.929 23.2757L334.99 23.62ZM343.32 36.62L344.263 36.2858L343.32 36.62ZM342.68 49.6L341.729 49.2894L342.68 49.6ZM312.38 67.99L312.171 67.012L312.38 67.99ZM276.3 72.64L276.238 71.6419L276.3 72.64ZM173.18 76.65L173.217 77.6493L173.18 76.65ZM117.47 80.65L117.573 81.6447L117.47 80.65ZM42.04 104.64L42.5646 105.491L42.04 104.64ZM19.7 126.96L20.4678 127.601L20.4954 127.568L20.52 127.532L19.7 126.96ZM4.69 150.29L3.81598 149.804L3.80571 149.823L3.79624 149.841L4.69 150.29ZM0 153L6.33657 162.653L11.5281 152.339L0 153ZM1.30269 154.735C1.84411 154.844 2.37139 154.494 2.48041 153.952C2.58943 153.411 2.2389 152.884 1.69748 152.775L1.50009 153.755L1.30269 154.735ZM3.04786 151.343C2.79299 151.833 2.98358 152.437 3.47354 152.692C3.9635 152.947 4.5673 152.756 4.82216 152.266L3.93501 151.805L3.04786 151.343ZM7.22792 147.708C7.48874 147.221 7.30552 146.615 6.8187 146.354C6.33187 146.094 5.7258 146.277 5.46498 146.764L6.34645 147.236L7.22792 147.708ZM8.84411 140.65C8.56577 141.127 8.72683 141.739 9.20384 142.017C9.68086 142.296 10.2932 142.135 10.5715 141.658L9.70782 141.154L8.84411 140.65ZM14.2364 135.835C14.5469 135.378 14.4282 134.756 13.9715 134.446C13.5147 134.135 12.8927 134.254 12.5823 134.711L13.4094 135.273L14.2364 135.835ZM16.7265 129.045C16.3857 129.48 16.4619 130.108 16.8965 130.449C17.3312 130.79 17.9597 130.714 18.3005 130.279L17.5135 129.662L16.7265 129.045ZM22.8197 124.308C23.1457 123.862 23.0485 123.236 22.6027 122.91C22.1568 122.584 21.5312 122.682 21.2052 123.127L22.0124 123.718L22.8197 124.308ZM26.1745 116.811C25.8144 117.23 25.8618 117.861 26.2806 118.222C26.6993 118.582 27.3306 118.534 27.6908 118.116L26.9326 117.463L26.1745 116.811ZM33.1402 112.493C33.5495 112.122 33.5806 111.489 33.2097 111.08C32.8389 110.671 32.2065 110.64 31.7972 111.011L32.4687 111.752L33.1402 112.493ZM38.1366 105.994C37.6827 106.308 37.5696 106.931 37.8842 107.385C38.1987 107.839 38.8217 107.952 39.2757 107.638L38.7062 106.816L38.1366 105.994ZM45.9605 103.319C46.4229 103.017 46.553 102.397 46.2511 101.935C45.9492 101.473 45.3295 101.342 44.8671 101.644L45.4138 102.482L45.9605 103.319ZM51.6743 97.3442C51.1989 97.6253 51.0414 98.2386 51.3226 98.7139C51.6037 99.1893 52.217 99.3468 52.6923 99.0657L52.1833 98.2049L51.6743 97.3442ZM59.6812 95.326C60.1792 95.0872 60.3893 94.4899 60.1505 93.992C59.9117 93.494 59.3144 93.2839 58.8164 93.5227L59.2488 94.4243L59.6812 95.326ZM66.2562 90.3332C65.7403 90.5304 65.4819 91.1084 65.6791 91.6243C65.8763 92.1402 66.4543 92.3986 66.9702 92.2014L66.6132 91.2673L66.2562 90.3332ZM74.4851 89.6257C75.0131 89.4636 75.3097 88.9042 75.1476 88.3763C74.9856 87.8483 74.4262 87.5517 73.8982 87.7138L74.1917 88.6697L74.4851 89.6257ZM81.6677 85.5627C81.1318 85.6963 80.8057 86.239 80.9394 86.7749C81.073 87.3108 81.6157 87.6369 82.1516 87.5032L81.9097 86.5329L81.6677 85.5627ZM89.9202 85.748C90.4613 85.6374 90.8103 85.1091 90.6997 84.568C90.5892 84.0269 90.0609 83.6779 89.5198 83.7885L89.72 84.7682L89.9202 85.748ZM97.4263 82.3199C96.8817 82.4116 96.5145 82.9275 96.6063 83.4721C96.698 84.0167 97.2138 84.3838 97.7585 84.2921L97.5924 83.306L97.4263 82.3199ZM105.65 83.0826C106.197 83.0066 106.579 82.5015 106.503 81.9545C106.427 81.4074 105.922 81.0256 105.375 81.1017L105.513 82.0922L105.65 83.0826ZM113.359 80.0924C112.81 80.1552 112.416 80.651 112.479 81.1997C112.542 81.7484 113.037 82.1423 113.586 82.0794L113.472 81.0859L113.359 80.0924ZM122.208 81.1578C122.757 81.0997 123.155 80.6073 123.097 80.0581C123.039 79.5089 122.546 79.1108 121.997 79.1689L122.102 80.1634L122.208 81.1578ZM131.264 78.2106C130.715 78.2645 130.313 78.7537 130.366 79.3034C130.42 79.853 130.91 80.2549 131.459 80.201L131.362 79.2058L131.264 78.2106ZM140.711 79.382C141.261 79.3388 141.673 78.8575 141.629 78.3069C141.586 77.7563 141.105 77.345 140.554 77.3881L140.632 78.3851L140.711 79.382ZM149.862 76.7452C149.311 76.7787 148.891 77.2527 148.924 77.8039C148.958 78.3552 149.432 78.775 149.983 78.7416L149.923 77.7434L149.862 76.7452ZM159.261 78.2394C159.813 78.2127 160.239 77.7438 160.212 77.1922C160.185 76.6406 159.716 76.215 159.165 76.2417L159.213 77.2406L159.261 78.2394ZM168.474 75.8314C167.922 75.8536 167.492 76.319 167.515 76.8708C167.537 77.4226 168.002 77.852 168.554 77.8298L168.514 76.8306L168.474 75.8314ZM177.499 77.4936C178.051 77.4739 178.483 77.0105 178.463 76.4586C178.443 75.9066 177.98 75.4752 177.428 75.4948L177.464 76.4942L177.499 77.4936ZM186.027 75.197C185.475 75.2157 185.043 75.6783 185.062 76.2303C185.08 76.7822 185.543 77.2145 186.095 77.1958L186.061 76.1964L186.027 75.197ZM194.693 76.9081C195.245 76.8898 195.678 76.4275 195.659 75.8755C195.641 75.3235 195.179 74.8909 194.627 74.9092L194.66 75.9087L194.693 76.9081ZM203.227 74.6245C202.675 74.6428 202.242 75.1051 202.261 75.657C202.279 76.209 202.741 76.6417 203.293 76.6234L203.26 75.6239L203.227 74.6245ZM211.888 76.337C212.44 76.3184 212.873 75.8559 212.854 75.304C212.836 74.752 212.373 74.3196 211.821 74.3381L211.855 75.3375L211.888 76.337ZM220.418 74.0459C219.866 74.0649 219.434 74.5278 219.453 75.0798C219.472 75.6317 219.935 76.0637 220.487 76.0447L220.452 75.0453L220.418 74.0459ZM229.084 75.743C229.636 75.7232 230.068 75.2598 230.048 74.7078C230.028 74.1559 229.565 73.7245 229.013 73.7442L229.049 74.7436L229.084 75.743ZM237.608 73.429C237.056 73.4498 236.625 73.914 236.646 74.4659C236.667 75.0178 237.131 75.4483 237.683 75.4276L237.645 74.4283L237.608 73.429ZM246.278 75.0936C246.83 75.0714 247.26 74.6061 247.237 74.0543C247.215 73.5024 246.75 73.0731 246.198 73.0952L246.238 74.0944L246.278 75.0936ZM254.792 72.7359C254.24 72.76 253.812 73.2268 253.836 73.7785C253.86 74.3303 254.327 74.7581 254.879 74.734L254.835 73.7349L254.792 72.7359ZM263.479 74.3387C264.03 74.3119 264.456 73.843 264.429 73.2913C264.402 72.7397 263.933 72.3142 263.382 72.3411L263.43 73.3399L263.479 74.3387ZM271.965 71.8937C271.413 71.9248 270.991 72.3969 271.022 72.9483C271.054 73.4997 271.526 73.9216 272.077 73.8906L272.021 72.8922L271.965 71.8937ZM280.921 73.3373C281.472 73.2986 281.888 72.8206 281.849 72.2697C281.81 71.7187 281.332 71.3035 280.781 71.3422L280.851 72.3398L280.921 73.3373ZM289.842 70.6087C289.292 70.6601 288.888 71.1475 288.939 71.6974C288.991 72.2473 289.478 72.6514 290.028 72.6L289.935 71.6044L289.842 70.6087ZM299.117 71.5877C299.665 71.5145 300.049 71.0114 299.976 70.4639C299.903 69.9165 299.399 69.5321 298.852 69.6053L298.985 70.5965L299.117 71.5877ZM307.737 68.0779C307.198 68.1983 306.859 68.7328 306.979 69.2718C307.1 69.8108 307.634 70.1502 308.173 70.0298L307.955 69.0538L307.737 68.0779ZM317.155 67.9781C317.694 67.8562 318.032 67.3207 317.91 66.7821C317.788 66.2434 317.252 65.9056 316.714 66.0275L316.935 67.0028L317.155 67.9781ZM325.583 63.5678C325.062 63.7511 324.788 64.322 324.971 64.843C325.155 65.364 325.725 65.6377 326.246 65.4544L325.915 64.5111L325.583 63.5678ZM334.838 61.2765C335.296 60.9671 335.416 60.3455 335.107 59.8879C334.797 59.4304 334.176 59.3103 333.718 59.6196L334.278 60.448L334.838 61.2765ZM339.887 53.3093C339.599 53.7809 339.748 54.3962 340.22 54.6837C340.691 54.9712 341.307 54.8221 341.594 54.3505L340.74 53.8299L339.887 53.3093ZM344.484 46.6C344.59 46.0579 344.236 45.5327 343.694 45.4269C343.152 45.3211 342.627 45.6747 342.521 46.2167L343.503 46.4084L344.484 46.6ZM342.958 39.9245C343.001 40.4751 343.483 40.8865 344.033 40.8434C344.584 40.8002 344.995 40.3189 344.952 39.7683L343.955 39.8464L342.958 39.9245ZM342.441 32.6103C342.144 32.1452 341.525 32.0096 341.06 32.3075C340.595 32.6053 340.459 33.2238 340.757 33.6889L341.599 33.1496L342.441 32.6103ZM336.047 27.5932C336.37 28.0412 336.995 28.1425 337.443 27.8195C337.891 27.4964 337.992 26.8714 337.669 26.4235L336.858 27.0083L336.047 27.5932ZM335.559 20.4671C335.628 19.9191 335.24 19.419 334.692 19.35C334.144 19.281 333.644 19.6693 333.575 20.2172L334.567 20.3421L335.559 20.4671ZM337.421 14.0698C336.995 14.4222 336.936 15.0526 337.289 15.4779C337.641 15.9032 338.271 15.9623 338.697 15.6099L338.059 14.8399L337.421 14.0698ZM345.141 11.8342C345.644 11.6048 345.865 11.0116 345.636 10.5092C345.406 10.0068 344.813 9.78548 344.311 10.0149L344.726 10.9245L345.141 11.8342ZM352.605 6.72397C352.085 6.90898 351.813 7.4808 351.998 8.00118C352.183 8.52155 352.755 8.79342 353.275 8.60841L352.94 7.66619L352.605 6.72397ZM361.624 5.8252C362.15 5.65842 362.442 5.0964 362.275 4.5699C362.108 4.0434 361.546 3.75179 361.02 3.91858L361.322 4.87189L361.624 5.8252ZM369.479 1.31459C368.951 1.47413 368.651 2.03208 368.811 2.56082C368.97 3.08957 369.528 3.38886 370.057 3.22933L369.768 2.27196L369.479 1.31459ZM3.93501 151.805L4.82216 152.266C5.06272 151.804 5.32691 151.25 5.58376 150.739L4.69 150.29L3.79624 149.841C3.50844 150.415 3.28414 150.889 3.04786 151.343L3.93501 151.805ZM4.69 150.29L5.56402 150.776C6.11345 149.788 6.66185 148.765 7.22792 147.708L6.34645 147.236L5.46498 146.764C4.89777 147.822 4.35663 148.832 3.81598 149.804L4.69 150.29ZM9.70782 141.154L10.5715 141.658C11.6331 139.838 12.83 137.904 14.2364 135.835L13.4094 135.273L12.5823 134.711C11.1462 136.824 9.92508 138.797 8.84411 140.65L9.70782 141.154ZM17.5135 129.662L18.3005 130.279C18.9828 129.409 19.704 128.516 20.4678 127.601L19.7 126.96L18.9322 126.319C18.1554 127.25 17.4215 128.159 16.7265 129.045L17.5135 129.662ZM19.7 126.96L20.52 127.532C21.3029 126.411 22.0667 125.338 22.8197 124.308L22.0124 123.718L21.2052 123.127C20.4419 124.171 19.6695 125.257 18.88 126.388L19.7 126.96ZM26.9326 117.463L27.6908 118.116C29.4346 116.088 31.2163 114.236 33.1402 112.493L32.4687 111.752L31.7972 111.011C29.805 112.816 27.9658 114.729 26.1745 116.811L26.9326 117.463ZM38.7062 106.816L39.2757 107.638C40.3174 106.916 41.4104 106.203 42.5646 105.491L42.04 104.64L41.5154 103.789C40.3327 104.517 39.2095 105.251 38.1366 105.994L38.7062 106.816ZM42.04 104.64L42.5646 105.491C43.679 104.805 44.8019 104.075 45.9605 103.319L45.4138 102.482L44.8671 101.644C43.7083 102.401 42.6051 103.117 41.5154 103.789L42.04 104.64ZM52.1833 98.2049L52.6923 99.0657C54.7617 97.8419 57.0551 96.5854 59.6812 95.326L59.2488 94.4243L58.8164 93.5227C56.1307 94.8106 53.7859 96.0954 51.6743 97.3442L52.1833 98.2049ZM66.6132 91.2673L66.9702 92.2014C69.2529 91.329 71.7454 90.4668 74.4851 89.6257L74.1917 88.6697L73.8982 87.7138C71.1171 88.5675 68.5821 89.4442 66.2562 90.3332L66.6132 91.2673ZM81.9097 86.5329L82.1516 87.5032C84.5747 86.899 87.1588 86.3123 89.9202 85.748L89.72 84.7682L89.5198 83.7885C86.7318 84.3583 84.1198 84.9512 81.6677 85.5627L81.9097 86.5329ZM97.5924 83.306L97.7585 84.2921C100.261 83.8707 102.888 83.4667 105.65 83.0826L105.513 82.0922L105.375 81.1017C102.595 81.4882 99.9481 81.8951 97.4263 82.3199L97.5924 83.306ZM113.472 81.0859L113.586 82.0794C114.888 81.9303 116.217 81.7853 117.573 81.6447L117.47 80.65L117.367 79.6553C116.004 79.7967 114.668 79.9424 113.359 80.0924L113.472 81.0859ZM117.47 80.65L117.573 81.6447C119.182 81.4778 120.717 81.3156 122.208 81.1578L122.102 80.1634L121.997 79.1689C120.507 79.3267 118.974 79.4887 117.367 79.6553L117.47 80.65ZM131.362 79.2058L131.459 80.201C134.37 79.9157 137.37 79.644 140.711 79.382L140.632 78.3851L140.554 77.3881C137.199 77.6513 134.186 77.9242 131.264 78.2106L131.362 79.2058ZM149.923 77.7434L149.983 78.7416C152.789 78.5714 155.854 78.4044 159.261 78.2394L159.213 77.2406L159.165 76.2417C155.75 76.4071 152.677 76.5745 149.862 76.7452L149.923 77.7434ZM168.514 76.8306L168.554 77.8298C170.051 77.7695 171.604 77.7094 173.217 77.6493L173.18 76.65L173.143 75.6507C171.527 75.7108 169.972 75.771 168.474 75.8314L168.514 76.8306ZM173.18 76.65L173.217 77.6493C174.591 77.5982 176.02 77.5463 177.499 77.4936L177.464 76.4942L177.428 75.4948C175.948 75.5476 174.518 75.5995 173.143 75.6507L173.18 76.65ZM186.061 76.1964L186.095 77.1958C188.858 77.1022 191.733 77.0064 194.693 76.9081L194.66 75.9087L194.627 74.9092C191.666 75.0075 188.791 75.1034 186.027 75.197L186.061 76.1964ZM203.26 75.6239L203.293 76.6234C206.115 76.5299 208.987 76.4344 211.888 76.337L211.855 75.3375L211.821 74.3381C208.92 74.4355 206.049 74.531 203.227 74.6245L203.26 75.6239ZM220.452 75.0453L220.487 76.0447C223.349 75.946 226.222 75.8455 229.084 75.743L229.049 74.7436L229.013 73.7442C226.151 73.8467 223.28 73.9473 220.418 74.0459L220.452 75.0453ZM237.645 74.4283L237.683 75.4276C240.584 75.3183 243.456 75.207 246.278 75.0936L246.238 74.0944L246.198 73.0952C243.378 73.2085 240.508 73.3198 237.608 73.429L237.645 74.4283ZM254.835 73.7349L254.879 74.734C257.839 74.6048 260.715 74.473 263.479 74.3387L263.43 73.3399L263.382 72.3411C260.622 72.4752 257.749 72.6068 254.792 72.7359L254.835 73.7349ZM272.021 72.8922L272.077 73.8906C273.557 73.8074 274.987 73.7232 276.362 73.6381L276.3 72.64L276.238 71.6419C274.868 71.7268 273.441 71.8107 271.965 71.8937L272.021 72.8922ZM276.3 72.64L276.362 73.6381C277.955 73.5394 279.474 73.439 280.921 73.3373L280.851 72.3398L280.781 71.3422C279.34 71.4436 277.827 71.5436 276.238 71.6419L276.3 72.64ZM289.935 71.6044L290.028 72.6C293.632 72.2634 296.618 71.9219 299.117 71.5877L298.985 70.5965L298.852 69.6053C296.383 69.9356 293.423 70.2742 289.842 70.6087L289.935 71.6044ZM307.955 69.0538L308.173 70.0298C309.191 69.8023 310.024 69.5942 310.739 69.4142C311.459 69.2328 312.043 69.0845 312.589 68.968L312.38 67.99L312.171 67.012C311.581 67.1379 310.956 67.297 310.251 67.4748C309.539 67.6538 308.728 67.8565 307.737 68.0779L307.955 69.0538ZM312.38 67.99L312.589 68.968C314.044 68.6575 315.582 68.3342 317.155 67.9781L316.935 67.0028L316.714 66.0275C315.156 66.38 313.635 66.6999 312.171 67.012L312.38 67.99ZM325.915 64.5111L326.246 65.4544C329.263 64.3929 332.21 63.0533 334.838 61.2765L334.278 60.448L333.718 59.6196C331.273 61.2724 328.494 62.5434 325.583 63.5678L325.915 64.5111ZM340.74 53.8299L341.594 54.3505C342.414 53.0053 343.101 51.5301 343.631 49.9106L342.68 49.6L341.729 49.2894C341.248 50.7625 340.626 52.0967 339.887 53.3093L340.74 53.8299ZM342.68 49.6L343.631 49.9106C343.969 48.8734 344.259 47.7531 344.484 46.6L343.503 46.4084L342.521 46.2167C342.311 47.2943 342.041 48.3348 341.729 49.2894L342.68 49.6ZM343.955 39.8464L344.952 39.7683C344.855 38.5327 344.638 37.3445 344.263 36.2858L343.32 36.62L342.378 36.9542C342.68 37.806 342.871 38.8133 342.958 39.9245L343.955 39.8464ZM343.32 36.62L344.263 36.2858C343.774 34.908 343.141 33.7027 342.441 32.6103L341.599 33.1496L340.757 33.6889C341.391 34.6779 341.949 35.7461 342.378 36.9542L343.32 36.62ZM336.858 27.0083L337.669 26.4235C336.945 25.419 336.342 24.4022 335.929 23.2757L334.99 23.62L334.051 23.9643C334.548 25.3181 335.258 26.4987 336.047 27.5932L336.858 27.0083ZM334.99 23.62L335.929 23.2757C335.617 22.426 335.432 21.4804 335.559 20.4671L334.567 20.3421L333.575 20.2172C333.397 21.6328 333.664 22.9076 334.051 23.9643L334.99 23.62ZM338.059 14.8399L338.697 15.6099C339.409 15.0195 340.271 14.4143 341.309 13.8008L340.8 12.94L340.291 12.0792C339.176 12.7385 338.226 13.403 337.421 14.0698L338.059 14.8399ZM340.8 12.94L341.309 13.8008C342.41 13.1501 343.695 12.4944 345.141 11.8342L344.726 10.9245L344.311 10.0149C342.82 10.6953 341.469 11.383 340.291 12.0792L340.8 12.94ZM352.94 7.66619L353.275 8.60841C355.885 7.68056 358.694 6.75318 361.624 5.8252L361.322 4.87189L361.02 3.91858C358.077 4.8508 355.244 5.78577 352.605 6.72397L352.94 7.66619ZM369.768 2.27196L370.057 3.22933C371.462 2.80556 372.874 2.38183 374.287 1.95783L374 1L373.713 0.0421737C372.3 0.466097 370.886 0.890286 369.479 1.31459L369.768 2.27196Z" fill="#401D26"/>
</svg>
