<svg width="271" height="78" viewBox="0 0 271 78" fill="none" xmlns="http://www.w3.org/2000/svg">
<path d="M269.553 8.89439C270.047 9.14138 270.647 8.94115 270.894 8.44717C271.141 7.95319 270.941 7.35252 270.447 7.10553L270 7.99996L269.553 8.89439ZM170.39 1.67996L170.35 2.67915L170.39 1.67996ZM146.69 4.63996L145.861 4.08049L146.69 4.63996ZM144.99 19.63L145.971 19.4354L144.99 19.63ZM161.32 45.97L162.171 45.445L161.32 45.97ZM160.35 51.31L160.983 52.0839L160.35 51.31ZM66.02 54.33L66.0137 53.33L65.9863 53.3302L65.959 53.3318L66.02 54.33ZM8.37 68.31L7.8963 67.4293L7.84148 67.4588L7.79073 67.4948L8.37 68.31ZM0 78L10.4265 73.0379L0.915983 66.4893L0 78ZM2.64141 75.9269C2.96203 75.4772 2.8574 74.8527 2.40772 74.5321C1.95803 74.2115 1.33357 74.3161 1.01294 74.7658L1.82717 75.3464L2.64141 75.9269ZM5.19923 69.6585C4.8061 70.0464 4.80186 70.6796 5.18975 71.0727C5.57765 71.4659 6.2108 71.4701 6.60394 71.0822L5.90158 70.3704L5.19923 69.6585ZM12.1317 67.5058C12.6281 67.2637 12.8344 66.6651 12.5924 66.1687C12.3503 65.6722 11.7517 65.466 11.2553 65.708L11.6935 66.6069L12.1317 67.5058ZM18.1645 62.6676C17.6508 62.8706 17.399 63.4515 17.602 63.9651C17.8049 64.4788 18.3859 64.7306 18.8995 64.5277L18.532 63.5976L18.1645 62.6676ZM25.8765 62.0562C26.4031 61.8898 26.6952 61.3281 26.5289 60.8014C26.3625 60.2748 25.8007 59.9827 25.2741 60.1491L25.5753 61.1026L25.8765 62.0562ZM32.525 58.1078C31.9891 58.2414 31.663 58.7842 31.7966 59.32C31.9303 59.8559 32.473 60.182 33.0089 60.0484L32.7669 59.0781L32.525 58.1078ZM40.2541 58.4491C40.7962 58.344 41.1505 57.8192 41.0454 57.277C40.9403 56.7349 40.4155 56.3806 39.8733 56.4857L40.0637 57.4674L40.2541 58.4491ZM47.2891 55.2246C46.7427 55.3053 46.3652 55.8136 46.4459 56.3599C46.5265 56.9063 47.0348 57.2838 47.5812 57.2032L47.4351 56.2139L47.2891 55.2246ZM54.9515 56.2627C55.5006 56.203 55.8973 55.7095 55.8376 55.1604C55.7779 54.6114 55.2844 54.2147 54.7353 54.2744L54.8434 55.2685L54.9515 56.2627ZM62.2093 53.5882C61.6586 53.6299 61.246 54.1102 61.2877 54.6609C61.3295 55.2116 61.8097 55.6242 62.3604 55.5824L62.2849 54.5853L62.2093 53.5882ZM69.9742 55.3067C70.5264 55.3037 70.9717 54.8536 70.9687 54.3013C70.9657 53.749 70.5155 53.3038 69.9633 53.3068L69.9687 54.3068L69.9742 55.3067ZM77.8538 53.2695C77.3015 53.2718 76.8556 53.7213 76.8578 54.2736C76.8601 54.8259 77.3096 55.2718 77.8619 55.2695L77.8578 54.2695L77.8538 53.2695ZM85.7409 55.2416C86.2932 55.2399 86.7395 54.7908 86.7378 54.2385C86.7361 53.6863 86.287 53.2399 85.7347 53.2417L85.7378 54.2417L85.7409 55.2416ZM93.614 53.2191C93.0617 53.2206 92.6152 53.6696 92.6167 54.2218C92.6182 54.7741 93.0672 55.2206 93.6195 55.2191L93.6167 54.2191L93.614 53.2191ZM101.51 55.1969C102.062 55.1952 102.509 54.7461 102.507 54.1939C102.505 53.6416 102.056 53.1952 101.504 53.1969L101.507 54.1969L101.51 55.1969ZM109.389 53.1685C108.837 53.1709 108.391 53.6206 108.393 54.1728C108.396 54.7251 108.845 55.1709 109.398 55.1685L109.393 54.1685L109.389 53.1685ZM117.282 55.1249C117.834 55.121 118.278 54.6702 118.274 54.1179C118.271 53.5657 117.82 53.1211 117.268 53.125L117.275 54.1249L117.282 55.1249ZM125.146 53.053C124.594 53.0595 124.151 53.5124 124.158 54.0646C124.164 54.6169 124.617 55.0593 125.17 55.0529L125.158 54.0529L125.146 53.053ZM133.072 54.931C133.624 54.92 134.062 54.4635 134.051 53.9113C134.04 53.3592 133.584 52.9204 133.032 52.9314L133.052 53.9312L133.072 54.931ZM140.899 52.7228C140.347 52.742 139.915 53.205 139.935 53.7569C139.954 54.3089 140.417 54.7408 140.969 54.7216L140.934 53.7222L140.899 52.7228ZM148.871 54.3408C149.422 54.3043 149.839 53.828 149.803 53.277C149.767 52.7259 149.29 52.3087 148.739 52.3451L148.805 53.343L148.871 54.3408ZM156.476 51.5262C155.932 51.622 155.569 52.1406 155.665 52.6846C155.761 53.2285 156.279 53.5917 156.823 53.4958L156.649 52.511L156.476 51.5262ZM162.18 50.7265C162.471 50.2569 162.326 49.6406 161.856 49.3499C161.387 49.0592 160.77 49.2042 160.48 49.6737L161.33 50.2001L162.18 50.7265ZM160.883 47.5379C160.99 48.0799 161.515 48.433 162.057 48.3266C162.599 48.2202 162.952 47.6947 162.846 47.1527L161.864 47.3453L160.883 47.5379ZM159.957 42.1445C159.635 41.696 159.01 41.5936 158.561 41.9159C158.113 42.2381 158.01 42.8629 158.333 43.3115L159.145 42.728L159.957 42.1445ZM153.608 37.1457C153.949 37.5805 154.577 37.6569 155.012 37.3163C155.447 36.9757 155.523 36.3472 155.182 35.9124L154.395 36.5291L153.608 37.1457ZM150.588 29.6944C150.282 29.2346 149.661 29.11 149.202 29.416C148.742 29.722 148.617 30.3427 148.923 30.8025L149.756 30.2484L150.588 29.6944ZM145.15 23.7323C145.348 24.2478 145.927 24.5053 146.442 24.3073C146.958 24.1092 147.215 23.5308 147.017 23.0152L146.084 23.3737L145.15 23.7323ZM145.439 15.7193C145.393 15.1689 144.91 14.76 144.36 14.8059C143.809 14.8518 143.4 15.3351 143.446 15.8855L144.443 15.8024L145.439 15.7193ZM144.107 7.84891C143.95 8.37818 144.251 8.93513 144.78 9.0929C145.309 9.25068 145.866 8.94952 146.024 8.42025L145.066 8.13458L144.107 7.84891ZM149.41 3.67673C149.923 3.47059 150.171 2.88811 149.965 2.37574C149.759 1.86338 149.176 1.61513 148.664 1.82128L149.037 2.749L149.41 3.67673ZM154.979 0.670954C154.429 0.71081 154.014 1.18967 154.054 1.74051C154.094 2.29136 154.573 2.7056 155.124 2.66574L155.052 1.66835L154.979 0.670954ZM161.181 2.47525C161.733 2.47416 162.18 2.02557 162.179 1.47328C162.177 0.921001 161.729 0.474167 161.177 0.475252L161.179 1.47525L161.181 2.47525ZM167.343 0.571599C166.791 0.555069 166.33 0.989184 166.313 1.54122C166.297 2.09326 166.731 2.55417 167.283 2.5707L167.313 1.57115L167.343 0.571599ZM174.516 2.84916C175.068 2.87193 175.534 2.44305 175.556 1.89123C175.579 1.33942 175.15 0.873626 174.599 0.850857L174.557 1.85001L174.516 2.84916ZM182.918 1.20197C182.367 1.17816 181.9 1.60615 181.876 2.15792C181.852 2.70969 182.28 3.1763 182.832 3.20011L182.875 2.20104L182.918 1.20197ZM191.131 3.56659C191.682 3.59153 192.15 3.16448 192.175 2.61276C192.2 2.06104 191.773 1.59356 191.221 1.56863L191.176 2.56761L191.131 3.56659ZM199.549 1.95405C198.997 1.9279 198.529 2.35391 198.503 2.90558C198.477 3.45724 198.903 3.92565 199.454 3.9518L199.502 2.95292L199.549 1.95405ZM207.767 4.35583C208.319 4.38332 208.788 3.95845 208.816 3.40685C208.843 2.85525 208.418 2.3858 207.867 2.35831L207.817 3.35707L207.767 4.35583ZM216.18 2.78394C215.629 2.75492 215.158 3.1785 215.129 3.73002C215.1 4.28154 215.524 4.75216 216.075 4.78118L216.128 3.78256L216.18 2.78394ZM224.383 5.23126C224.934 5.26206 225.406 4.84 225.437 4.28857C225.468 3.73715 225.046 3.26517 224.494 3.23438L224.439 4.23282L224.383 5.23126ZM232.806 3.71425C232.255 3.6813 231.781 4.1015 231.748 4.6528C231.716 5.2041 232.136 5.67773 232.687 5.71068L232.747 4.71247L232.806 3.71425ZM240.971 6.22587C241.523 6.26161 241.998 5.84381 242.034 5.29269C242.07 4.74156 241.652 4.26581 241.101 4.23006L241.036 5.22797L240.971 6.22587ZM249.423 4.79808C248.872 4.75832 248.393 5.17265 248.354 5.7235C248.314 6.27435 248.728 6.75313 249.279 6.79289L249.351 5.79548L249.423 4.79808ZM257.557 7.43679C258.108 7.48348 258.592 7.07521 258.638 6.52491C258.685 5.9746 258.277 5.49064 257.726 5.44395L257.642 6.44037L257.557 7.43679ZM266.05 6.26733C265.502 6.20016 265.003 6.59009 264.936 7.13828C264.869 7.68646 265.259 8.18531 265.807 8.25248L265.929 7.2599L266.05 6.26733ZM5.90158 70.3704L6.60394 71.0822C7.40755 70.2893 8.15139 69.6921 8.94927 69.1251L8.37 68.31L7.79073 67.4948C6.92218 68.112 6.09261 68.777 5.19923 69.6585L5.90158 70.3704ZM8.37 68.31L8.8437 69.1906C9.91039 68.6169 11.0053 68.0549 12.1317 67.5058L11.6935 66.6069L11.2553 65.708C10.1046 66.269 8.98604 66.8431 7.8963 67.4293L8.37 68.31ZM18.532 63.5976L18.8995 64.5277C21.1025 63.6571 23.4223 62.8314 25.8765 62.0562L25.5753 61.1026L25.2741 60.1491C22.7759 60.9382 20.4119 61.7795 18.1645 62.6676L18.532 63.5976ZM32.7669 59.0781L33.0089 60.0484C35.3116 59.4742 37.7231 58.9399 40.2541 58.4491L40.0637 57.4674L39.8733 56.4857C37.3091 56.983 34.8632 57.5248 32.525 58.1078L32.7669 59.0781ZM47.4351 56.2139L47.5812 57.2032C49.9411 56.8548 52.3956 56.5406 54.9515 56.2627L54.8434 55.2685L54.7353 54.2744C52.1552 54.555 49.6753 54.8724 47.2891 55.2246L47.4351 56.2139ZM62.2849 54.5853L62.3604 55.5824C63.5793 55.4901 64.8193 55.4052 66.081 55.3281L66.02 54.33L65.959 53.3318C64.6878 53.4095 63.4381 53.495 62.2093 53.5882L62.2849 54.5853ZM66.02 54.33L66.0263 55.3299C67.3516 55.3216 68.6677 55.3139 69.9742 55.3067L69.9687 54.3068L69.9633 53.3068C68.6562 53.3139 67.3396 53.3216 66.0137 53.33L66.02 54.33ZM77.8578 54.2695L77.8619 55.2695C80.5347 55.2587 83.162 55.2497 85.7409 55.2416L85.7378 54.2417L85.7347 53.2417C83.1554 53.2497 80.5274 53.2587 77.8538 53.2695L77.8578 54.2695ZM93.6167 54.2191L93.6195 55.2191C96.3118 55.2118 98.9434 55.2047 101.51 55.1969L101.507 54.1969L101.504 53.1969C98.9377 53.2047 96.3065 53.2118 93.614 53.2191L93.6167 54.2191ZM109.393 54.1685L109.398 55.1685C112.113 55.1567 114.743 55.1426 117.282 55.1249L117.275 54.1249L117.268 53.125C114.731 53.1427 112.103 53.1567 109.389 53.1685L109.393 54.1685ZM125.158 54.0529L125.17 55.0529C127.943 55.0204 130.58 54.9806 133.072 54.931L133.052 53.9312L133.032 52.9314C130.547 52.9808 127.916 53.0206 125.146 53.053L125.158 54.0529ZM140.934 53.7222L140.969 54.7216C143.897 54.6199 146.539 54.495 148.871 54.3408L148.805 53.343L148.739 52.3451C146.434 52.4976 143.814 52.6216 140.899 52.7228L140.934 53.7222ZM156.649 52.511L156.823 53.4958C157.782 53.3269 158.61 53.1363 159.288 52.9175C159.949 52.7046 160.548 52.4402 160.983 52.0839L160.35 51.31L159.717 50.536C159.57 50.6561 159.252 50.8278 158.675 51.014C158.115 51.1944 157.384 51.3661 156.476 51.5262L156.649 52.511ZM160.35 51.31L160.983 52.0839C161.466 51.689 161.868 51.2303 162.18 50.7265L161.33 50.2001L160.48 49.6737C160.287 49.9846 160.033 50.2773 159.717 50.536L160.35 51.31ZM161.864 47.3453L162.846 47.1527C162.73 46.5634 162.505 45.9867 162.171 45.445L161.32 45.97L160.469 46.4949C160.68 46.8367 160.815 47.1888 160.883 47.5379L161.864 47.3453ZM161.32 45.97L162.171 45.445C161.481 44.3268 160.735 43.2283 159.957 42.1445L159.145 42.728L158.333 43.3115C159.091 44.3675 159.81 45.4262 160.469 46.4949L161.32 45.97ZM154.395 36.5291L155.182 35.9124C153.565 33.8476 151.987 31.7957 150.588 29.6944L149.756 30.2484L148.923 30.8025C150.369 32.974 151.989 35.0788 153.608 37.1457L154.395 36.5291ZM146.084 23.3737L147.017 23.0152C146.568 21.8463 146.213 20.6554 145.971 19.4354L144.99 19.63L144.009 19.8246C144.276 21.168 144.665 22.4685 145.15 23.7323L146.084 23.3737ZM144.99 19.63L145.971 19.4354C145.731 18.2286 145.544 16.9779 145.439 15.7193L144.443 15.8024L143.446 15.8855C143.558 17.2298 143.757 18.5556 144.009 19.8246L144.99 19.63ZM145.066 8.13458L146.024 8.42025C146.37 7.26085 146.859 6.17717 147.519 5.19943L146.69 4.63996L145.861 4.08049C145.073 5.24785 144.503 6.52114 144.107 7.84891L145.066 8.13458ZM146.69 4.63996L147.519 5.19943C147.909 4.6214 148.308 4.12035 149.41 3.67673L149.037 2.749L148.664 1.82128C147.084 2.45666 146.401 3.28114 145.861 4.08049L146.69 4.63996ZM155.052 1.66835L155.124 2.66574C156.752 2.54793 158.741 2.48004 161.181 2.47525L161.179 1.47525L161.177 0.475252C158.704 0.480113 156.667 0.548867 154.979 0.670954L155.052 1.66835ZM167.313 1.57115L167.283 2.5707C168.255 2.59982 169.277 2.63585 170.35 2.67915L170.39 1.67996L170.43 0.680772C169.351 0.637216 168.323 0.600939 167.343 0.571599L167.313 1.57115ZM170.39 1.67996L170.35 2.67915C171.75 2.73564 173.139 2.79232 174.516 2.84916L174.557 1.85001L174.599 0.850857C173.22 0.793991 171.831 0.737288 170.43 0.680772L170.39 1.67996ZM182.875 2.20104L182.832 3.20011C185.652 3.32183 188.419 3.44406 191.131 3.56659L191.176 2.56761L191.221 1.56863C188.508 1.44604 185.74 1.32375 182.918 1.20197L182.875 2.20104ZM199.502 2.95292L199.454 3.9518C202.296 4.0865 205.068 4.22127 207.767 4.35583L207.817 3.35707L207.867 2.35831C205.166 2.22367 202.392 2.08882 199.549 1.95405L199.502 2.95292ZM216.128 3.78256L216.075 4.78118C218.943 4.93202 221.713 5.08219 224.383 5.23126L224.439 4.23282L224.494 3.23438C221.822 3.08518 219.05 2.93489 216.18 2.78394L216.128 3.78256ZM232.747 4.71247L232.687 5.71068C235.601 5.88486 238.365 6.05683 240.971 6.22587L241.036 5.22797L241.101 4.23006C238.491 4.06078 235.723 3.8886 232.806 3.71425L232.747 4.71247ZM249.351 5.79548L249.279 6.79289C252.361 7.0153 255.126 7.23056 257.557 7.43679L257.642 6.44037L257.726 5.44395C255.285 5.23685 252.511 5.02095 249.423 4.79808L249.351 5.79548ZM265.929 7.2599L265.807 8.25248C266.93 8.39002 267.819 8.51888 268.474 8.63761C268.801 8.69704 269.059 8.75203 269.253 8.80168C269.349 8.82642 269.423 8.8482 269.478 8.86644C269.535 8.88562 269.556 8.89592 269.553 8.89439L270 7.99996L270.447 7.10553C270.085 6.92425 269.49 6.78925 268.831 6.66972C268.122 6.54117 267.19 6.40693 266.05 6.26733L265.929 7.2599Z" fill="#401D26"/>
</svg>
