<svg width="587" height="147" viewBox="0 0 587 147" fill="none" xmlns="http://www.w3.org/2000/svg">
<path d="M586.05 1.99875C586.602 1.97116 587.026 1.50163 586.999 0.950037C586.971 0.398442 586.502 -0.0263447 585.95 0.0012489L586 1L586.05 1.99875ZM529.7 8.32L530.006 9.27205L529.7 8.32ZM523.36 16.94L524.32 17.2202L523.36 16.94ZM523.32 32.92L522.357 33.1893L523.32 32.92ZM529.96 41.64L530.413 40.7482L529.96 41.64ZM555.97 46.99L556.211 46.0195L555.97 46.99ZM565.98 55.3L565.128 55.8243L565.98 55.3ZM563.7 98.3L562.967 97.6202L563.7 98.3ZM533.7 108.99L533.965 109.954L533.7 108.99ZM505.7 113.33L505.589 112.336L505.7 113.33ZM422.23 116.67L422.224 115.67L422.23 116.67ZM363.47 112.01L363.414 113.008L363.47 112.01ZM298.15 106.67L298.165 105.67L298.15 106.67ZM235.7 102.67L235.804 101.675L235.7 102.67ZM159.95 101.33L159.958 102.33L159.95 101.33ZM104.73 106.66L104.579 105.671L104.73 106.66ZM70.03 113.33L70.1454 114.323L70.03 113.33ZM41.71 119.32L41.9889 120.28L41.71 119.32ZM12.03 134.98L11.5064 134.128L11.4907 134.138L11.4753 134.148L12.03 134.98ZM6.36 139.31L5.65501 138.601L6.36 139.31ZM2 147L10.8841 139.624L0.0541319 135.618L2 147ZM3.69974 145.286C3.909 144.774 3.66432 144.19 3.15321 143.981C2.64211 143.772 2.05814 144.017 1.84887 144.528L2.7743 144.907L3.69974 145.286ZM4.09324 140.399C3.76528 140.844 3.85965 141.47 4.30402 141.798C4.74839 142.126 5.37449 142.031 5.70244 141.587L4.89784 140.993L4.09324 140.399ZM8.32352 138.876C8.74716 138.522 8.80335 137.891 8.44902 137.467C8.09469 137.044 7.46403 136.988 7.04039 137.342L7.68195 138.109L8.32352 138.876ZM9.98296 135.151C9.52704 135.463 9.41014 136.085 9.72184 136.541C10.0335 136.997 10.6558 137.114 11.1117 136.802L10.5473 135.977L9.98296 135.151ZM16.1317 133.573C16.5962 133.275 16.7306 132.656 16.4319 132.191C16.1331 131.727 15.5144 131.592 15.0499 131.891L15.5908 132.732L16.1317 133.573ZM22.1636 127.347C21.6938 127.637 21.5482 128.254 21.8385 128.724C22.1288 129.193 22.745 129.339 23.2149 129.049L22.6892 128.198L22.1636 127.347ZM30.4622 124.92C30.9537 124.668 31.148 124.066 30.8962 123.574C30.6444 123.083 30.0418 122.888 29.5503 123.14L30.0062 124.03L30.4622 124.92ZM37.3638 119.696C36.8453 119.887 36.5793 120.461 36.7696 120.98C36.96 121.498 37.5346 121.764 38.053 121.574L37.7084 120.635L37.3638 119.696ZM45.4614 119.299C45.9941 119.153 46.3074 118.603 46.1613 118.07C46.0152 117.538 45.465 117.225 44.9324 117.371L45.1969 118.335L45.4614 119.299ZM51.9835 115.563C51.4461 115.691 51.1139 116.23 51.2415 116.767C51.369 117.304 51.9081 117.637 52.4454 117.509L52.2144 116.536L51.9835 115.563ZM59.4857 115.987C60.0279 115.882 60.3822 115.357 60.2772 114.815C60.1721 114.273 59.6474 113.919 59.1052 114.024L59.2954 115.006L59.4857 115.987ZM66.2961 112.807C65.7494 112.886 65.3699 113.392 65.4484 113.939C65.5269 114.486 66.0337 114.865 66.5804 114.787L66.4382 113.797L66.2961 112.807ZM74.5717 113.662C75.1156 113.567 75.479 113.048 75.3834 112.504C75.2878 111.961 74.7693 111.597 74.2254 111.693L74.3985 112.678L74.5717 113.662ZM82.8465 109.95C82.3067 110.067 81.964 110.599 82.0811 111.139C82.1981 111.678 82.7305 112.021 83.2702 111.904L83.0583 110.927L82.8465 109.95ZM91.9002 110.043C92.4407 109.929 92.7873 109.4 92.6742 108.859C92.5611 108.318 92.0312 107.972 91.4906 108.085L91.6954 109.064L91.9002 110.043ZM100.196 106.394C99.6521 106.489 99.2889 107.008 99.3846 107.552C99.4804 108.096 99.999 108.459 100.543 108.363L100.369 107.379L100.196 106.394ZM109.461 106.931C110.006 106.844 110.378 106.332 110.291 105.786C110.204 105.241 109.692 104.869 109.146 104.956L109.303 105.944L109.461 106.931ZM118.298 103.517C117.752 103.6 117.376 104.109 117.458 104.655C117.541 105.201 118.05 105.577 118.596 105.495L118.447 104.506L118.298 103.517ZM127.738 104.247C128.286 104.181 128.677 103.683 128.611 103.134C128.545 102.586 128.047 102.195 127.499 102.261L127.618 103.254L127.738 104.247ZM136.746 101.32C136.195 101.366 135.786 101.849 135.832 102.399C135.878 102.95 136.361 103.359 136.912 103.313L136.829 102.317L136.746 101.32ZM146.115 102.709C146.667 102.682 147.092 102.213 147.065 101.661C147.038 101.11 146.569 100.684 146.018 100.711L146.066 101.71L146.115 102.709ZM155.298 100.395C154.746 100.406 154.308 100.863 154.319 101.415C154.33 101.967 154.787 102.406 155.339 102.394L155.319 101.395L155.298 100.395ZM163.745 102.304C164.298 102.3 164.743 101.85 164.739 101.298C164.736 100.746 164.286 100.301 163.734 100.304L163.739 101.304L163.745 102.304ZM171.315 100.274C170.762 100.275 170.315 100.724 170.316 101.276C170.317 101.828 170.766 102.275 171.318 102.274L171.316 101.274L171.315 100.274ZM178.896 102.276C179.448 102.277 179.897 101.831 179.898 101.279C179.899 100.726 179.453 100.277 178.901 100.276L178.898 101.276L178.896 102.276ZM186.488 100.31C185.936 100.307 185.485 100.751 185.482 101.304C185.478 101.856 185.923 102.307 186.475 102.31L186.482 101.31L186.488 100.31ZM194.047 102.378C194.6 102.384 195.052 101.942 195.059 101.39C195.065 100.837 194.622 100.385 194.07 100.378L194.059 101.378L194.047 102.378ZM201.652 100.482C201.099 100.473 200.645 100.914 200.636 101.466C200.627 102.018 201.067 102.473 201.619 102.482L201.635 101.482L201.652 100.482ZM209.183 102.626C209.736 102.638 210.193 102.2 210.205 101.648C210.217 101.095 209.779 100.638 209.227 100.626L209.205 101.626L209.183 102.626ZM216.816 100.816C216.264 100.8 215.804 101.235 215.788 101.787C215.772 102.339 216.207 102.799 216.759 102.815L216.788 101.815L216.816 100.816ZM224.316 103.062C224.868 103.082 225.332 102.652 225.353 102.1C225.373 101.548 224.943 101.084 224.391 101.063L224.353 102.062L224.316 103.062ZM231.99 101.405C231.438 101.374 230.966 101.796 230.936 102.348C230.905 102.899 231.327 103.371 231.878 103.402L231.934 102.404L231.99 101.405ZM239.485 104.053C240.034 104.106 240.523 103.703 240.576 103.153C240.629 102.603 240.226 102.115 239.676 102.062L239.581 103.057L239.485 104.053ZM247.463 102.774C246.913 102.726 246.428 103.133 246.38 103.683C246.332 104.233 246.739 104.718 247.29 104.766L247.376 103.77L247.463 102.774ZM255.099 105.414C255.65 105.458 256.131 105.047 256.175 104.496C256.219 103.945 255.807 103.464 255.257 103.42L255.178 104.417L255.099 105.414ZM263.051 104.006C262.5 103.966 262.021 104.381 261.982 104.932C261.943 105.483 262.358 105.961 262.909 106.001L262.98 105.003L263.051 104.006ZM270.729 106.523C271.28 106.557 271.754 106.138 271.789 105.587C271.823 105.036 271.404 104.561 270.853 104.527L270.791 105.525L270.729 106.523ZM278.654 104.975C278.103 104.946 277.632 105.37 277.603 105.921C277.575 106.473 277.998 106.943 278.55 106.972L278.602 105.973L278.654 104.975ZM286.379 107.335C286.931 107.357 287.396 106.928 287.418 106.376C287.441 105.824 287.011 105.359 286.459 105.337L286.419 106.336L286.379 107.335ZM294.266 105.592C293.714 105.579 293.255 106.015 293.241 106.567C293.228 107.12 293.664 107.578 294.217 107.592L294.241 106.592L294.266 105.592ZM302.212 107.77C302.764 107.789 303.227 107.357 303.245 106.805C303.264 106.253 302.832 105.79 302.28 105.771L302.246 106.771L302.212 107.77ZM310.494 106.179C309.942 106.143 309.467 106.562 309.432 107.113C309.397 107.664 309.815 108.139 310.366 108.174L310.43 107.176L310.494 106.179ZM318.516 108.788C319.067 108.835 319.551 108.426 319.598 107.876C319.645 107.326 319.237 106.842 318.686 106.795L318.601 107.791L318.516 108.788ZM326.86 107.553C326.31 107.499 325.821 107.9 325.766 108.45C325.712 108.999 326.113 109.489 326.663 109.544L326.761 108.548L326.86 107.553ZM334.809 110.382C335.358 110.44 335.85 110.041 335.908 109.492C335.966 108.943 335.568 108.451 335.018 108.393L334.913 109.387L334.809 110.382ZM343.167 109.252C342.618 109.195 342.126 109.594 342.069 110.143C342.012 110.693 342.411 111.184 342.96 111.241L343.063 110.247L343.167 109.252ZM351.125 112.056C351.674 112.108 352.162 111.704 352.214 111.154C352.265 110.604 351.861 110.116 351.311 110.065L351.218 111.06L351.125 112.056ZM359.455 110.75C358.904 110.71 358.426 111.124 358.386 111.675C358.346 112.226 358.76 112.705 359.311 112.744L359.383 111.747L359.455 110.75ZM367.098 113.227C367.65 113.262 368.125 112.843 368.159 112.292C368.194 111.741 367.775 111.266 367.224 111.231L367.161 112.229L367.098 113.227ZM374.589 111.749C374.039 111.706 373.557 112.118 373.514 112.668C373.471 113.219 373.883 113.7 374.434 113.743L374.511 112.746L374.589 111.749ZM381.762 114.373C382.312 114.425 382.8 114.021 382.851 113.471C382.903 112.921 382.499 112.433 381.949 112.382L381.855 113.378L381.762 114.373ZM389.293 113.123C388.744 113.064 388.251 113.461 388.192 114.01C388.134 114.559 388.531 115.052 389.08 115.111L389.187 114.117L389.293 113.123ZM396.4 115.922C396.949 115.984 397.444 115.589 397.505 115.04C397.567 114.491 397.172 113.996 396.623 113.934L396.511 114.928L396.4 115.922ZM403.936 114.723C403.387 114.668 402.897 115.069 402.842 115.619C402.787 116.169 403.188 116.659 403.737 116.713L403.837 115.718L403.936 114.723ZM411.115 117.336C411.666 117.372 412.142 116.954 412.178 116.403C412.214 115.852 411.796 115.376 411.245 115.34L411.18 116.338L411.115 117.336ZM418.56 115.648C418.008 115.638 417.552 116.078 417.542 116.63C417.532 117.182 417.972 117.638 418.524 117.648L418.542 116.648L418.56 115.648ZM426.438 117.642C426.991 117.638 427.435 117.187 427.431 116.635C427.427 116.082 426.976 115.638 426.424 115.642L426.431 116.642L426.438 117.642ZM434.786 115.568C434.234 115.574 433.791 116.026 433.797 116.578C433.802 117.131 434.255 117.574 434.807 117.568L434.796 116.568L434.786 115.568ZM443.158 117.466C443.71 117.458 444.152 117.004 444.144 116.451C444.136 115.899 443.682 115.458 443.13 115.466L443.144 116.466L443.158 117.466ZM451.479 115.329C450.927 115.339 450.488 115.795 450.498 116.347C450.509 116.899 450.965 117.339 451.517 117.328L451.498 116.328L451.479 115.329ZM459.885 117.147C460.437 117.133 460.874 116.675 460.86 116.122C460.847 115.57 460.388 115.134 459.836 115.147L459.861 116.147L459.885 117.147ZM468.161 114.911C467.609 114.929 467.176 115.391 467.194 115.943C467.212 116.495 467.674 116.927 468.226 116.909L468.194 115.91L468.161 114.911ZM476.59 116.595C477.142 116.571 477.57 116.104 477.546 115.552C477.522 115.001 477.055 114.573 476.504 114.597L476.547 115.596L476.59 116.595ZM484.846 114.174C484.295 114.207 483.874 114.68 483.907 115.231C483.939 115.783 484.413 116.203 484.964 116.171L484.905 115.172L484.846 114.174ZM493.316 115.587C493.866 115.542 494.276 115.059 494.231 114.509C494.185 113.958 493.702 113.549 493.152 113.594L493.234 114.591L493.316 115.587ZM501.443 112.798C500.894 112.858 500.497 113.351 500.557 113.9C500.616 114.449 501.11 114.846 501.659 114.786L501.551 113.792L501.443 112.798ZM509.331 113.942C509.88 113.884 510.278 113.392 510.22 112.842C510.161 112.293 509.669 111.895 509.12 111.954L509.225 112.948L509.331 113.942ZM516.157 111.18C515.609 111.246 515.217 111.743 515.282 112.291C515.347 112.84 515.844 113.232 516.393 113.166L516.275 112.173L516.157 111.18ZM523.459 112.194C524.005 112.106 524.375 111.593 524.288 111.048C524.2 110.502 523.687 110.132 523.141 110.219L523.3 111.207L523.459 112.194ZM530.037 108.884C529.499 109.008 529.163 109.545 529.287 110.083C529.412 110.621 529.949 110.957 530.487 110.832L530.262 109.858L530.037 108.884ZM537.841 109.04C538.382 108.929 538.73 108.4 538.619 107.859C538.507 107.318 537.978 106.97 537.437 107.082L537.639 108.061L537.841 109.04ZM545.4 105.569C544.858 105.676 544.506 106.202 544.614 106.744C544.721 107.286 545.247 107.638 545.789 107.53L545.595 106.549L545.4 105.569ZM553.757 105.499C554.28 105.322 554.56 104.754 554.383 104.231C554.205 103.708 553.637 103.428 553.114 103.606L553.436 104.552L553.757 105.499ZM560.081 100.156C559.632 100.478 559.53 101.103 559.852 101.552C560.173 102 560.798 102.103 561.247 101.781L560.664 100.969L560.081 100.156ZM566.601 95.5929C566.846 95.0977 566.643 94.498 566.147 94.2535C565.652 94.009 565.052 94.2122 564.808 94.7074L565.705 95.1502L566.601 95.5929ZM567.351 87.8449C567.201 88.3766 567.511 88.9287 568.043 89.0781C568.575 89.2274 569.127 88.9174 569.276 88.3857L568.313 88.1153L567.351 87.8449ZM570.85 80.9151C570.929 80.3685 570.549 79.8616 570.003 79.783C569.456 79.7045 568.949 80.0839 568.87 80.6306L569.86 80.7729L570.85 80.9151ZM569.42 73.2895C569.418 73.8418 569.865 74.2907 570.417 74.2922C570.969 74.2937 571.418 73.8472 571.42 73.2949L570.42 73.2922L569.42 73.2895ZM570.797 65.6459C570.702 65.1018 570.184 64.7379 569.64 64.8329C569.096 64.928 568.732 65.4461 568.827 65.9901L569.812 65.818L570.797 65.6459ZM566.79 59.0261C567.009 59.533 567.597 59.7662 568.104 59.547C568.611 59.3278 568.845 58.7392 568.625 58.2322L567.708 58.6292L566.79 59.0261ZM564.847 51.9413C564.502 51.5104 563.872 51.4411 563.442 51.7866C563.011 52.1321 562.941 52.7614 563.287 53.1923L564.067 52.5668L564.847 51.9413ZM558.585 49.0848C559.068 49.3512 559.677 49.175 559.943 48.6912C560.209 48.2075 560.033 47.5993 559.549 47.3329L559.067 48.2088L558.585 49.0848ZM552.851 45.3541C552.305 45.2693 551.794 45.6428 551.709 46.1886C551.624 46.7343 551.998 47.2455 552.543 47.3304L552.697 46.3423L552.851 45.3541ZM545.968 46.583C546.517 46.6371 547.007 46.2353 547.061 45.6857C547.115 45.1361 546.713 44.6467 546.163 44.5926L546.066 45.5878L545.968 46.583ZM539.627 43.7455C539.083 43.6465 538.563 44.0068 538.464 44.5501C538.365 45.0934 538.725 45.6141 539.268 45.7131L539.448 44.7293L539.627 43.7455ZM532.661 43.9213C533.178 44.1164 533.755 43.8558 533.95 43.3391C534.145 42.8225 533.884 42.2454 533.368 42.0503L533.014 42.9858L532.661 43.9213ZM528.273 39.3146C527.855 38.9544 527.223 39.0018 526.863 39.4204C526.503 39.839 526.55 40.4704 526.969 40.8306L527.621 40.0726L528.273 39.3146ZM523.381 35.99C523.613 36.4911 524.208 36.709 524.709 36.4767C525.21 36.2445 525.428 35.65 525.195 35.1489L524.288 35.5695L523.381 35.99ZM523.556 28.841C523.492 28.2925 522.995 27.8998 522.446 27.964C521.898 28.0283 521.505 28.525 521.569 29.0735L522.563 28.9573L523.556 28.841ZM521.582 20.7765C521.516 21.3247 521.906 21.8231 522.454 21.8896C523.003 21.9561 523.501 21.5655 523.568 21.0173L522.575 20.8969L521.582 20.7765ZM525.213 14.7314C525.434 14.2249 525.201 13.6358 524.695 13.4155C524.189 13.1953 523.599 13.4273 523.379 13.9338L524.296 14.3326L525.213 14.7314ZM526.677 9.02327C526.272 9.39809 526.247 10.0308 526.622 10.4364C526.996 10.842 527.629 10.867 528.035 10.4922L527.356 9.75773L526.677 9.02327ZM533.381 8.20924C533.91 8.04983 534.21 7.49194 534.05 6.96316C533.891 6.43438 533.333 6.13495 532.804 6.29436L533.093 7.2518L533.381 8.20924ZM539.775 4.51078C539.235 4.62468 538.889 5.15511 539.003 5.69552C539.117 6.23593 539.647 6.58169 540.188 6.46778L539.981 5.48928L539.775 4.51078ZM547.134 5.24242C547.68 5.16156 548.058 4.65312 547.977 4.10679C547.896 3.56045 547.387 3.18311 546.841 3.26397L546.987 4.2532L547.134 5.24242ZM553.934 2.35436C553.385 2.41561 552.989 2.91021 553.051 3.45909C553.112 4.00797 553.607 4.40327 554.155 4.34202L554.044 3.34819L553.934 2.35436ZM561.221 3.63996C561.771 3.59114 562.178 3.10559 562.129 2.55547C562.08 2.00535 561.594 1.59897 561.044 1.64779L561.133 2.64388L561.221 3.63996ZM568.145 1.07578C567.594 1.11614 567.18 1.59537 567.221 2.14618C567.261 2.69699 567.74 3.11079 568.291 3.07043L568.218 2.07311L568.145 1.07578ZM575.395 2.59177C575.946 2.55758 576.366 2.083 576.331 1.53177C576.297 0.980546 575.823 0.561414 575.271 0.595613L575.333 1.59369L575.395 2.59177ZM582.39 0.185508C581.838 0.215039 581.415 0.686054 581.445 1.23755C581.474 1.78904 581.945 2.21218 582.497 2.18265L582.443 1.18408L582.39 0.185508ZM4.89784 140.993L5.70244 141.587C6.12871 141.009 6.57758 140.504 7.06499 140.019L6.36 139.31L5.65501 138.601C5.10708 139.145 4.58898 139.728 4.09324 140.399L4.89784 140.993ZM6.36 139.31L7.06499 140.019C7.465 139.622 7.88548 139.242 8.32352 138.876L7.68195 138.109L7.04039 137.342C6.56482 137.74 6.10113 138.157 5.65501 138.601L6.36 139.31ZM10.5473 135.977L11.1117 136.802C11.5958 136.471 12.0865 136.144 12.5847 135.812L12.03 134.98L11.4753 134.148C10.9787 134.479 10.4782 134.813 9.98296 135.151L10.5473 135.977ZM12.03 134.98L12.5535 135.832C13.7445 135.1 14.9351 134.343 16.1317 133.573L15.5908 132.732L15.0499 131.891C13.858 132.658 12.6804 133.407 11.5064 134.128L12.03 134.98ZM22.6892 128.198L23.2149 129.049C25.5327 127.617 27.9298 126.217 30.4622 124.92L30.0062 124.03L29.5503 123.14C26.9552 124.469 24.5095 125.898 22.1636 127.347L22.6892 128.198ZM37.7084 120.635L38.053 121.574C39.3258 121.106 40.6361 120.673 41.9889 120.28L41.71 119.32L41.4311 118.36C40.0322 118.766 38.678 119.214 37.3638 119.696L37.7084 120.635ZM41.71 119.32L41.9889 120.28C43.1607 119.94 44.3179 119.613 45.4614 119.299L45.1969 118.335L44.9324 117.371C43.7789 117.687 42.6121 118.017 41.4311 118.36L41.71 119.32ZM52.2144 116.536L52.4454 117.509C54.8447 116.939 57.188 116.433 59.4857 115.987L59.2954 115.006L59.1052 114.024C56.7785 114.475 54.4081 114.987 51.9835 115.563L52.2144 116.536ZM66.4382 113.797L66.5804 114.787C67.7783 114.615 68.9661 114.46 70.1454 114.323L70.03 113.33L69.9146 112.337C68.717 112.476 67.5114 112.633 66.2961 112.807L66.4382 113.797ZM70.03 113.33L70.1454 114.323C71.5441 114.161 73.0221 113.935 74.5717 113.662L74.3985 112.678L74.2254 111.693C72.7023 111.96 71.2643 112.18 69.9146 112.337L70.03 113.33ZM83.0583 110.927L83.2702 111.904C86.0029 111.312 88.8805 110.674 91.9002 110.043L91.6954 109.064L91.4906 108.085C88.4616 108.719 85.5678 109.36 82.8465 109.95L83.0583 110.927ZM100.369 107.379L100.543 108.363C101.967 108.113 103.414 107.873 104.881 107.649L104.73 106.66L104.579 105.671C103.095 105.898 101.634 106.141 100.196 106.394L100.369 107.379ZM104.73 106.66L104.881 107.649C106.424 107.413 107.945 107.173 109.461 106.931L109.303 105.944L109.146 104.956C107.633 105.197 106.116 105.437 104.579 105.671L104.73 106.66ZM118.447 104.506L118.596 105.495C121.518 105.055 124.531 104.632 127.738 104.247L127.618 103.254L127.499 102.261C124.267 102.65 121.234 103.075 118.298 103.517L118.447 104.506ZM136.829 102.317L136.912 103.313C139.782 103.074 142.833 102.869 146.115 102.709L146.066 101.71L146.018 100.711C142.713 100.873 139.639 101.079 136.746 101.32L136.829 102.317ZM155.319 101.395L155.339 102.394C156.833 102.364 158.372 102.343 159.958 102.33L159.95 101.33L159.942 100.33C158.348 100.343 156.801 100.364 155.298 100.395L155.319 101.395ZM159.95 101.33L159.958 102.33C161.232 102.32 162.495 102.311 163.745 102.304L163.739 101.304L163.734 100.304C162.482 100.311 161.218 100.32 159.942 100.33L159.95 101.33ZM171.316 101.274L171.318 102.274C173.905 102.27 176.432 102.27 178.896 102.276L178.898 101.276L178.901 100.276C176.434 100.27 173.904 100.27 171.315 100.274L171.316 101.274ZM186.482 101.31L186.475 102.31C189.084 102.328 191.61 102.351 194.047 102.378L194.059 101.378L194.07 100.378C191.629 100.351 189.1 100.328 186.488 100.31L186.482 101.31ZM201.635 101.482L201.619 102.482C204.273 102.525 206.797 102.573 209.183 102.626L209.205 101.626L209.227 100.626C206.837 100.574 204.31 100.526 201.652 100.482L201.635 101.482ZM216.788 101.815L216.759 102.815C219.554 102.894 222.079 102.978 224.316 103.062L224.353 102.062L224.391 101.063C222.147 100.979 219.616 100.895 216.816 100.816L216.788 101.815ZM231.934 102.404L231.878 103.402C233.63 103.5 234.877 103.59 235.596 103.665L235.7 102.67L235.804 101.675C235.033 101.595 233.745 101.503 231.99 101.405L231.934 102.404ZM235.7 102.67L235.596 103.665C236.667 103.776 237.974 103.907 239.485 104.053L239.581 103.057L239.676 102.062C238.17 101.917 236.868 101.786 235.804 101.675L235.7 102.67ZM247.376 103.77L247.29 104.766C249.696 104.975 252.318 105.194 255.099 105.414L255.178 104.417L255.257 103.42C252.481 103.201 249.864 102.982 247.463 102.774L247.376 103.77ZM262.98 105.003L262.909 106.001C265.449 106.181 268.067 106.357 270.729 106.523L270.791 105.525L270.853 104.527C268.198 104.361 265.586 104.186 263.051 104.006L262.98 105.003ZM278.602 105.973L278.55 106.972C281.159 107.108 283.779 107.231 286.379 107.335L286.419 106.336L286.459 105.337C283.868 105.233 281.256 105.111 278.654 104.975L278.602 105.973ZM294.241 106.592L294.217 107.592C295.537 107.624 296.845 107.651 298.135 107.67L298.15 106.67L298.165 105.67C296.882 105.651 295.581 105.625 294.266 105.592L294.241 106.592ZM298.15 106.67L298.135 107.67C299.487 107.69 300.846 107.724 302.212 107.77L302.246 106.771L302.28 105.771C300.902 105.725 299.53 105.691 298.165 105.67L298.15 106.67ZM310.43 107.176L310.366 108.174C313.075 108.347 315.795 108.555 318.516 108.788L318.601 107.791L318.686 106.795C315.954 106.562 313.219 106.352 310.494 106.179L310.43 107.176ZM326.761 108.548L326.663 109.544C329.393 109.814 332.111 110.097 334.809 110.382L334.913 109.387L335.018 108.393C332.32 108.108 329.596 107.824 326.86 107.553L326.761 108.548ZM343.063 110.247L342.96 111.241C345.722 111.529 348.448 111.805 351.125 112.056L351.218 111.06L351.311 110.065C348.644 109.815 345.926 109.539 343.167 109.252L343.063 110.247ZM359.383 111.747L359.311 112.744C360.698 112.844 362.066 112.933 363.414 113.008L363.47 112.01L363.526 111.012C362.19 110.937 360.832 110.849 359.455 110.75L359.383 111.747ZM363.47 112.01L363.414 113.008C364.676 113.079 365.904 113.152 367.098 113.227L367.161 112.229L367.224 111.231C366.024 111.155 364.792 111.082 363.526 111.012L363.47 112.01ZM374.511 112.746L374.434 113.743C377.034 113.946 379.467 114.158 381.762 114.373L381.855 113.378L381.949 112.382C379.644 112.166 377.201 111.953 374.589 111.749L374.511 112.746ZM389.187 114.117L389.08 115.111C391.669 115.389 394.086 115.662 396.4 115.922L396.511 114.928L396.623 113.934C394.312 113.675 391.888 113.401 389.293 113.123L389.187 114.117ZM403.837 115.718L403.737 116.713C406.213 116.961 408.641 117.174 411.115 117.336L411.18 116.338L411.245 115.34C408.8 115.18 406.396 114.969 403.936 114.723L403.837 115.718ZM418.542 116.648L418.524 117.648C419.73 117.67 420.965 117.678 422.236 117.67L422.23 116.67L422.224 115.67C420.969 115.678 419.75 115.67 418.56 115.648L418.542 116.648ZM422.23 116.67L422.236 117.67C423.664 117.661 425.064 117.652 426.438 117.642L426.431 116.642L426.424 115.642C425.05 115.652 423.651 115.661 422.224 115.67L422.23 116.67ZM434.796 116.568L434.807 117.568C437.72 117.537 440.501 117.503 443.158 117.466L443.144 116.466L443.13 115.466C440.475 115.503 437.697 115.538 434.786 115.568L434.796 116.568ZM451.498 116.328L451.517 117.328C454.479 117.272 457.264 117.212 459.885 117.147L459.861 116.147L459.836 115.147C457.218 115.212 454.438 115.273 451.479 115.329L451.498 116.328ZM468.194 115.91L468.226 116.909C471.264 116.811 474.04 116.705 476.59 116.595L476.547 115.596L476.504 114.597C473.961 114.707 471.192 114.812 468.161 114.911L468.194 115.91ZM484.905 115.172L484.964 116.171C488.147 115.983 490.887 115.787 493.316 115.587L493.234 114.591L493.152 113.594C490.739 113.792 488.014 113.987 484.846 114.174L484.905 115.172ZM501.551 113.792L501.659 114.786C503.108 114.629 504.473 114.474 505.811 114.324L505.7 113.33L505.589 112.336C504.246 112.487 502.888 112.641 501.443 112.798L501.551 113.792ZM505.7 113.33L505.811 114.324C506.976 114.193 508.149 114.068 509.331 113.942L509.225 112.948L509.12 111.954C507.938 112.079 506.76 112.205 505.589 112.336L505.7 113.33ZM516.275 112.173L516.393 113.166C518.727 112.889 521.085 112.577 523.459 112.194L523.3 111.207L523.141 110.219C520.802 110.596 518.473 110.905 516.157 111.18L516.275 112.173ZM530.262 109.858L530.487 110.832C531.644 110.565 532.804 110.274 533.965 109.954L533.7 108.99L533.435 108.026C532.301 108.338 531.169 108.622 530.037 108.884L530.262 109.858ZM533.7 108.99L533.965 109.954C535.204 109.613 536.501 109.317 537.841 109.04L537.639 108.061L537.437 107.082C536.071 107.363 534.729 107.669 533.435 108.026L533.7 108.99ZM545.595 106.549L545.789 107.53C548.465 106.999 551.169 106.378 553.757 105.499L553.436 104.552L553.114 103.606C550.648 104.442 548.043 105.044 545.4 105.569L545.595 106.549ZM560.664 100.969L561.247 101.781C562.38 100.968 563.449 100.042 564.433 98.9799L563.7 98.3L562.967 97.6202C562.079 98.5775 561.113 99.4161 560.081 100.156L560.664 100.969ZM563.7 98.3L564.433 98.9799C565.157 98.1993 565.895 97.0234 566.601 95.5929L565.705 95.1502L564.808 94.7074C564.139 96.0629 563.501 97.0436 562.967 97.6202L563.7 98.3ZM568.313 88.1153L569.276 88.3857C569.919 86.0971 570.468 83.571 570.85 80.9151L569.86 80.7729L568.87 80.6306C568.502 83.1973 567.971 85.6377 567.351 87.8449L568.313 88.1153ZM570.42 73.2922L571.42 73.2949C571.427 70.7504 571.239 68.1734 570.797 65.6459L569.812 65.818L568.827 65.9901C569.246 68.3868 569.426 70.8456 569.42 73.2895L570.42 73.2922ZM567.708 58.6292L568.625 58.2322C568.111 57.0429 567.516 55.8869 566.831 54.7757L565.98 55.3L565.128 55.8243C565.76 56.8492 566.311 57.9195 566.79 59.0261L567.708 58.6292ZM565.98 55.3L566.831 54.7757C566.207 53.7617 565.547 52.8138 564.847 51.9413L564.067 52.5668L563.287 53.1923C563.929 53.993 564.542 54.8721 565.128 55.8243L565.98 55.3ZM559.067 48.2088L559.549 47.3329C558.499 46.7545 557.387 46.3117 556.211 46.0195L555.97 46.99L555.729 47.9605C556.731 48.2094 557.681 48.587 558.585 49.0848L559.067 48.2088ZM555.97 46.99L556.211 46.0195C555.1 45.7435 553.979 45.5296 552.851 45.3541L552.697 46.3423L552.543 47.3304C553.627 47.4989 554.688 47.702 555.729 47.9605L555.97 46.99ZM546.066 45.5878L546.163 44.5926C543.996 44.3793 541.822 44.1453 539.627 43.7455L539.448 44.7293L539.268 45.7131C541.55 46.1288 543.795 46.3692 545.968 46.583L546.066 45.5878ZM533.014 42.9858L533.368 42.0503C532.385 41.6793 531.4 41.2494 530.413 40.7482L529.96 41.64L529.508 42.5317C530.562 43.0671 531.614 43.5259 532.661 43.9213L533.014 42.9858ZM529.96 41.64L530.413 40.7482C529.686 40.3798 528.963 39.9085 528.273 39.3146L527.621 40.0726L526.969 40.8306C527.787 41.5344 528.645 42.0941 529.508 42.5317L529.96 41.64ZM524.288 35.5695L525.195 35.1489C524.848 34.3998 524.54 33.5697 524.283 32.6507L523.32 32.92L522.357 33.1893C522.642 34.2071 522.986 35.1387 523.381 35.99L524.288 35.5695ZM523.32 32.92L524.283 32.6507C523.959 31.4912 523.715 30.2005 523.556 28.841L522.563 28.9573L521.569 29.0735C521.739 30.5186 522 31.9135 522.357 33.1893L523.32 32.92ZM522.575 20.8969L523.568 21.0173C523.733 19.656 523.985 18.3693 524.32 17.2202L523.36 16.94L522.4 16.6598C522.029 17.9314 521.758 19.3273 521.582 20.7765L522.575 20.8969ZM523.36 16.94L524.32 17.2202C524.581 16.3259 524.881 15.4945 525.213 14.7314L524.296 14.3326L523.379 13.9338C523.012 14.7787 522.683 15.6898 522.4 16.6598L523.36 16.94ZM527.356 9.75773L528.035 10.4922C528.7 9.87745 529.368 9.47712 530.006 9.27205L529.7 8.32L529.394 7.36795C528.424 7.6798 527.51 8.25441 526.677 9.02327L527.356 9.75773ZM529.7 8.32L530.006 9.27205C531.12 8.91412 532.216 8.56053 533.381 8.20924L533.093 7.2518L532.804 6.29436C531.618 6.65189 530.504 7.01138 529.394 7.36795L529.7 8.32ZM539.981 5.48928L540.188 6.46778C542.156 6.05278 544.425 5.64335 547.134 5.24242L546.987 4.2532L546.841 3.26397C544.097 3.67013 541.788 4.08648 539.775 4.51078L539.981 5.48928ZM554.044 3.34819L554.155 4.34202C556.291 4.10366 558.636 3.86942 561.221 3.63996L561.133 2.64388L561.044 1.64779C558.446 1.87843 556.086 2.11414 553.934 2.35436L554.044 3.34819ZM568.218 2.07311L568.291 3.07043C570.509 2.9079 572.873 2.74826 575.395 2.59177L575.333 1.59369L575.271 0.595613C572.742 0.75252 570.371 0.912654 568.145 1.07578L568.218 2.07311ZM582.443 1.18408L582.497 2.18265C583.652 2.12077 584.836 2.05947 586.05 1.99875L586 1L585.95 0.0012489C584.734 0.0620791 583.548 0.123504 582.39 0.185508L582.443 1.18408Z" fill="#401D26"/>
</svg>
