<svg width="56" height="57" viewBox="0 0 56 57" fill="none" xmlns="http://www.w3.org/2000/svg">
<path d="M52.9007 25.4104C52.772 25.6807 52.6464 25.9704 52.5241 26.2793L47.9959 37.209L42.7531 29.6876L45.389 23.3152C45.5048 23.0256 45.6207 22.7456 45.7173 22.4849L52.9007 25.4104Z" fill="#E64C3C"/>
<path d="M38.3503 22.0505C38.2538 23.9815 38.051 25.9125 37.7614 27.8436L31.022 28.9346C30.8789 26.492 30.9241 24.042 31.1572 21.6063V21.5967L38.3503 22.0505Z" fill="#4482C3"/>
<path d="M22.0042 10.2325C22.0042 10.2325 22.8538 17.7471 20.0345 18.4027C17.2152 19.0583 14.4828 11.9994 14.4828 11.9994L14.6662 7.05592C15.4676 7.34558 15.5564 4.03192 16.4544 3.81951C17.3523 3.60709 19.0593 6.50558 19.6483 5.88764L22.0042 10.2325Z" fill="#FDD7AD"/>
<path d="M27.0828 31.9469L25.1035 38.3772L24.5628 37.9138L19.5324 33.5497L14.4828 11.9993C14.4828 11.9993 16.0855 14.5966 18.9049 13.9304C21.7242 13.2641 22.0042 10.2324 22.0042 10.2324L27.0828 31.9469Z" fill="#E64C3C"/>
<path d="M24.5628 37.914L19.5324 33.5499L14.4828 11.9995C14.4828 11.9995 16.0855 14.5968 18.9049 13.9305L24.5628 37.914Z" fill="#C03A2B"/>
<path d="M15.5255 34.1002L15.4483 46.1016L7.83033 43.2823L0.125503 24.696C0.0264014 24.4592 0.0256896 24.1927 0.123525 23.9554C0.22136 23.718 0.409687 23.5294 0.646882 23.4312L8.67998 20.1098C9.17323 19.908 9.73707 20.1404 9.94481 20.6312L10.6786 22.4174L11.0455 23.3057L11.4124 24.194L12.1558 25.9802L12.5227 26.8685L12.8993 27.7664L13.6331 29.5526L14 30.4409L14.3669 31.3292L15.4869 34.0133L15.5255 34.1002Z" fill="#F0C419"/>
<path d="M11.4124 24.1938L6.96136 26.0476C6.84114 26.0933 6.71344 26.1162 6.58481 26.1152C6.12814 26.1098 5.73769 25.7852 5.64902 25.3372C5.56035 24.8892 5.79771 24.4403 6.21792 24.2614L10.6786 22.4172L11.0455 23.3055L11.4124 24.1938Z" fill="#B19046"/>
<path d="M12.8993 27.7662L10.2152 28.8765C10.0986 28.923 9.97386 28.946 9.8483 28.9441C9.39163 28.9387 9.00118 28.6141 8.91251 28.1661C8.82384 27.7181 9.0612 27.2692 9.4814 27.0903L12.1559 25.98L12.5228 26.8683L12.8993 27.7662Z" fill="#B19046"/>
<path d="M14.3669 31.329L9.91587 33.1828C9.79875 33.2277 9.67438 33.2506 9.54897 33.2504C9.09051 33.2495 8.69588 32.9264 8.60462 32.4771C8.51336 32.0278 8.75063 31.5763 9.17242 31.3966L13.6331 29.5525L14 30.4408L14.3669 31.329Z" fill="#B19046"/>
<path d="M56 49.9634C56 51.7559 55.2879 53.475 54.0204 54.7425C52.753 56.01 51.0339 56.7221 49.2414 56.7221H6.75862C3.02594 56.7221 0 53.6961 0 49.9634C0 46.2307 3.02594 43.2048 6.75862 43.2048C7.41254 43.203 8.06318 43.2973 8.68966 43.4848C8.76518 39.6814 10.9636 36.2403 14.3831 34.5733C17.8026 32.9063 21.8676 33.294 24.9103 35.5772C26.9635 30.1178 32.6272 26.9078 38.3659 27.9512C44.1045 28.9946 48.2759 33.9927 48.2759 39.8255C48.2784 41.0267 48.0993 42.2213 47.7448 43.3689C48.2363 43.2603 48.7381 43.2053 49.2414 43.2048C51.0339 43.2048 52.753 43.9169 54.0204 45.1844C55.2879 46.4519 56 48.1709 56 49.9634Z" fill="#E6E7E8"/>
<path d="M19.6483 5.88767C19.0394 6.58313 18.246 7.09196 17.36 7.35525C16.4518 7.51075 15.5181 7.40701 14.6662 7.05594L14.8496 1.95801C14.8689 1.39049 15.2635 0.905136 15.8152 0.770425C15.9073 0.751243 16.0011 0.741537 16.0952 0.74146C16.5627 0.740174 16.9931 0.996176 17.2152 1.40767L19.6483 5.88767Z" fill="#2C2F38"/>
<path d="M38.3503 22.0504C35.9432 22.1719 33.53 22.0196 31.1572 21.5966C31.3021 20.0228 31.5145 18.4683 31.7655 16.9138C33.9379 17.049 36.1296 17.1842 38.36 17.3193C38.4437 18.8953 38.4404 20.4747 38.3503 22.0504Z" fill="#95A5A5"/>
<path d="M31.7655 16.9139C31.7655 16.9139 27.8822 13.3927 31.4035 9.50842C34.3309 6.27973 35.4944 4.07545 35.42 1.98607C35.4122 1.79031 35.5248 1.60966 35.7041 1.53058C35.8833 1.4515 36.0927 1.49009 36.232 1.62787C38.6101 3.95573 43.9745 10.4537 38.3031 17.3175" fill="#805333"/>
<path d="M36.3855 14.9152C36.0198 14.9152 35.6855 14.7086 35.5219 14.3815C35.3584 14.0544 35.3937 13.663 35.6131 13.3704C36.4592 12.2109 36.8052 10.7607 36.5738 9.34419C36.4757 9.00791 36.5675 8.6449 36.8136 8.39562C37.0597 8.14635 37.4215 8.0499 37.759 8.14361C38.0965 8.23732 38.3568 8.50649 38.4392 8.84695C38.8263 10.8382 38.3604 12.9004 37.155 14.5319C36.9727 14.7731 36.6879 14.915 36.3855 14.9152Z" fill="#603E26"/>
<path d="M23.9255 50.929C23.5385 50.929 23.1889 50.698 23.0373 50.342C22.7248 49.6121 22.5638 48.8264 22.5641 48.0324C22.5626 45.3188 24.4448 42.9678 27.093 42.3756C29.7412 41.7834 32.4456 43.1088 33.6 45.5646C33.8272 46.0472 33.6201 46.6225 33.1375 46.8497C32.6549 47.0768 32.0796 46.8698 31.8524 46.3872C31.2226 45.027 29.8561 44.1603 28.3573 44.1704C26.2243 44.1704 24.4952 45.8995 24.4952 48.0324C24.495 48.5662 24.6034 49.0945 24.8138 49.585C24.9142 49.8206 24.9169 50.0864 24.8213 50.324C24.7257 50.5615 24.5396 50.7514 24.304 50.8517C24.1844 50.903 24.0556 50.9293 23.9255 50.929Z" fill="#BDC3C7"/>
<path d="M38.6207 48.3511C38.2425 48.3512 37.899 48.1304 37.7421 47.7863C37.2698 46.7609 36.2448 46.1033 35.1159 46.1015C34.4641 46.1 33.8315 46.3222 33.3239 46.731C32.9069 47.0635 32.2993 46.9949 31.9668 46.5779C31.6343 46.161 31.7029 45.5534 32.1198 45.2209C32.9687 44.5379 34.0263 44.1671 35.1159 44.1704C37.0012 44.1721 38.7131 45.2713 39.4993 46.9849C39.6356 47.2838 39.6106 47.6315 39.4329 47.9079C39.2552 48.1842 38.9492 48.3512 38.6207 48.3511Z" fill="#BDC3C7"/>
<path d="M13.5173 43.2049C12.984 43.2049 12.5518 42.7726 12.5518 42.2393C12.5518 38.6882 15.9629 37.5083 16.1087 37.461C16.6153 37.2909 17.1639 37.5637 17.334 38.0702C17.5041 38.5768 17.2313 39.1254 16.7247 39.2955C15.4491 39.7306 14.5631 40.8939 14.4828 42.2393C14.4828 42.7726 14.0505 43.2049 13.5173 43.2049Z" fill="#BDC3C7"/>
<path d="M29.931 36.4462C29.8516 36.4465 29.7724 36.4368 29.6955 36.4172C29.1782 36.2876 28.864 35.7633 28.9935 35.246C29.6419 32.5788 32.014 30.6891 34.7586 30.6531C35.2919 30.6517 35.7252 31.0829 35.7266 31.6162C35.7279 32.1494 35.2967 32.5828 34.7635 32.5841C32.9075 32.6303 31.3119 33.9127 30.8676 35.7153C30.76 36.1449 30.3739 36.4462 29.931 36.4462Z" fill="#BDC3C7"/>
<path d="M55.9421 20.1387C55.9735 20.2937 55.9306 20.4544 55.8262 20.5732C54.5918 22.0138 53.6034 23.6482 52.9007 25.4104C52.5595 25.6648 52.1727 25.8516 51.7614 25.9608C50.7071 26.2395 49.589 26.1475 48.5945 25.7001C48.5848 25.7001 48.5848 25.6904 48.5752 25.6904C47.5457 25.3063 46.682 24.5757 46.1324 23.6242C45.9272 23.2722 45.7866 22.8864 45.7172 22.4849C46.467 20.7265 46.9268 18.8581 47.0786 16.9525C47.0864 16.7931 47.1733 16.6481 47.3103 16.5663L52.7269 13.187L54.1269 12.3083L54.5034 13.9208L55.9421 20.1387Z" fill="#F0C419"/>
<path d="M54.1269 12.3083L51.1821 19.4435H51.1724L48.5945 25.7001C48.5848 25.7001 48.5848 25.6904 48.5752 25.6904C47.5457 25.3063 46.682 24.5757 46.1324 23.6242C45.9272 23.2722 45.7866 22.8864 45.7172 22.4849C46.467 20.7265 46.9268 18.8581 47.0786 16.9525C47.0864 16.7931 47.1733 16.6481 47.3103 16.5663L52.7269 13.187L54.1269 12.3083Z" fill="#F3D55B"/>
<path d="M54.5034 13.9208L52.4276 18.9221C52.2795 19.2827 51.9291 19.5188 51.5393 19.5208C51.4162 19.5193 51.2947 19.4931 51.1821 19.4435H51.1724C50.8105 19.2971 50.5736 18.9457 50.5738 18.5552C50.5761 18.426 50.6023 18.2984 50.651 18.1787L52.7269 13.187L54.1269 12.3083L54.5034 13.9208Z" fill="#E57E25"/>
</svg>
