<svg width="56" height="57" viewBox="0 0 56 57" fill="none" xmlns="http://www.w3.org/2000/svg">
<path d="M51.3131 12.2563H0.00407911C0.00407911 12.2563 0.0479384 42.8177 0.00407911 44.5088C0.00375098 44.5233 0.00375098 44.5379 0.00418848 44.5523C0.0482665 46.1795 0.714906 47.7021 1.88117 48.8398C3.05017 49.9799 4.59323 50.6079 6.22652 50.6079H33.3276C33.5456 50.6079 33.7547 50.5213 33.9089 50.3673L51.8945 32.3817C52.0486 32.2275 52.1351 32.0186 52.1351 31.8005V13.0782C52.1351 12.6242 51.767 12.2563 51.3131 12.2563Z" fill="#E0E0E2"/>
<path d="M14.8706 33.7479H18.2293L20.9224 25.2967L33.9629 12.2563H30.8943L17.8539 25.2967L14.8706 33.7479Z" fill="#C6C5CA"/>
<path d="M51.3131 12.2563H48.5734V35.7027L51.8943 32.3817C52.0484 32.2275 52.1349 32.0186 52.1349 31.8005V13.0782C52.135 12.6242 51.767 12.2563 51.3131 12.2563Z" fill="#C6C5CA"/>
<path d="M37.4506 34.4212H14.6882C14.2343 34.4212 13.8662 34.0533 13.8662 33.5993C13.8662 33.1453 14.2343 32.7773 14.6882 32.7773H37.4506C37.9046 32.7773 38.2725 33.1453 38.2725 33.5993C38.2725 34.0533 37.9045 34.4212 37.4506 34.4212Z" fill="#3C5156"/>
<path d="M6.24618 37.9935C6.60066 37.9935 6.94793 38.0242 7.28655 38.0804V4.12493C7.28655 3.67092 6.9185 3.30298 6.4646 3.30298C2.90007 3.30298 0 6.20294 0 9.76757V43.4323C0.42339 40.3601 3.05768 37.9935 6.24618 37.9935Z" fill="#919191"/>
<path d="M44.6197 11.4718L39.6835 6.53555C39.5293 6.38144 39.3202 6.29492 39.1023 6.29492C38.8843 6.29492 38.6753 6.38155 38.521 6.53555L20.3412 24.7153C20.3303 24.7262 20.3205 24.7379 20.3102 24.7495L26.4976 30.756L44.6196 12.6343C44.9407 12.3132 44.9407 11.7929 44.6197 11.4718Z" fill="#FFD039"/>
<path d="M24.2395 28.5641L26.4975 30.7562L44.6195 12.6345C44.9405 12.3133 44.9405 11.7931 44.6195 11.472L42.9746 9.82715L24.2395 28.5641Z" fill="#FFA304"/>
<path d="M20.3125 24.7517C20.2397 24.8317 20.1818 24.9257 20.1446 25.0309L17.4542 32.6525C17.3488 32.951 17.4242 33.2834 17.648 33.5073C17.8048 33.6641 18.0149 33.7479 18.2292 33.7479C18.321 33.7479 18.4133 33.7326 18.5027 33.701L26.1242 31.0106C26.2709 30.9588 26.396 30.8665 26.4904 30.7491L20.3125 24.7517Z" fill="#FFC89F"/>
<path d="M18.2293 33.7477C18.321 33.7477 18.4133 33.7324 18.5028 33.7008L26.1243 31.0104C26.2709 30.9587 26.3961 30.8664 26.4904 30.7489L24.237 28.5613L18.1263 30.7482L17.4542 32.6521C17.3489 32.9506 17.4243 33.283 17.648 33.5069C17.8049 33.6638 18.0149 33.7477 18.2293 33.7477Z" fill="#F7B081"/>
<path d="M18.2293 33.7479C18.3211 33.7479 18.4134 33.7326 18.5029 33.701L23.3092 32.0044L19.1432 27.8682L17.4544 32.6523C17.3491 32.9508 17.4244 33.2832 17.6482 33.5071C17.805 33.664 18.015 33.7479 18.2293 33.7479Z" fill="#3C5156"/>
<path d="M21.0061 29.7178L18.1263 30.7484L17.4542 32.6523C17.3489 32.9508 17.4243 33.2832 17.648 33.5071C17.8049 33.6639 18.015 33.7477 18.2293 33.7477C18.321 33.7477 18.4133 33.7324 18.5028 33.7008L23.3092 32.0041L21.0061 29.7178Z" fill="#304144"/>
<path d="M47.2903 8.80138L42.354 3.86519C42.0329 3.54429 41.5126 3.54429 41.1915 3.86519L37.942 7.11471L44.0382 13.216L47.2903 9.96393C47.4444 9.80971 47.5309 9.6008 47.5309 9.38271C47.5309 9.16472 47.4443 8.95571 47.2903 8.80138Z" fill="#FF6137"/>
<path d="M41.8129 10.9886L42.5852 11.7615L44.0388 13.2151L47.2902 9.96357C47.4444 9.80935 47.5309 9.60045 47.5309 9.38235C47.5309 9.16437 47.4442 8.95535 47.2902 8.80114L45.6454 7.15625L41.8129 10.9886Z" fill="#E04F32"/>
<path d="M49.5002 4.20938L46.9458 1.65505C46.4725 1.18178 45.8429 0.921143 45.1736 0.921143C44.5042 0.921143 43.8747 1.18178 43.4014 1.65505L41.7739 3.28254L41.1913 3.86507L40.5991 4.45734L46.7091 10.5448L47.5817 9.67211L49.5001 7.75367C49.9734 7.28041 50.234 6.65085 50.234 5.98147C50.234 5.3121 49.9735 4.68276 49.5002 4.20938Z" fill="#546F7A"/>
<path d="M40.6092 4.44727L40.5991 4.45733L42.4221 6.27339L40.6092 4.44727Z" fill="#475D63"/>
<path d="M49.5002 4.20962L47.4844 2.19385C47.8141 2.632 47.995 3.1628 47.995 3.7228C47.995 4.39961 47.7344 5.03595 47.2611 5.51468L45.3427 7.45444L44.4814 8.3255L46.7094 10.5453L47.582 9.67256L49.5004 7.75413C49.9737 7.28087 50.2343 6.65131 50.2343 5.98193C50.2343 5.31256 49.9735 4.683 49.5002 4.20962Z" fill="#475D63"/>
<path d="M55.4925 27.1762C55.1854 27.0489 54.8319 27.1192 54.5967 27.3542L26.6128 55.3382C26.3777 55.5734 26.3074 55.9269 26.4346 56.234C26.5618 56.5411 26.8616 56.7414 27.194 56.7414H55.1781C55.632 56.7414 56 56.3734 56 55.9194V27.9356C55.9999 27.6032 55.7995 27.3033 55.4925 27.1762ZM40.2534 50.0927L49.236 41.1102V50.0927H40.2534Z" fill="#FFCA10"/>
<path d="M55.4925 27.1762C55.1854 27.0489 54.8319 27.1192 54.5967 27.3542L52.4381 29.5129V56.7415H55.1778C55.6317 56.7415 55.9998 56.3735 55.9998 55.9195V27.9356C55.9999 27.6032 55.7995 27.3033 55.4925 27.1762Z" fill="#FFA304"/>
<path d="M55.9999 37.1716H52.8396C52.3856 37.1716 52.0176 37.5396 52.0176 37.9936C52.0176 38.4476 52.3856 38.8155 52.8396 38.8155H55.9999V37.1716Z" fill="#C96E14"/>
<path d="M55.9999 41.2922H52.8396C52.3856 41.2922 52.0176 41.6602 52.0176 42.1142C52.0176 42.5682 52.3856 42.9361 52.8396 42.9361H55.9999V41.2922Z" fill="#C96E14"/>
<path d="M55.9999 45.4128H52.8396C52.3856 45.4128 52.0176 45.7808 52.0176 46.2348C52.0176 46.6888 52.3856 47.0567 52.8396 47.0567H55.9999V45.4128Z" fill="#C96E14"/>
<path d="M55.9999 49.5334H52.8396C52.3856 49.5334 52.0176 49.9015 52.0176 50.3554C52.0176 50.8094 52.3856 51.1773 52.8396 51.1773H55.9999V49.5334Z" fill="#C96E14"/>
</svg>
