<svg width="194" height="77" viewBox="0 0 194 77" fill="none" xmlns="http://www.w3.org/2000/svg">
<path d="M44.3879 1.92169C44.8969 1.70744 45.1359 1.12111 44.9217 0.612073C44.7074 0.103038 44.1211 -0.135936 43.6121 0.0783097L44 1L44.3879 1.92169ZM13.69 20.64L12.9524 19.9648L13.69 20.64ZM3.01999 38.92L3.9775 39.2084L3.01999 38.92ZM7.96999 66.31L7.32924 67.0777L7.96999 66.31ZM38.61 70.67L38.5861 71.6697L38.61 70.67ZM74.3 60.34L74.1631 59.3494L74.3 60.34ZM107.26 49.68L107.548 50.6376L107.26 49.68ZM152.63 52.66L152.805 51.6754L152.63 52.66ZM179.97 64.98L180.525 64.1479L179.97 64.98ZM185.64 69.31L186.345 68.6008L185.64 69.31ZM194 75L187.083 65.7537L182.534 76.3668L194 75ZM39.4184 1.92562C38.9169 2.15684 38.6977 2.75087 38.9289 3.25242C39.1602 3.75397 39.7542 3.97312 40.2557 3.7419L39.8371 2.83376L39.4184 1.92562ZM32.2169 7.82152C32.6989 7.55186 32.871 6.94254 32.6013 6.46056C32.3317 5.97858 31.7223 5.80647 31.2404 6.07612L31.7286 6.94882L32.2169 7.82152ZM23.4407 10.9407C22.9879 11.2569 22.8772 11.8803 23.1934 12.3331C23.5096 12.7859 24.133 12.8966 24.5858 12.5804L24.0133 11.7605L23.4407 10.9407ZM17.5815 18.1625C17.9881 17.7887 18.0146 17.1561 17.6408 16.7496C17.267 16.343 16.6343 16.3165 16.2278 16.6903L16.9047 17.4264L17.5815 18.1625ZM9.4091 24.0677C9.06931 24.503 9.1468 25.1314 9.58218 25.4712C10.0176 25.811 10.646 25.7335 10.9858 25.2982L10.1974 24.6829L9.4091 24.0677ZM5.74323 34.2774C5.95778 33.7685 5.71915 33.182 5.21025 32.9674C4.70134 32.7529 4.11486 32.9915 3.90031 33.5004L4.82177 33.8889L5.74323 34.2774ZM1.1626 42.2722C1.05776 42.8145 1.41235 43.339 1.95459 43.4439C2.49683 43.5487 3.02139 43.1941 3.12624 42.6519L2.14442 42.4621L1.1626 42.2722ZM2.54565 49.6907C2.52895 49.1386 2.06791 48.7046 1.51587 48.7213C0.963842 48.738 0.529867 49.1991 0.546563 49.7511L1.54611 49.7209L2.54565 49.6907ZM1.67377 57.1906C1.82383 57.7221 2.37635 58.0313 2.90786 57.8813C3.43937 57.7312 3.74859 57.1787 3.59852 56.6472L2.63615 56.9189L1.67377 57.1906ZM6.43026 63.0044C6.12485 62.5443 5.50424 62.4188 5.04408 62.7242C4.58393 63.0297 4.45848 63.6503 4.7639 64.1104L5.59708 63.5574L6.43026 63.0044ZM10.8744 69.314C11.3757 69.5458 11.97 69.3273 12.2017 68.826C12.4335 68.3247 12.215 67.7304 11.7137 67.4987L11.294 68.4064L10.8744 69.314ZM19.0129 69.2796C18.4635 69.2238 17.9729 69.6241 17.9171 70.1735C17.8614 70.723 18.2616 71.2136 18.8111 71.2694L18.912 70.2745L19.0129 69.2796ZM26.7783 71.5973C27.3306 71.6005 27.7808 71.1553 27.784 70.6031C27.7872 70.0508 27.3421 69.6005 26.7898 69.5973L26.784 70.5973L26.7783 71.5973ZM34.6761 69.6111C34.1238 69.6071 33.6729 70.0516 33.6689 70.6039C33.665 71.1562 34.1094 71.6071 34.6617 71.611L34.6689 70.6111L34.6761 69.6111ZM43.4118 71.3375C43.9579 71.2549 44.3336 70.7453 44.2511 70.1992C44.1685 69.6531 43.6589 69.2774 43.1128 69.3599L43.2623 70.3487L43.4118 71.3375ZM51.9561 67.0395C51.4343 67.2204 51.158 67.7901 51.3389 68.3119C51.5199 68.8337 52.0896 69.11 52.6114 68.9291L52.2837 67.9843L51.9561 67.0395ZM61.3728 65.5567C61.8852 65.3506 62.1335 64.7681 61.9274 64.2557C61.7213 63.7434 61.1388 63.4951 60.6264 63.7012L60.9996 64.6289L61.3728 65.5567ZM69.4671 60.4335C68.9387 60.5941 68.6405 61.1526 68.8011 61.681C68.9617 62.2095 69.5202 62.5077 70.0486 62.3471L69.7579 61.3903L69.4671 60.4335ZM78.7882 60.5307C79.3267 60.4078 79.6635 59.8717 79.5406 59.3333C79.4177 58.7948 78.8815 58.458 78.3431 58.5809L78.5657 59.5558L78.7882 60.5307ZM86.5341 56.1231C86.014 56.3088 85.743 56.8811 85.9288 57.4012C86.1146 57.9213 86.6868 58.1923 87.2069 58.0065L86.8705 57.0648L86.5341 56.1231ZM95.3414 54.9186C95.8567 54.7198 96.1133 54.141 95.9145 53.6257C95.7158 53.1104 95.1369 52.8538 94.6216 53.0526L94.9815 53.9856L95.3414 54.9186ZM102.806 50.0552C102.282 50.2322 102.002 50.7998 102.179 51.3229C102.356 51.8461 102.923 52.1267 103.446 51.9498L103.126 51.0025L102.806 50.0552ZM111.252 49.6123C111.787 49.4773 112.112 48.9338 111.977 48.3982C111.842 47.8627 111.298 47.538 110.763 47.673L111.007 48.6427L111.252 49.6123ZM118.468 46.1569C117.921 46.2322 117.538 46.7368 117.614 47.284C117.689 47.8311 118.194 48.2135 118.741 48.1382L118.604 47.1475L118.468 46.1569ZM126.328 47.6145C126.881 47.6169 127.33 47.1712 127.333 46.6189C127.335 46.0666 126.889 45.6169 126.337 45.6145L126.333 46.6145L126.328 47.6145ZM134.214 46.2923C133.669 46.1993 133.153 46.5653 133.06 47.1097C132.967 47.6541 133.333 48.1708 133.877 48.2638L134.045 47.278L134.214 46.2923ZM141.249 50.1146C141.775 50.2841 142.338 49.9954 142.508 49.4698C142.677 48.9442 142.389 48.3807 141.863 48.2111L141.556 49.1628L141.249 50.1146ZM149.188 50.7356C148.663 50.5667 148.099 50.8561 147.931 51.382C147.762 51.9078 148.051 52.471 148.577 52.6398L148.883 51.6877L149.188 50.7356ZM156.085 54.4172C156.621 54.5507 157.164 54.2245 157.297 53.6886C157.431 53.1527 157.105 52.61 156.569 52.4765L156.327 53.4469L156.085 54.4172ZM163.883 54.8492C163.37 54.6432 162.788 54.8917 162.582 55.4042C162.376 55.9166 162.624 56.499 163.137 56.7049L163.51 55.777L163.883 54.8492ZM169.853 59.8968C170.338 60.1613 170.945 59.9827 171.21 59.4978C171.474 59.013 171.295 58.4055 170.811 58.141L170.332 59.0189L169.853 59.8968ZM177.353 62.0643C176.889 61.7652 176.27 61.8991 175.971 62.3634C175.672 62.8277 175.806 63.4466 176.27 63.7456L176.812 62.9049L177.353 62.0643ZM180.888 66.8023C181.344 67.114 181.966 66.9971 182.278 66.5412C182.59 66.0852 182.473 65.463 182.017 65.1513L181.453 65.9768L180.888 66.8023ZM184.96 67.342C184.536 66.9876 183.905 67.0438 183.551 67.4675C183.197 67.8911 183.253 68.5218 183.676 68.8761L184.318 68.109L184.96 67.342ZM186.741 71.8631C187.142 72.2431 187.775 72.2264 188.155 71.8257C188.535 71.425 188.518 70.792 188.118 70.412L187.429 71.1375L186.741 71.8631ZM192.085 73.0924C191.588 72.851 190.99 73.0579 190.748 73.5546C190.507 74.0513 190.714 74.6497 191.211 74.8912L191.648 73.9918L192.085 73.0924ZM44 1L43.6121 0.0783097C42.1887 0.677385 40.7901 1.29328 39.4184 1.92562L39.8371 2.83376L40.2557 3.7419C41.6064 3.11925 42.9845 2.51237 44.3879 1.92169L44 1ZM31.7286 6.94882L31.2404 6.07612C28.4786 7.62129 25.8703 9.24404 23.4407 10.9407L24.0133 11.7605L24.5858 12.5804C26.9557 10.9255 29.5071 9.33759 32.2169 7.82152L31.7286 6.94882ZM16.9047 17.4264L16.2278 16.6903C15.0666 17.758 13.9731 18.8497 12.9524 19.9648L13.69 20.64L14.4276 21.3152C15.407 20.2452 16.4597 19.194 17.5815 18.1625L16.9047 17.4264ZM13.69 20.64L12.9524 19.9648C11.8987 21.1159 10.6753 22.4453 9.4091 24.0677L10.1974 24.6829L10.9858 25.2982C12.1967 23.7466 13.3687 22.472 14.4276 21.3152L13.69 20.64ZM4.82177 33.8889L3.90031 33.5004C3.24652 35.0512 2.62812 36.7537 2.06248 38.6316L3.01999 38.92L3.9775 39.2084C4.52323 37.3966 5.11775 35.761 5.74323 34.2774L4.82177 33.8889ZM3.01999 38.92L2.06248 38.6316C1.69023 39.8675 1.39269 41.0822 1.1626 42.2722L2.14442 42.4621L3.12624 42.6519C3.34346 41.5284 3.62477 40.3795 3.9775 39.2084L3.01999 38.92ZM1.54611 49.7209L0.546563 49.7511C0.628694 52.4666 1.0457 54.9661 1.67377 57.1906L2.63615 56.9189L3.59852 56.6472C3.01383 54.5763 2.62272 52.2389 2.54565 49.6907L1.54611 49.7209ZM5.59708 63.5574L4.7639 64.1104C5.58339 65.3451 6.46074 66.3529 7.32924 67.0777L7.96999 66.31L8.61074 65.5423C7.92353 64.9687 7.16952 64.1182 6.43026 63.0044L5.59708 63.5574ZM7.96999 66.31L7.32924 67.0777C8.42898 67.9956 9.60918 68.7291 10.8744 69.314L11.294 68.4064L11.7137 67.4987C10.5997 66.9837 9.56953 66.3424 8.61074 65.5423L7.96999 66.31ZM18.912 70.2745L18.8111 71.2694C21.2344 71.5152 23.8873 71.5806 26.7783 71.5973L26.784 70.5973L26.7898 69.5973C23.911 69.5807 21.3369 69.5153 19.0129 69.2796L18.912 70.2745ZM34.6689 70.6111L34.6617 71.611C35.9282 71.6201 37.2356 71.6375 38.5861 71.6697L38.61 70.67L38.6339 69.6703C37.2697 69.6377 35.9509 69.6203 34.6761 69.6111L34.6689 70.6111ZM38.61 70.67L38.5861 71.6697C40.1743 71.7077 41.7884 71.5829 43.4118 71.3375L43.2623 70.3487L43.1128 69.3599C41.5827 69.5913 40.0862 69.705 38.6339 69.6703L38.61 70.67ZM52.2837 67.9843L52.6114 68.9291C55.5855 67.8977 58.5435 66.6947 61.3728 65.5567L60.9996 64.6289L60.6264 63.7012C57.7822 64.8452 54.8743 66.0275 51.9561 67.0395L52.2837 67.9843ZM69.7579 61.3903L70.0486 62.3471C71.6122 61.872 73.0791 61.5182 74.4368 61.3306L74.3 60.34L74.1631 59.3494C72.668 59.556 71.0931 59.9394 69.4671 60.4335L69.7579 61.3903ZM74.3 60.34L74.4368 61.3306C75.925 61.125 77.3701 60.8545 78.7882 60.5307L78.5657 59.5558L78.3431 58.5809C76.977 58.8928 75.5892 59.1524 74.1631 59.3494L74.3 60.34ZM86.8705 57.0648L87.2069 58.0065C89.8554 57.0604 92.5388 55.9997 95.3414 54.9186L94.9815 53.9856L94.6216 53.0526C91.7971 54.1422 89.1515 55.1881 86.5341 56.1231L86.8705 57.0648ZM103.126 51.0025L103.446 51.9498C104.767 51.5029 106.132 51.0636 107.548 50.6376L107.26 49.68L106.972 48.7224C105.532 49.1556 104.145 49.6019 102.806 50.0552L103.126 51.0025ZM107.26 49.68L107.548 50.6376C108.821 50.2548 110.055 49.9141 111.252 49.6123L111.007 48.6427L110.763 47.673C109.536 47.9824 108.273 48.3312 106.972 48.7224L107.26 49.68ZM118.604 47.1475L118.741 48.1382C121.487 47.76 124.005 47.6044 126.328 47.6145L126.333 46.6145L126.337 45.6145C123.918 45.604 121.305 45.7662 118.468 46.1569L118.604 47.1475ZM134.045 47.278L133.877 48.2638C136.602 48.7289 139.026 49.3974 141.249 50.1146L141.556 49.1628L141.863 48.2111C139.58 47.4746 137.06 46.7781 134.214 46.2923L134.045 47.278ZM148.883 51.6877L148.577 52.6398C149.888 53.0607 151.174 53.4171 152.455 53.6446L152.63 52.66L152.805 51.6754C151.646 51.4696 150.454 51.1421 149.188 50.7356L148.883 51.6877ZM152.63 52.66L152.455 53.6446C153.705 53.8664 154.913 54.1252 156.085 54.4172L156.327 53.4469L156.569 52.4765C155.353 52.1735 154.099 51.9053 152.805 51.6754L152.63 52.66ZM163.51 55.777L163.137 56.7049C165.488 57.6499 167.709 58.7273 169.853 59.8968L170.332 59.0189L170.811 58.141C168.61 56.9406 166.318 55.828 163.883 54.8492L163.51 55.777ZM176.812 62.9049L176.27 63.7456C177.322 64.4232 178.368 65.1136 179.415 65.812L179.97 64.98L180.525 64.1479C179.473 63.4466 178.417 62.7497 177.353 62.0643L176.812 62.9049ZM179.97 64.98L179.415 65.812C179.914 66.1442 180.404 66.4714 180.888 66.8023L181.453 65.9768L182.017 65.1513C181.522 64.8126 181.021 64.479 180.525 64.1479L179.97 64.98ZM184.318 68.109L183.676 68.8761C184.115 69.2425 184.535 69.6216 184.935 70.0192L185.64 69.31L186.345 68.6008C185.899 68.1573 185.435 67.7397 184.96 67.342L184.318 68.109ZM185.64 69.31L184.935 70.0192C185.212 70.2947 185.477 70.5772 185.775 70.8899C186.069 71.1977 186.385 71.5255 186.741 71.8631L187.429 71.1375L188.118 70.412C187.8 70.1103 187.511 69.8122 187.223 69.51C186.94 69.2127 186.647 68.901 186.345 68.6008L185.64 69.31Z" fill="#401D26"/>
</svg>
