<svg width="56" height="57" viewBox="0 0 56 57" fill="none" xmlns="http://www.w3.org/2000/svg">
<path d="M14.8752 26.9725V23.9937C14.8752 23.707 15.0739 23.4727 15.3162 23.4727H20.5591C20.8018 23.4727 21.0002 23.7125 21.0002 23.9937V26.9725" fill="#2A8EE6"/>
<path d="M21.0001 27.8476C20.5169 27.8476 20.1251 27.4558 20.1251 26.9726V24.3476H15.7501V26.9726C15.7501 27.4558 15.3583 27.8476 14.8751 27.8476C14.3919 27.8476 14.0001 27.4558 14.0001 26.9726V23.9937C14.0001 23.2239 14.5904 22.5977 15.316 22.5977H20.5589C21.2845 22.5977 21.8749 23.2239 21.8749 23.9937V26.9726C21.8751 27.4558 21.4833 27.8476 21.0001 27.8476Z" fill="black"/>
<path d="M5.25018 26.9725V23.9937C5.25018 23.707 5.44859 23.4727 5.69135 23.4727H10.9344C11.1768 23.4727 11.3754 23.7125 11.3754 23.9937V26.9725" fill="#2A8EE6"/>
<path d="M11.3752 27.8476C10.892 27.8476 10.5002 27.4558 10.5002 26.9726V24.3476H6.12525V26.9726C6.12525 27.4558 5.73343 27.8476 5.25022 27.8476C4.76701 27.8476 4.37518 27.4558 4.37518 26.9726V23.9937C4.37518 23.2239 4.96555 22.5977 5.69139 22.5977H10.9344C11.66 22.5977 12.2504 23.2239 12.2504 23.9937V26.9726C12.2502 27.4558 11.8584 27.8476 11.3752 27.8476Z" fill="black"/>
<path d="M25.375 26.9725V23.9937C25.375 23.707 25.5737 23.4727 25.816 23.4727H31.0592C31.3016 23.4727 31.5002 23.7125 31.5002 23.9937V26.9725" fill="#2A8EE6"/>
<path d="M31.5 27.8476C31.0168 27.8476 30.6249 27.4558 30.6249 26.9726V24.3476H26.25V26.9726C26.25 27.4558 25.8582 27.8476 25.375 27.8476C24.8918 27.8476 24.4999 27.4558 24.4999 26.9726V23.9937C24.4999 23.2239 25.0903 22.5977 25.8159 22.5977H31.0591C31.7846 22.5977 32.375 23.2239 32.375 23.9937V26.9726C32.375 27.4558 31.9832 27.8476 31.5 27.8476Z" fill="black"/>
<path d="M45.4999 42.7223V39.7434C45.4999 39.4565 45.6985 39.2224 45.941 39.2224H51.1838C51.4265 39.2224 51.625 39.462 51.625 39.7434V42.7223" fill="#FBAD4A"/>
<path d="M51.6248 43.5974C51.1416 43.5974 50.7497 43.2055 50.7497 42.7223V40.0974H46.3748V42.7223C46.3748 43.2055 45.983 43.5974 45.4998 43.5974C45.0166 43.5974 44.6248 43.2055 44.6248 42.7223V39.7435C44.6248 38.9737 45.2151 38.3474 45.941 38.3474H51.1837C51.9093 38.3474 52.4999 38.9737 52.4999 39.7435V42.7223C52.4998 43.2055 52.1081 43.5974 51.6248 43.5974Z" fill="black"/>
<path d="M21.7955 42.7224H54.3294C54.7674 42.7224 55.1248 43.0812 55.1248 43.523V55.0466C55.1248 55.4871 54.7673 55.8472 54.3294 55.8472H21.7955C21.3575 55.8472 21.0002 55.4871 21.0002 55.0466V43.523C21.0001 43.0814 21.3575 42.7224 21.7955 42.7224Z" fill="#FEDA4F"/>
<path d="M54.3294 56.7222H21.7952C20.8743 56.7222 20.1249 55.9704 20.1249 55.0466V43.523C20.1249 42.599 20.874 41.8474 21.7952 41.8474H54.3294C55.2504 41.8474 55.9998 42.5993 55.9998 43.523V55.0466C55.9998 55.9706 55.2504 56.7222 54.3294 56.7222ZM21.8751 54.9722H54.2498V43.5972H21.8751V54.9722Z" fill="black"/>
<path d="M1.67062 26.9724H34.2048C34.6425 26.9724 35 27.3314 35 27.7732V39.2966C35 39.7371 34.6425 40.0972 34.2048 40.0972H1.67062C1.23265 40.0972 0.875305 39.7371 0.875305 39.2966V27.7732C0.875305 27.3314 1.23278 26.9724 1.67062 26.9724Z" fill="#2BBBE9"/>
<path d="M34.2046 40.9725H1.67047C0.749426 40.9725 0 40.2206 0 39.2969V27.7735C0 26.8495 0.749169 26.0977 1.67035 26.0977H34.2046C35.1255 26.0977 35.8746 26.8495 35.8746 27.7735V39.2969C35.8749 40.2209 35.1255 40.9725 34.2046 40.9725ZM1.7502 39.2224H34.125V27.8475H1.7502V39.2224Z" fill="black"/>
<path d="M1.64955 42.7224H16.7252C17.1518 42.7224 17.4998 43.0833 17.4998 43.523V55.0466C17.4998 55.4852 17.1496 55.8472 16.7252 55.8472H1.64955C1.22542 55.8472 0.875 55.4871 0.875 55.0466V43.523C0.875256 43.0814 1.22325 42.7224 1.64955 42.7224Z" fill="#FBAD4A"/>
<path d="M16.7255 56.7222H1.64983C0.740313 56.7222 0.000244141 55.9704 0.000244141 55.0466V43.523C0.000244141 42.599 0.740313 41.8474 1.64983 41.8474H16.7255C17.635 41.8474 18.3751 42.5993 18.3751 43.523V55.0466C18.3751 55.9706 17.6351 56.7222 16.7255 56.7222ZM1.75019 54.9722H16.625V43.5972H1.75019V54.9722Z" fill="black"/>
<path d="M38.3889 9.69925L39.8289 7.12067C39.9673 6.87214 40.2588 6.77588 40.4758 6.90495L45.1744 9.70796C45.3914 9.83831 45.4527 10.1512 45.3172 10.3948L43.8763 12.9725" fill="#ED5481"/>
<path d="M43.8752 13.8479C43.7306 13.8479 43.5842 13.812 43.449 13.7365C43.0273 13.5007 42.8763 12.9676 43.1121 12.5459L44.3903 10.2593L40.4055 7.88222L39.1525 10.1259C38.9169 10.5478 38.3836 10.6988 37.962 10.4632C37.5401 10.2277 37.3891 9.69458 37.6247 9.27277L39.0647 6.69393C39.2498 6.36145 39.5621 6.1151 39.9213 6.01846C40.2652 5.92567 40.6208 5.97335 40.9224 6.15279L45.6223 8.95644C46.2413 9.32827 46.4463 10.1634 46.0816 10.8197L44.6397 13.3994C44.4796 13.6863 44.1821 13.8479 43.8752 13.8479Z" fill="black"/>
<path d="M29.6387 4.44848L31.0796 1.87093C31.2185 1.62266 31.5083 1.52525 31.7266 1.65547L36.4243 4.45848C36.6413 4.58755 36.7025 4.90119 36.567 5.1442L35.1263 7.72291" fill="#ED5481"/>
<path d="M35.1251 8.59794C34.9807 8.59794 34.8341 8.56205 34.6991 8.48655C34.2772 8.25072 34.1265 7.71765 34.3621 7.29596L35.6398 5.00961L31.6562 2.63252L30.4025 4.87529C30.1667 5.29723 29.6334 5.44796 29.2119 5.21213C28.7903 4.97629 28.6393 4.44322 28.8751 4.02153L30.3158 1.44398C30.5024 1.11034 30.8154 0.864123 31.1744 0.767865C31.5178 0.675581 31.8728 0.724159 32.1745 0.903728L36.8726 3.70699C37.4923 4.07562 37.6985 4.91169 37.3313 5.57024L35.89 8.14946C35.7297 8.43631 35.432 8.59794 35.1251 8.59794ZM35.9757 5.20995C35.9761 5.2102 35.9764 5.21033 35.9769 5.21059L35.9757 5.20995Z" fill="black"/>
<path d="M47.1387 14.9491L48.5784 12.3705C48.7171 12.1223 49.0085 12.0257 49.2255 12.1551L53.9231 14.9581C54.1413 15.0882 54.2027 15.401 54.0662 15.6452L52.6261 18.2229" fill="#ED5481"/>
<path d="M52.6254 19.0978C52.4811 19.0978 52.3345 19.0619 52.1995 18.9867C51.7775 18.7508 51.6266 18.218 51.8621 17.7961L53.1394 15.5095L49.1555 13.1321L47.9025 15.3758C47.6669 15.798 47.1336 15.9485 46.712 15.7131C46.2901 15.4775 46.1391 14.9445 46.3747 14.5227L47.8147 11.9441C48.0004 11.6113 48.313 11.365 48.6719 11.2684C49.0161 11.1761 49.3712 11.2238 49.6724 11.4029L54.3714 14.2066C54.9924 14.5769 55.198 15.4141 54.8295 16.0723L53.3898 18.6493C53.23 18.9362 52.9323 19.0978 52.6254 19.0978Z" fill="black"/>
<path d="M26.9448 3.45172L54.7333 19.3414C55.1073 19.5553 55.236 20.0327 55.0199 20.4032L49.3766 30.0846C49.1605 30.4551 48.6785 30.5824 48.3053 30.3697L20.5171 14.4788C20.1431 14.2651 20.0134 13.7873 20.2304 13.418L25.8738 3.73588C26.0896 3.36508 26.5716 3.2378 26.9448 3.45172Z" fill="#F87EA1"/>
<path d="M48.693 31.3472C48.4137 31.3472 48.1308 31.2773 47.8723 31.1296L20.0826 15.2381C19.6963 15.0174 19.4202 14.6589 19.3056 14.2288C19.1917 13.8009 19.2521 13.3555 19.4756 12.9747L25.1175 3.29511C25.575 2.51018 26.5894 2.23948 27.3798 2.69244L55.1673 18.5819C55.5528 18.8022 55.8282 19.1596 55.943 19.5883C56.0576 20.0161 55.9982 20.4622 55.7755 20.8441L50.1322 30.5253C49.8256 31.0519 49.2663 31.347 48.693 31.3472ZM21.0384 13.7689L48.6651 29.5673L54.2119 20.0514L26.5846 4.25346L21.0384 13.7689Z" fill="black"/>
</svg>
