<svg width="56" height="57" viewBox="0 0 56 57" fill="none" xmlns="http://www.w3.org/2000/svg">
<path d="M44.4223 34.8345C44.0004 35.0646 43.8432 35.5705 43.8686 36.008C43.8939 36.4609 44.0778 36.8877 44.3496 37.2461C44.8993 37.971 45.692 38.4637 46.4612 38.9915C47.2293 39.5291 47.9891 40.0474 48.7583 40.609C49.4988 41.1782 50.3049 41.8762 50.5675 42.9445C50.6995 43.468 50.6295 44.0312 50.4593 44.5145C50.2872 45.0033 50.0205 45.4331 49.7299 45.8275C49.1449 46.6225 48.3894 47.2871 47.5332 47.7798C46.6753 48.2755 45.7074 48.5689 44.7434 48.6972C44.2602 48.7639 43.7752 48.793 43.2928 48.7955C42.8044 48.7985 42.3538 48.7647 41.9779 48.8404C41.5964 48.9136 41.3691 49.0654 41.2237 49.3913C41.0706 49.7236 41.0272 50.1953 40.8484 50.7051C40.6733 51.238 40.2338 51.7118 39.7589 51.9552C39.2827 52.2127 38.7872 52.3337 38.3086 52.4226C36.4431 52.6848 34.5367 53.0004 32.6032 52.5762C31.6521 52.3615 30.7255 51.9415 29.9775 51.3137C29.2182 50.6991 28.6241 49.9284 28.1218 49.1265C27.6334 48.3127 27.2308 47.4625 26.8486 46.6097C26.474 45.7731 26.0303 44.8626 26.1558 43.9127C26.1297 44.8648 26.6301 45.6893 27.0569 46.507C27.4966 47.3286 27.9537 48.139 28.4813 48.8917C29.0054 49.6427 29.5979 50.3476 30.3182 50.8779C31.0281 51.4219 31.864 51.7559 32.7379 51.9163C34.4948 52.2067 36.3586 51.9359 38.1615 51.6391C39.0323 51.477 39.8517 51.1422 40.0598 50.4245C40.194 50.0542 40.2214 49.5756 40.4393 49.0466C40.5524 48.7853 40.738 48.5077 40.9979 48.3234C41.2528 48.1318 41.5455 48.0317 41.816 47.9808C42.3619 47.8854 42.8518 47.9415 43.2941 47.9406C43.7446 47.9444 44.1935 47.9235 44.6355 47.8692C45.5207 47.7627 46.3755 47.5151 47.1425 47.0865C47.9091 46.6597 48.5938 46.0759 49.125 45.3741C49.6515 44.6774 50.0693 43.8678 49.9115 43.0835C49.7654 42.2897 49.1119 41.6127 48.4172 41.0418C47.7038 40.47 46.9415 39.9076 46.2091 39.3358C45.4867 38.7601 44.6923 38.1917 44.1595 37.377C43.896 36.9737 43.7264 36.4947 43.7371 36.0093C43.7525 35.535 43.9777 35.0235 44.4223 34.8345Z" fill="#B53016"/>
<path d="M13.1057 46.0996H19.7431V55.5153H13.1057V46.0996Z" fill="#255299"/>
<path d="M36.7119 29.6505C36.5102 34.8095 35.3367 39.9772 33.2084 45.1362C32.9719 45.7144 32.4287 46.1173 31.8069 46.1874C22.2511 47.2733 12.1609 47.1861 1.70298 46.24C0.721892 46.1524 0.021145 45.2504 0.161209 44.2693C0.91456 38.6813 2.52626 33.5398 4.99608 28.8276C5.25012 28.3367 5.74943 27.9954 6.30135 27.9253C16.1986 26.6379 25.8158 26.7077 35.2054 27.8466C36.0988 27.9518 36.7467 28.7485 36.7119 29.6505Z" fill="#4269C4"/>
<path d="M17.2217 45.2239C12.6934 45.2239 7.88615 45.0099 2.91652 44.5877C2.34883 44.5395 1.92845 44.0119 2.02008 43.4495C2.79678 38.6832 4.22683 34.2014 6.30462 30.1117C6.45456 29.8166 6.74479 29.6155 7.0734 29.5756C11.6533 29.0193 16.3322 28.7275 20.9707 28.7275C25.2788 28.7275 29.6791 28.9793 34.0641 29.4761C34.5846 29.5351 34.977 29.9963 34.9409 30.5189C34.6348 34.9498 33.5933 39.4481 31.8151 43.9105C31.6789 44.2521 31.3636 44.493 30.9979 44.5311C26.6502 44.9846 22.0128 45.2239 17.2217 45.2239Z" fill="#D1DAFE"/>
<path d="M17.6682 27.7793C17.5627 29.3698 17.3316 30.93 17.0559 32.4795C16.7882 34.0306 16.4459 35.5639 16.0892 37.0936C15.7085 38.6179 15.3119 40.1378 14.8408 41.6403C14.3778 43.144 13.8693 44.6374 13.234 46.0996C13.3377 44.5087 13.5685 42.9481 13.8443 41.3991C14.1122 39.8475 14.4546 38.3142 14.813 36.7849C15.1951 35.2615 15.5918 33.7411 16.0633 32.2391C16.5267 30.735 17.0343 29.2419 17.6682 27.7793Z" fill="#4269C4"/>
<path d="M24.0484 27.7793C23.9432 29.3698 23.7119 30.93 23.4362 32.4795C23.1687 34.0306 22.8263 35.5639 22.4695 37.0936C22.0888 38.6179 21.6922 40.1378 21.2213 41.6403C20.7581 43.144 20.2498 44.6374 19.6145 46.0996C19.7182 44.5087 19.9487 42.9481 20.2248 41.3991C20.4927 39.8475 20.8351 38.3142 21.1933 36.7849C21.5756 35.2615 21.9723 33.7411 22.4436 32.2391C22.907 30.735 23.4148 29.2419 24.0484 27.7793Z" fill="#4269C4"/>
<path d="M30.4289 27.7793C30.3235 29.3698 30.0923 30.93 29.8167 32.4795C29.549 34.0306 29.2066 35.5639 28.8499 37.0936C28.4693 38.6179 28.0726 40.1378 27.6015 41.6403C27.1386 43.144 26.6301 44.6374 25.9948 46.0996C26.0985 44.5087 26.3292 42.9481 26.605 41.3991C26.873 39.8475 27.2153 38.3142 27.5737 36.7849C27.9559 35.2615 28.3525 33.7411 28.824 32.2391C29.2874 30.735 29.7951 29.2419 30.4289 27.7793Z" fill="#4269C4"/>
<path d="M10.956 27.7793C10.8506 29.3698 10.6194 30.93 10.3438 32.4795C10.0761 34.0306 9.7337 35.5639 9.37701 37.0936C8.99638 38.6179 8.59971 40.1378 8.12863 41.6403C7.66567 43.144 7.15716 44.6374 6.52185 46.0996C6.62556 44.5087 6.85608 42.9481 7.13214 41.3991C7.40008 39.8475 7.74244 38.3142 8.10083 36.7849C8.48296 35.2615 8.87963 33.7411 9.35114 32.2391C9.81453 30.735 10.3222 29.2419 10.956 27.7793Z" fill="#4269C4"/>
<path d="M2.75763 33.821C8.32469 33.3044 13.8917 33.1859 19.4588 33.1646C25.0259 33.1829 30.5927 33.3014 36.1598 33.821C30.5927 34.3407 25.0259 34.4591 19.4588 34.4775C13.8917 34.4566 8.32469 34.3377 2.75763 33.821Z" fill="#4269C4"/>
<path d="M0.791016 40.1306C6.35786 39.614 11.9249 39.4951 17.492 39.4741C23.059 39.4925 28.6261 39.611 34.1929 40.1306C28.6261 40.6502 23.059 40.7687 17.492 40.7871C11.9249 40.7657 6.35786 40.6472 0.791016 40.1306Z" fill="#4269C4"/>
<path d="M21.7693 55.559C21.6816 56.041 21.2875 56.4088 20.8057 56.4614C17.7664 56.7415 14.8411 56.7591 12.0469 56.4614C11.5827 56.4178 11.2061 56.0671 11.1011 55.6206C10.9433 54.9196 10.9521 54.2191 11.1011 53.5181C11.2061 53.0541 11.6002 52.7124 12.0732 52.6688C14.9724 52.4233 17.8804 52.4147 20.7884 52.6688C21.2787 52.7039 21.6816 53.0802 21.7693 53.5622C21.8918 54.2366 21.8918 54.9021 21.7693 55.559Z" fill="#4269C4"/>
<path d="M55.9737 11.9002C56.1659 14.7982 55.293 17.4688 53.7221 19.5988C53.7046 19.6508 53.6522 19.7037 53.6347 19.7386C52.9537 20.6814 52.343 21.6761 51.8541 22.7058C51.2954 23.8582 50.859 25.0626 50.5623 26.3198C50.4924 26.5466 50.44 26.8083 50.388 27.0529C50.3002 27.5592 49.8293 27.9078 49.323 27.9078H39.3553C38.8315 27.9078 38.3776 27.5413 38.2727 27.035C37.7839 24.4165 36.7018 21.9207 35.0606 19.7906C33.5595 17.8182 32.6517 15.3566 32.6517 12.6861C32.6517 10.556 33.2279 8.54861 34.2227 6.83789C35.8814 3.9577 38.7441 1.86256 42.1131 1.21645C42.899 1.05962 43.7194 0.989721 44.5573 1.00762C44.7146 1.00762 44.8714 1.02467 45.0462 1.02467C45.8841 1.07752 46.687 1.21645 47.4725 1.44404C52.1337 2.75329 55.6596 6.92568 55.9737 11.9002Z" fill="#FBAD3E"/>
<path d="M55.2605 16.7812C54.8773 17.7999 54.3632 18.7441 53.7278 19.6039C53.6995 19.6504 53.6623 19.6974 53.6248 19.744C52.9519 20.6882 52.3536 21.6694 51.8585 22.7067C51.2976 23.8563 50.8583 25.0716 50.5592 26.3148C50.4937 26.5576 50.4469 26.8004 50.391 27.0436C50.2975 27.5579 49.8395 27.913 49.316 27.913H39.3528C38.8294 27.913 38.3714 27.5483 38.2779 27.034C38.0442 25.7817 37.6704 24.5669 37.175 23.3986C38.5115 23.7071 39.9418 23.8659 41.409 23.8659C47.6152 23.8659 52.9426 20.9497 55.2605 16.7812Z" fill="#FA990E"/>
<path d="M40.9356 33.9438C41.1277 35.6562 42.5636 36.9928 44.3276 36.9928C46.0916 36.9928 47.5276 35.6562 47.7194 33.9438H40.9356Z" fill="#2D2D2D"/>
<path d="M49.4645 27.9165V32.6898C49.4645 33.7761 48.5887 34.652 47.5028 34.652H41.1527C40.0664 34.652 39.1905 33.7761 39.1905 32.6898V27.9165H49.4645Z" fill="#3A3A3A"/>
<path d="M37.6305 32.3582C38.7465 32.0684 39.8628 31.9165 40.9789 31.8133C42.0949 31.702 43.211 31.6605 44.3272 31.6577C45.4433 31.6582 46.5593 31.7002 47.6754 31.8115C48.7917 31.9142 49.9077 32.0666 51.0238 32.3582C49.9077 32.6503 48.7917 32.8027 47.6754 32.9054C46.5593 33.0163 45.4433 33.0583 44.3272 33.0592C43.211 33.0565 42.0949 33.015 40.9789 32.9031C39.8628 32.8 38.7465 32.6485 37.6305 32.3582Z" fill="#2D2D2D"/>
<path d="M37.6306 29.7493C38.7466 29.4591 39.8629 29.3076 40.9789 29.2044C42.095 29.0931 43.211 29.0511 44.3273 29.0483C45.4434 29.0493 46.5594 29.0912 47.6754 29.2021C48.7917 29.3048 49.9078 29.4577 51.0238 29.7493C49.9078 30.0409 48.7917 30.1938 47.6754 30.2965C46.5594 30.4074 45.4434 30.4494 44.3273 30.4503C43.211 30.4476 42.095 30.4056 40.9789 30.2942C39.8629 30.1911 38.7466 30.0396 37.6306 29.7493Z" fill="#2D2D2D"/>
<path d="M51.6794 15.7233C51.5575 16.1077 51.3653 16.4913 51.0512 16.7888C50.7366 17.1203 50.4051 17.33 50.0735 17.4869C49.3929 17.7835 48.6943 17.9403 47.9438 17.9753C47.6123 17.9753 47.2453 17.9233 46.8967 17.8363C46.8788 20.3671 46.8438 22.8807 46.7219 25.4472C46.7045 26.2672 46.6695 27.0702 46.6171 27.908H45.8666C45.8491 27.0702 45.8142 26.2672 45.7792 25.4472C45.6744 22.8637 45.6219 20.2801 45.6219 17.6965C44.7666 17.7306 43.8938 17.7306 43.0384 17.6965C43.0209 20.2801 42.986 22.8637 42.8641 25.4472C42.8291 26.2672 42.7942 27.0702 42.7592 27.908H42.0083C41.9912 27.0702 41.9563 26.2672 41.9214 25.4472C41.8165 22.8807 41.7816 20.3671 41.7641 17.8363C41.415 17.9233 41.0485 17.9753 40.7169 17.9753C39.966 17.9403 39.2679 17.7835 38.5868 17.4869C38.2553 17.33 37.9237 17.1203 37.6096 16.7888C37.2776 16.4913 37.1033 16.1077 36.981 15.7233C36.7542 14.9033 36.981 14.0305 37.4873 13.4543C38.3951 12.3717 39.9485 12.3547 40.8738 13.0877C40.4548 12.7911 39.914 12.6513 39.4077 12.7562C38.7791 12.8431 38.2553 13.2795 38.0285 13.8029C37.8014 14.3092 37.8363 14.9033 38.046 15.3397C38.2902 15.8111 38.6047 16.0378 39.1456 16.2825C39.6519 16.5441 40.2456 16.7189 40.8214 16.8408C41.1534 16.8936 41.4849 16.9277 41.7816 16.8936C41.8515 16.6311 42.0961 16.4393 42.3927 16.4214C42.4277 16.3174 42.4277 16.1947 42.4277 16.0728C42.4277 15.7412 42.3403 15.3568 42.218 15.0081C42.0262 14.5717 41.7816 14.1353 41.4849 13.7509C41.8165 14.1004 42.1131 14.5189 42.3752 14.9553C42.5496 15.2349 42.7068 15.5315 42.8291 15.8631C42.8811 16.0378 42.934 16.2126 42.951 16.4214H45.7093C45.7268 16.2126 45.7617 16.0378 45.8142 15.8631C45.936 15.5315 46.1108 15.2349 46.2681 14.9553C46.6346 14.3791 47.0186 13.8387 47.4725 13.3665C47.0535 13.8557 46.687 14.414 46.4424 15.0081C46.2506 15.4795 46.1457 16.0378 46.2506 16.4214H46.2681C46.5647 16.4214 46.7918 16.6311 46.8617 16.8936C47.1584 16.9277 47.5074 16.8936 47.839 16.8408C48.4152 16.7189 48.991 16.5441 49.4973 16.2825C50.056 16.0378 50.3701 15.8111 50.5973 15.3397C50.8065 14.9033 50.8415 14.3092 50.6148 13.8029C50.4051 13.2795 49.8638 12.8431 49.2356 12.7562C48.7468 12.6513 48.2059 12.7911 47.7695 13.0877C48.6943 12.3547 50.2482 12.3717 51.1731 13.4543C51.6794 14.0305 51.8891 14.9033 51.6794 15.7233Z" fill="white"/>
<path d="M8.44421 19.6919C11.7157 19.6919 14.3678 17.0398 14.3678 13.7683C14.3678 10.4968 11.7157 7.84473 8.44421 7.84473C5.17271 7.84473 2.52063 10.4968 2.52063 13.7683C2.52063 17.0398 5.17271 19.6919 8.44421 19.6919Z" fill="#FBAD3E"/>
<path d="M8.44405 9.60325C7.36768 10.157 6.63456 10.6498 5.98458 11.3081C5.32857 11.9605 4.83614 12.6912 4.27969 13.7679C3.99341 13.2209 3.95788 12.5739 4.10202 11.9692C4.23711 11.3558 4.57434 10.7939 5.01414 10.338C5.90313 9.44637 7.3365 9.04277 8.44405 9.60325Z" fill="#FA990E"/>
<path d="M8.44397 5.29834C8.98567 5.53366 9.10702 5.76965 9.13015 6.00564C9.11004 6.24096 8.98835 6.47695 8.44397 6.71227C7.89958 6.47695 7.7779 6.24096 7.75812 6.00564C7.78125 5.76965 7.9026 5.53366 8.44397 5.29834Z" fill="#FA990E"/>
<path d="M8.4439 20.7725C8.98561 21.0085 9.10696 21.2438 9.13009 21.4798C9.10997 21.7151 8.98829 21.9511 8.4439 22.1864C7.89952 21.9511 7.77783 21.7151 7.75806 21.4798C7.78119 21.2438 7.90253 21.0085 8.4439 20.7725Z" fill="#FA990E"/>
<path d="M2.47318 7.7716C3.02259 7.55505 3.27535 7.63617 3.45837 7.78635C3.61089 7.96736 3.69135 8.22011 3.47312 8.7712C2.92169 8.98976 2.66894 8.90931 2.48793 8.75645C2.33775 8.57343 2.25697 8.32068 2.47318 7.7716Z" fill="#FA990E"/>
<path d="M13.4145 18.7122C13.9639 18.4964 14.2166 18.5768 14.3997 18.727C14.5522 18.908 14.6326 19.1608 14.4144 19.7125C13.863 19.9304 13.6102 19.85 13.4292 19.6971C13.279 19.5147 13.1982 19.262 13.4145 18.7122Z" fill="#FA990E"/>
<path d="M0 13.742C0.235655 13.2003 0.471311 13.0789 0.706966 13.0562C0.942622 13.0756 1.17828 13.1976 1.41393 13.742C1.17861 14.2864 0.942622 14.4077 0.706966 14.4278C0.471311 14.4051 0.235655 14.2837 0 13.742Z" fill="#FA990E"/>
<path d="M15.4725 13.7407C15.7078 13.199 15.9438 13.0777 16.1794 13.0542C16.4151 13.0743 16.6508 13.1957 16.8864 13.74C16.6508 14.2844 16.4151 14.4065 16.1794 14.4266C15.9438 14.4031 15.7081 14.2818 15.4725 13.7407Z" fill="#FA990E"/>
<path d="M2.4731 19.7135C2.25689 19.1637 2.33734 18.9116 2.48785 18.7286C2.66853 18.5757 2.92128 18.4953 3.47271 18.7132C3.69127 19.2649 3.61082 19.5177 3.4583 19.6987C3.27527 19.8489 3.02252 19.9293 2.4731 19.7135Z" fill="#FA990E"/>
<path d="M13.4118 8.77058C13.1956 8.22083 13.2764 7.96875 13.4265 7.78573C13.6072 7.63287 13.86 7.55242 14.4117 7.7703C14.6299 8.32207 14.5495 8.57482 14.397 8.75583C14.2139 8.90601 13.9615 8.98646 13.4118 8.77058Z" fill="#FA990E"/>
<path d="M36.3602 9.59577C36.3065 10.1796 35.8663 10.6468 35.2912 10.7634C35.0399 10.8174 34.7973 10.8626 34.5458 10.8985V11.9855C34.5458 12.4614 33.9707 12.7132 33.6294 12.3715L32.5422 11.3118C32.4346 11.2126 32.2909 11.1591 32.1383 11.1679C30.1797 11.2846 28.2034 11.1231 26.2271 10.7275C25.7059 10.6288 25.3017 10.2068 25.2208 9.68569C24.8076 7.18847 24.8256 4.75355 25.2118 2.36424C25.3017 1.82514 25.7329 1.39395 26.263 1.30403C29.2094 0.810114 32.219 0.800903 35.2825 1.29482C35.8663 1.38474 36.3155 1.86988 36.3694 2.45372C36.567 4.78952 36.567 7.17005 36.3602 9.59577Z" fill="#3D5E2A"/>
<path d="M37.4742 9.70172C37.4205 10.2856 36.9803 10.7527 36.4053 10.8694C36.1539 10.9234 35.9113 10.9685 35.6598 11.0045V12.0915C35.6598 12.5674 35.0847 12.8192 34.7434 12.4775L33.6563 11.4177C33.5486 11.3186 33.4049 11.2651 33.2523 11.2738C31.2937 11.3905 29.3174 11.2291 27.3411 10.8334C26.82 10.7347 26.4157 10.3128 26.3348 9.79164C25.9216 7.29443 25.9396 4.8595 26.3258 2.4702C26.4157 1.9311 26.8469 1.49991 27.377 1.40999C30.3234 0.916071 33.333 0.90686 36.3965 1.40078C36.9803 1.4907 37.4295 1.97584 37.4835 2.55968C37.6811 4.89547 37.6811 7.27601 37.4742 9.70172Z" fill="#AEC46E"/>
<path d="M37.627 6.17139C37.627 7.33906 37.5821 8.50674 37.4742 9.70161C37.4204 10.2855 36.9802 10.7526 36.4052 10.8693C36.1538 10.9232 35.9113 10.9684 35.6597 11.0044V12.0914C35.6597 12.5673 35.0846 12.8191 34.7434 12.4774L33.6562 11.4176C33.5485 11.3185 33.4048 11.2649 33.2522 11.2737C31.2936 11.3904 29.3173 11.229 27.341 10.8333C26.8199 10.7346 26.4157 10.3126 26.3347 9.79154C26.272 9.3871 26.2091 8.98311 26.1731 8.58745C27.3949 9.13576 28.8232 9.44106 30.3593 9.44106C33.5485 9.44106 36.3155 8.11152 37.627 6.17139Z" fill="#617F4D"/>
<path d="M34.0594 5.71498C34.0895 5.88919 34.0442 6.0634 33.9532 6.19951C33.5214 6.85121 33.0746 7.47998 32.5897 8.09322C32.0823 8.69943 31.5748 9.29788 30.9536 9.8279C31.1278 9.03268 31.4006 8.29776 31.6883 7.5632C31.7945 7.31317 31.9005 7.06314 32.0216 6.82088C31.4535 6.91927 30.8854 6.98732 30.3099 7.04058L30.2037 7.04798C29.8477 7.07831 29.5372 6.81312 29.5069 6.44954C29.4917 6.29826 29.5372 6.15438 29.6128 6.03307C29.9688 5.51784 30.3552 5.01815 30.7642 4.52549C31.1657 4.04097 31.6051 3.57124 32.0974 3.13184C31.9611 3.77577 31.7566 4.38938 31.5293 4.98006C31.4686 5.12394 31.4158 5.27558 31.3551 5.41946C31.9611 5.29075 32.5745 5.19199 33.1957 5.10877L33.2564 5.10137C33.6503 5.04848 34.0063 5.32107 34.0594 5.71498Z" fill="white"/>
</svg>
