<svg width="56" height="51" viewBox="0 0 56 51" fill="none" xmlns="http://www.w3.org/2000/svg">
<path d="M3.86212 39.3429V2.6532C3.86365 2.14153 4.06759 1.65125 4.4294 1.28944C4.79121 0.927635 5.28148 0.723696 5.79316 0.722168H50.207C50.7186 0.723696 51.2089 0.927635 51.5707 1.28944C51.9325 1.65125 52.1365 2.14153 52.138 2.6532V39.3429H3.86212Z" fill="#205B75"/>
<path d="M56 47.067V49.9636C56 50.2197 55.8983 50.4652 55.7172 50.6463C55.5361 50.8274 55.2906 50.9291 55.0345 50.9291H0.965517C0.709446 50.9291 0.463863 50.8274 0.282793 50.6463C0.101724 50.4652 0 50.2197 0 49.9636V47.067L3.86207 37.4119H52.1379L56 47.067Z" fill="#CADBEA"/>
<path d="M56 47.0669V49.9634C56 50.2195 55.8983 50.4651 55.7172 50.6462C55.5361 50.8272 55.2906 50.929 55.0345 50.929H0.965517C0.709446 50.929 0.463863 50.8272 0.282793 50.6462C0.101724 50.4651 0 50.2195 0 49.9634V47.0669H56Z" fill="#ABBBCC"/>
<path d="M42.7435 4.58423H47.3104C47.5665 4.58423 47.812 4.68595 47.9931 4.86702C48.1742 5.04809 48.2759 5.29367 48.2759 5.54975V32.5842C48.2759 32.8403 48.1742 33.0859 47.9931 33.267C47.812 33.448 47.5665 33.5497 47.3104 33.5497H8.6897C8.43363 33.5497 8.18805 33.448 8.00698 33.267C7.82591 33.0859 7.72418 32.8403 7.72418 32.5842V5.54975C7.72418 5.29367 7.82591 5.04809 8.00698 4.86702C8.18805 4.68595 8.43363 4.58423 8.6897 4.58423H42.7435Z" fill="#114559"/>
<path d="M17.3793 47.0671L19.068 42.8468C19.1396 42.6677 19.2632 42.514 19.4229 42.4058C19.5826 42.2975 19.7711 42.2396 19.964 42.2395H36.036C36.229 42.2396 36.4174 42.2975 36.5771 42.4058C36.7368 42.514 36.8604 42.6677 36.932 42.8468L38.6207 47.0671H17.3793Z" fill="#E1EAF4"/>
<path d="M13.5172 14.2395C13.7081 14.2394 13.8948 14.1828 14.0535 14.0767C14.2122 13.9706 14.336 13.8198 14.409 13.6434C14.4821 13.467 14.5012 13.2729 14.464 13.0857C14.4267 12.8984 14.3348 12.7264 14.1998 12.5914L12.9514 11.3429L14.1998 10.0945C14.3757 9.91243 14.473 9.66853 14.4708 9.41538C14.4686 9.16222 14.3671 8.92006 14.1881 8.74105C14.009 8.56203 13.7669 8.46049 13.5137 8.45829C13.2606 8.45609 13.0167 8.55341 12.8346 8.72928L10.9035 10.6603C10.7225 10.8414 10.6208 11.0869 10.6208 11.3429C10.6208 11.599 10.7225 11.8445 10.9035 12.0256L12.8346 13.9566C13.0156 14.1377 13.2611 14.2394 13.5172 14.2395Z" fill="white"/>
<path d="M22.4897 13.9566C22.6708 14.1376 22.9163 14.2393 23.1723 14.2393C23.4284 14.2393 23.6739 14.1376 23.855 13.9566L25.786 12.0256C25.967 11.8445 26.0687 11.599 26.0687 11.3429C26.0687 11.0869 25.967 10.8414 25.786 10.6603L23.855 8.72928C23.6729 8.55341 23.429 8.45609 23.1758 8.45829C22.9227 8.46049 22.6805 8.56203 22.5015 8.74105C22.3225 8.92006 22.2209 9.16222 22.2187 9.41538C22.2165 9.66854 22.3138 9.91243 22.4897 10.0945L23.7381 11.3429L22.4897 12.5914C22.3087 12.7724 22.207 13.018 22.207 13.274C22.207 13.53 22.3087 13.7755 22.4897 13.9566Z" fill="white"/>
<path d="M16.9477 14.1428C17.0611 14.1995 17.1847 14.2334 17.3112 14.2423C17.4378 14.2513 17.5648 14.2352 17.6852 14.195C17.8055 14.1549 17.9167 14.0914 18.0125 14.0082C18.1083 13.925 18.1868 13.8238 18.2434 13.7103L20.1744 9.84819C20.2311 9.73471 20.2649 9.61118 20.2738 9.48465C20.2828 9.35811 20.2667 9.23106 20.2265 9.11074C20.1863 8.99042 20.1229 8.87919 20.0397 8.7834C19.9566 8.68761 19.8554 8.60914 19.7419 8.55246C19.6284 8.49579 19.5049 8.46202 19.3783 8.45308C19.2518 8.44415 19.1248 8.46022 19.0044 8.50039C18.8841 8.54055 18.7729 8.60403 18.6771 8.68718C18.5813 8.77033 18.5028 8.87154 18.4462 8.98502L16.5151 12.8471C16.4584 12.9606 16.4246 13.0841 16.4156 13.2106C16.4067 13.3372 16.4227 13.4643 16.4629 13.5846C16.5031 13.7049 16.5666 13.8162 16.6497 13.9119C16.7329 14.0077 16.8342 14.0862 16.9477 14.1428Z" fill="white"/>
<path d="M16.4138 17.1359C16.4138 16.8799 16.3121 16.6343 16.131 16.4532C15.95 16.2721 15.7044 16.1704 15.4483 16.1704H12.5518C12.2957 16.1704 12.0501 16.2721 11.869 16.4532C11.688 16.6343 11.5862 16.8799 11.5862 17.1359C11.5862 17.392 11.688 17.6376 11.869 17.8187C12.0501 17.9997 12.2957 18.1014 12.5518 18.1014H15.4483C15.7044 18.1014 15.95 17.9997 16.131 17.8187C16.3121 17.6376 16.4138 17.392 16.4138 17.1359Z" fill="#E5BB33"/>
<path d="M18.3448 17.1359C18.3448 17.392 18.4466 17.6376 18.6276 17.8187C18.8087 17.9997 19.0543 18.1014 19.3104 18.1014H27.0345C27.2906 18.1014 27.5362 17.9997 27.7172 17.8187C27.8983 17.6376 28 17.392 28 17.1359C28 16.8799 27.8983 16.6343 27.7172 16.4532C27.5362 16.2721 27.2906 16.1704 27.0345 16.1704H19.3104C19.0543 16.1704 18.8087 16.2721 18.6276 16.4532C18.4466 16.6343 18.3448 16.8799 18.3448 17.1359Z" fill="#EB6374"/>
<path d="M23.1724 20.998C23.1724 20.7419 23.0707 20.4963 22.8897 20.3153C22.7086 20.1342 22.463 20.0325 22.2069 20.0325H14.4828C14.2267 20.0325 13.9811 20.1342 13.8001 20.3153C13.619 20.4963 13.5173 20.7419 13.5173 20.998C13.5173 21.2541 13.619 21.4996 13.8001 21.6807C13.9811 21.8618 14.2267 21.9635 14.4828 21.9635H22.2069C22.463 21.9635 22.7086 21.8618 22.8897 21.6807C23.0707 21.4996 23.1724 21.2541 23.1724 20.998Z" fill="#E5BB33"/>
<path d="M14.4828 23.8945C14.2267 23.8945 13.9811 23.9963 13.8001 24.1773C13.619 24.3584 13.5173 24.604 13.5173 24.86C13.5173 25.1161 13.619 25.3617 13.8001 25.5428C13.9811 25.7238 14.2267 25.8256 14.4828 25.8256H19.3104C19.5664 25.8256 19.812 25.7238 19.9931 25.5428C20.1742 25.3617 20.2759 25.1161 20.2759 24.86C20.2759 24.604 20.1742 24.3584 19.9931 24.1773C19.812 23.9963 19.5664 23.8945 19.3104 23.8945H14.4828Z" fill="#E5BB33"/>
<path d="M38.6207 25.8256H41.5172C41.7733 25.8256 42.0189 25.7238 42.1999 25.5428C42.381 25.3617 42.4827 25.1161 42.4827 24.86C42.4827 24.604 42.381 24.3584 42.1999 24.1773C42.0189 23.9963 41.7733 23.8945 41.5172 23.8945H38.6207C38.3646 23.8945 38.119 23.9963 37.9379 24.1773C37.7569 24.3584 37.6552 24.604 37.6552 24.86C37.6552 25.1161 37.7569 25.3617 37.9379 25.5428C38.119 25.7238 38.3646 25.8256 38.6207 25.8256Z" fill="#82ECFF"/>
<path d="M22.2069 24.86C22.2069 25.1161 22.3086 25.3617 22.4897 25.5428C22.6708 25.7238 22.9164 25.8256 23.1724 25.8256H34.7586C35.0147 25.8256 35.2603 25.7238 35.4414 25.5428C35.6224 25.3617 35.7242 25.1161 35.7242 24.86C35.7242 24.604 35.6224 24.3584 35.4414 24.1773C35.2603 23.9963 35.0147 23.8945 34.7586 23.8945H23.1724C22.9164 23.8945 22.6708 23.9963 22.4897 24.1773C22.3086 24.3584 22.2069 24.604 22.2069 24.86Z" fill="#EB6374"/>
<path d="M16.4138 27.7566H14.4828C14.2267 27.7566 13.9811 27.8583 13.8001 28.0394C13.619 28.2205 13.5173 28.466 13.5173 28.7221C13.5173 28.9782 13.619 29.2238 13.8001 29.4048C13.9811 29.5859 14.2267 29.6876 14.4828 29.6876H16.4138C16.6699 29.6876 16.9155 29.5859 17.0965 29.4048C17.2776 29.2238 17.3793 28.9782 17.3793 28.7221C17.3793 28.466 17.2776 28.2205 17.0965 28.0394C16.9155 27.8583 16.6699 27.7566 16.4138 27.7566Z" fill="#E5BB33"/>
<path d="M41.5172 27.7566H30.8965C30.6405 27.7566 30.3949 27.8583 30.2138 28.0394C30.0328 28.2205 29.931 28.466 29.931 28.7221C29.931 28.9782 30.0328 29.2238 30.2138 29.4048C30.3949 29.5859 30.6405 29.6876 30.8965 29.6876H41.5172C41.7733 29.6876 42.0189 29.5859 42.2 29.4048C42.381 29.2238 42.4828 28.9782 42.4828 28.7221C42.4828 28.466 42.381 28.2205 42.2 28.0394C42.0189 27.8583 41.7733 27.7566 41.5172 27.7566Z" fill="#82ECFF"/>
<path d="M27.0345 27.7566H20.2759C20.0198 27.7566 19.7742 27.8583 19.5932 28.0394C19.4121 28.2205 19.3104 28.466 19.3104 28.7221C19.3104 28.9782 19.4121 29.2238 19.5932 29.4048C19.7742 29.5859 20.0198 29.6876 20.2759 29.6876H27.0345C27.2906 29.6876 27.5362 29.5859 27.7172 29.4048C27.8983 29.2238 28 28.9782 28 28.7221C28 28.466 27.8983 28.2205 27.7172 28.0394C27.5362 27.8583 27.2906 27.7566 27.0345 27.7566Z" fill="#EB6374"/>
</svg>
