<svg width="72" height="66" viewBox="0 0 72 66" fill="none" xmlns="http://www.w3.org/2000/svg">
<path d="M25.9668 0.377977C24.5047 0.282054 23.0379 0.479114 21.6557 0.957187C20.2735 1.43526 19.0046 2.18437 17.9261 3.15901C16.6633 4.30403 15.6841 5.71788 15.0636 7.29219C15.6121 9.10173 16.6432 10.7342 18.0501 12.0206C19.1 12.8502 20.3197 13.4476 21.626 13.772C22.9323 14.0964 24.2945 14.1402 25.6196 13.9003C25.7826 13.8814 25.9478 13.8942 26.1058 13.938C26.2638 13.9819 26.4115 14.0558 26.5403 14.1557C26.6692 14.2556 26.7768 14.3795 26.857 14.5202C26.9372 14.661 26.9883 14.8158 27.0076 14.976C27.0268 15.1362 27.0137 15.2985 26.9691 15.4537C26.9245 15.6089 26.8492 15.7539 26.7475 15.8806C26.6459 16.0072 26.5198 16.1129 26.3765 16.1916C26.2333 16.2704 26.0756 16.3207 25.9126 16.3396C25.2555 16.4172 24.5944 16.4568 23.9326 16.4582C21.1787 16.5437 18.4913 15.6178 16.3951 13.8613C15.1954 12.805 14.2215 11.5248 13.5301 10.0953C11.0258 10.5675 8.76656 11.8806 7.13962 13.8096C5.51268 15.7386 4.61931 18.1635 4.61259 20.6686C4.73956 21.5761 4.65236 22.5002 4.35774 23.3693C4.06311 24.2384 3.56895 25.0293 2.91347 25.6808C1.03777 27.6697 -0.00296944 30.2819 6.76637e-05 32.9932C0.00310477 35.7045 1.04969 38.3144 2.92985 40.2993C3.58059 40.949 4.07073 41.7368 4.36249 42.602C4.65425 43.4673 4.73981 44.3868 4.61259 45.2896C4.60798 47.7703 5.47542 50.1764 7.06828 52.1013C8.66114 54.0262 10.8817 55.3516 13.3546 55.8537C13.9105 54.9204 14.6153 54.0809 15.4421 53.367C17.9518 51.2222 21.4211 50.4385 25.7522 51.0309C26.0737 51.0834 26.3616 51.2573 26.5545 51.5154C26.7474 51.7735 26.8301 52.0955 26.7849 52.4126C26.7396 52.7297 26.5701 53.0169 26.3124 53.213C26.0548 53.4091 25.7293 53.4985 25.4054 53.4623C21.8276 52.9724 19.0358 53.5582 17.0973 55.2071C16.1378 56.0483 15.39 57.0967 14.9126 58.2698C15.4877 59.9555 16.4776 61.4756 17.7945 62.6951C19.8181 64.571 22.4974 65.6124 25.2797 65.6043C26.9149 65.601 28.5279 65.2311 29.9957 64.523C31.4635 63.8149 32.7476 62.7871 33.7501 61.5179V29.7166C32.7171 29.9216 31.6663 30.0271 30.6126 30.0316C29.4806 30.0368 28.3528 29.8983 27.2569 29.6197C26.5836 29.6021 21.8766 29.5583 20.2549 32.2992C20.1748 32.4429 20.0661 32.5693 19.9354 32.6711C19.8046 32.7729 19.6545 32.848 19.4938 32.8919C19.3331 32.9358 19.1651 32.9477 18.9996 32.9268C18.8342 32.9059 18.6746 32.8527 18.5304 32.7703C18.3862 32.6879 18.2603 32.578 18.16 32.4471C18.0597 32.3161 17.9871 32.1668 17.9465 32.0078C17.9059 31.8489 17.8981 31.6836 17.9235 31.5216C17.9489 31.3596 18.0071 31.2043 18.0946 31.0648C18.689 30.1653 19.4625 29.3933 20.3685 28.7951C21.2745 28.1969 22.2943 27.785 23.3666 27.584C22.2148 26.5285 21.3589 25.1995 20.8814 23.725C20.7757 23.4161 20.7992 23.0787 20.9468 22.7869C21.0943 22.4951 21.3538 22.2728 21.6682 22.169C21.9826 22.0651 22.326 22.0882 22.6231 22.2332C22.9201 22.3781 23.1464 22.633 23.2521 22.9419C25.1786 28.572 31.4376 27.7294 33.7501 27.2052V4.44423C32.819 3.26446 31.6439 2.29204 30.3023 1.59112C28.9607 0.890208 27.483 0.476733 25.9668 0.377977Z" fill="#34A33F"/>
<path d="M72 32.9811C72.0011 30.2657 70.9542 27.6508 69.0704 25.6636C68.4345 25.0327 67.952 24.2687 67.659 23.4287C67.366 22.5888 67.2701 21.6946 67.3784 20.8131C67.3844 20.7652 67.3873 20.7169 67.3871 20.6686C67.3805 18.0201 66.3834 15.4664 64.5853 13.4931C62.7872 11.5197 60.3136 10.2644 57.6348 9.96577C57.3008 7.35397 56.0384 4.94201 54.0704 3.15553C52.9729 2.16271 51.6776 1.40437 50.2664 0.928468C48.8553 0.452565 47.359 0.269444 45.8721 0.390683C44.3853 0.511922 42.9402 0.934882 41.6282 1.63283C40.3163 2.33077 39.166 3.28852 38.2501 4.44552V21.9293H43.6529C44.6472 21.9283 45.6004 21.5398 46.3034 20.8492C47.0064 20.1585 47.4018 19.2221 47.4029 18.2454V15.0772C46.5689 14.7876 45.866 14.2176 45.4184 13.468C44.9708 12.7184 44.8074 11.8375 44.9569 10.981C45.1065 10.1245 45.5595 9.34753 46.2359 8.7874C46.9122 8.22727 47.7683 7.92005 48.6529 7.92005C49.5375 7.92005 50.3937 8.22727 51.07 8.7874C51.7463 9.34753 52.1993 10.1245 52.3489 10.981C52.4985 11.8375 52.3351 12.7184 51.8875 13.468C51.4399 14.2176 50.7369 14.7876 49.9029 15.0772V18.2454C49.901 19.8732 49.2419 21.4338 48.0702 22.5849C46.8985 23.7359 45.3099 24.3834 43.6529 24.3853H38.2501V28.5555H52.3956C53.3898 28.5544 54.343 28.166 55.046 27.4753C55.749 26.7847 56.1445 25.8483 56.1456 24.8716V21.7034C55.3115 21.4137 54.6086 20.8437 54.161 20.0942C53.7134 19.3446 53.55 18.4637 53.6996 17.6072C53.8492 16.7507 54.3021 15.9737 54.9785 15.4136C55.6548 14.8534 56.5109 14.5462 57.3956 14.5462C58.2802 14.5462 59.1363 14.8534 59.8126 15.4136C60.489 15.9737 60.942 16.7507 61.0916 17.6072C61.2411 18.4637 61.0777 19.3446 60.6301 20.0942C60.1825 20.8437 59.4796 21.4137 58.6456 21.7034V24.8716C58.6436 26.4994 57.9845 28.06 56.8128 29.211C55.6411 30.3621 54.0526 31.0095 52.3956 31.0115H38.2501V34.9508H52.3956C54.0526 34.9527 55.6411 35.6002 56.8128 36.7513C57.9845 37.9023 58.6436 39.4629 58.6456 41.0907V44.2589C59.4796 44.5486 60.1825 45.1186 60.6301 45.8681C61.0777 46.6177 61.2411 47.4986 61.0916 48.3551C60.942 49.2116 60.489 49.9886 59.8126 50.5487C59.1363 51.1089 58.2802 51.4161 57.3956 51.4161C56.5109 51.4161 55.6548 51.1089 54.9785 50.5487C54.3021 49.9886 53.8492 49.2116 53.6996 48.3551C53.55 47.4986 53.7134 46.6177 54.161 45.8681C54.6086 45.1186 55.3115 44.5486 56.1456 44.2589V41.0907C56.1445 40.114 55.749 39.1776 55.046 38.487C54.343 37.7963 53.3898 37.4078 52.3956 37.4068H38.2501V41.577H43.6529C45.3099 41.5789 46.8985 42.2264 48.0702 43.3774C49.2419 44.5285 49.901 46.0891 49.9029 47.7169V50.8851C50.7369 51.1747 51.4399 51.7447 51.8875 52.4943C52.3351 53.2439 52.4985 54.1248 52.3489 54.9813C52.1993 55.8378 51.7463 56.6148 51.07 57.1749C50.3937 57.735 49.5375 58.0422 48.6529 58.0422C47.7683 58.0422 46.9122 57.735 46.2359 57.1749C45.5595 56.6148 45.1065 55.8378 44.9569 54.9813C44.8074 54.1248 44.9708 53.2439 45.4184 52.4943C45.866 51.7447 46.5689 51.1747 47.4029 50.8851V47.7169C47.4018 46.7402 47.0064 45.8038 46.3034 45.1131C45.6004 44.4225 44.6472 44.034 43.6529 44.0329H38.2501V61.516C39.1814 62.6965 40.3572 63.6695 41.6995 64.3708C43.0419 65.072 44.5205 65.4855 46.0376 65.5839C46.2671 65.5977 46.4953 65.6045 46.7223 65.6043C49.5025 65.6121 52.1798 64.5721 54.2028 62.6987C56.1058 60.9425 57.3119 58.5794 57.6062 56.0308C60.2942 55.7314 62.7762 54.4715 64.5799 52.4909C66.3836 50.5102 67.3829 47.9472 67.3876 45.2896C67.3871 45.2428 67.3843 45.1959 67.3789 45.1493C67.2711 44.264 67.3687 43.3663 67.6645 42.5234C67.9602 41.6804 68.4465 40.9143 69.0867 40.2823C70.962 38.2977 72.0029 35.6891 72 32.9811Z" fill="#34A33F"/>
</svg>
