<svg width="404" height="175" viewBox="0 0 404 175" fill="none" xmlns="http://www.w3.org/2000/svg">
<path d="M30.4191 1.90796C30.9205 1.67652 31.1394 1.08239 30.908 0.580942C30.6765 0.0794897 30.0824 -0.139399 29.5809 0.0920406L30 1L30.4191 1.90796ZM2.34 21.61L3.32882 21.7591L2.34 21.61ZM17.96 59.97L18.7064 59.3045L17.96 59.97ZM99.97 69.31L100.131 68.3231L99.97 69.31ZM106.33 81.3L105.333 81.3762L106.33 81.3ZM96.68 111.3L97.5676 111.761L96.68 111.3ZM92.66 138.63L93.66 138.632L92.66 138.63ZM101.97 152.3L102.73 151.65L101.97 152.3ZM154.21 161.33L154.158 162.329L154.21 161.33ZM177.29 163.33L177.235 164.328L177.29 163.33ZM258.36 165.33L258.353 166.33L258.36 165.33ZM298.25 167.33L298.368 166.337L298.323 166.332L298.278 166.33L298.25 167.33ZM384.03 168.67L384.037 169.67L384.051 169.67L384.03 168.67ZM404 167L393.063 163.298L395.325 174.621L404 167ZM25.5461 1.9889C25.0482 2.2278 24.8382 2.82513 25.0771 3.32307C25.316 3.82101 25.9133 4.03101 26.4113 3.79211L25.9787 2.89051L25.5461 1.9889ZM18.5424 7.78611C19.0276 7.52224 19.207 6.91502 18.9431 6.42985C18.6792 5.94468 18.072 5.76528 17.5868 6.02915L18.0646 6.90763L18.5424 7.78611ZM9.91191 10.7028C9.46015 11.0205 9.35148 11.6443 9.66918 12.0961C9.98688 12.5478 10.6107 12.6565 11.0624 12.3388L10.4872 11.5208L9.91191 10.7028ZM4.86306 18.1214C5.17628 17.6666 5.06145 17.0439 4.60658 16.7307C4.1517 16.4175 3.52904 16.5323 3.21581 16.9872L4.03944 17.5543L4.86306 18.1214ZM0.922333 25.1248C0.877435 25.6753 1.28727 26.1579 1.83773 26.2028C2.38819 26.2477 2.87082 25.8378 2.91571 25.2874L1.91902 25.2061L0.922333 25.1248ZM2.92924 32.3437C2.87701 31.7939 2.38897 31.3905 1.83916 31.4428C1.28935 31.495 0.885977 31.983 0.938202 32.5328L1.93372 32.4383L2.92924 32.3437ZM2.44832 39.8232C2.62175 40.3476 3.18741 40.6321 3.71176 40.4586C4.23611 40.2852 4.52058 39.7195 4.34715 39.1952L3.39774 39.5092L2.44832 39.8232ZM7.2966 45.5387C7.0106 45.0662 6.39575 44.915 5.92328 45.201C5.45082 45.487 5.29965 46.1019 5.58565 46.5744L6.44113 46.0565L7.2966 45.5387ZM9.92858 52.5454C10.2833 52.9688 10.914 53.0244 11.3373 52.6698C11.7607 52.3151 11.8163 51.6844 11.4616 51.261L10.6951 51.9032L9.92858 52.5454ZM16.258 56.6167C15.8835 56.2108 15.2509 56.1852 14.8449 56.5597C14.4389 56.9341 14.4134 57.5668 14.7878 57.9727L15.5229 57.2947L16.258 56.6167ZM21.0441 63.1113C21.5545 63.3222 22.1393 63.0794 22.3501 62.5689C22.561 62.0585 22.3182 61.4738 21.8078 61.2629L21.4259 62.1871L21.0441 63.1113ZM29.6299 63.2703C29.0851 63.1796 28.57 63.5477 28.4793 64.0925C28.3886 64.6373 28.7567 65.1525 29.3015 65.2431L29.4657 64.2567L29.6299 63.2703ZM37.6415 66.2756C38.1915 66.3262 38.6783 65.9213 38.7289 65.3714C38.7794 64.8214 38.3746 64.3346 37.8246 64.284L37.7331 65.2798L37.6415 66.2756ZM46.0893 64.8873C45.5379 64.8552 45.065 65.2762 45.0329 65.8276C45.0009 66.3789 45.4218 66.8519 45.9732 66.8839L46.0312 65.8856L46.0893 64.8873ZM54.2952 67.2926C54.847 67.316 55.3133 66.8876 55.3366 66.3358C55.3599 65.784 54.9315 65.3177 54.3797 65.2944L54.3375 66.2935L54.2952 67.2926ZM62.6894 65.6191C62.1376 65.5984 61.6734 66.0291 61.6527 66.581C61.6321 67.1329 62.0627 67.597 62.6146 67.6177L62.652 66.6184L62.6894 65.6191ZM70.9257 67.9395C71.4775 67.9624 71.9434 67.5336 71.9662 66.9818C71.9891 66.43 71.5603 65.9641 71.0085 65.9413L70.9671 66.9404L70.9257 67.9395ZM79.3352 66.3347C78.7837 66.3046 78.3122 66.7271 78.282 67.2786C78.2519 67.83 78.6744 68.3016 79.2259 68.3317L79.2805 67.3332L79.3352 66.3347ZM87.5058 68.8803C88.0563 68.9245 88.5384 68.514 88.5826 67.9635C88.6268 67.413 88.2163 66.9309 87.6658 66.8867L87.5858 67.8835L87.5058 68.8803ZM95.9908 67.7276C95.4429 67.6583 94.9426 68.0464 94.8733 68.5943C94.804 69.1422 95.1921 69.6425 95.74 69.7118L95.8654 68.7197L95.9908 67.7276ZM102.471 71.6604C102.859 72.0538 103.492 72.0585 103.885 71.6709C104.279 71.2833 104.283 70.6501 103.896 70.2567L103.183 70.9585L102.471 71.6604ZM106.923 77.4931C106.837 76.9475 106.325 76.575 105.78 76.661C105.234 76.747 104.862 77.259 104.948 77.8045L105.935 77.6488L106.923 77.4931ZM105.329 85.2137C105.288 85.7645 105.701 86.244 106.252 86.2847C106.803 86.3255 107.282 85.912 107.323 85.3613L106.326 85.2875L105.329 85.2137ZM105.767 93.3957C105.925 92.8668 105.625 92.3093 105.096 92.1506C104.567 91.9919 104.01 92.2921 103.851 92.8211L104.809 93.1084L105.767 93.3957ZM101.08 100.168C100.856 100.673 101.084 101.263 101.589 101.487C102.094 101.711 102.685 101.483 102.908 100.978L101.994 100.573L101.08 100.168ZM99.4053 108.213C99.6576 107.722 99.4639 107.119 98.9725 106.867C98.4812 106.615 97.8785 106.808 97.6262 107.3L98.5158 107.756L99.4053 108.213ZM94.3151 114.124C94.117 114.64 94.3743 115.218 94.8899 115.416C95.4054 115.614 95.9839 115.357 96.182 114.842L95.2486 114.483L94.3151 114.124ZM94.4207 121.381C94.5134 120.837 94.1471 120.32 93.6027 120.228C93.0582 120.135 92.5417 120.501 92.449 121.046L93.4349 121.214L94.4207 121.381ZM91.749 128.115C91.7256 128.667 92.154 129.133 92.7058 129.156C93.2575 129.18 93.7238 128.751 93.7472 128.2L92.7481 128.157L91.749 128.115ZM93.6541 135.136C93.6527 134.584 93.2038 134.137 92.6515 134.139C92.0992 134.14 91.6527 134.589 91.6542 135.141L92.6542 135.139L93.6541 135.136ZM92.9466 143.124C93.214 143.607 93.8224 143.783 94.3057 143.515C94.789 143.248 94.964 142.639 94.6967 142.156L93.8217 142.64L92.9466 143.124ZM99.854 148.496C99.4755 148.094 98.8426 148.075 98.4404 148.453C98.0382 148.832 98.019 149.464 98.3975 149.867L99.1257 149.181L99.854 148.496ZM104.92 156.01C105.397 156.289 106.009 156.129 106.289 155.653C106.568 155.176 106.408 154.563 105.932 154.284L105.426 155.147L104.92 156.01ZM114.088 157.105C113.548 156.994 113.019 157.342 112.907 157.883C112.796 158.424 113.144 158.953 113.685 159.064L113.887 158.085L114.088 157.105ZM122.678 160.365C123.228 160.421 123.719 160.021 123.775 159.472C123.831 158.922 123.431 158.432 122.882 158.375L122.78 159.37L122.678 160.365ZM131.81 159.101C131.259 159.065 130.783 159.482 130.746 160.033C130.71 160.584 131.127 161.06 131.678 161.097L131.744 160.099L131.81 159.101ZM140.675 161.627C141.226 161.657 141.697 161.234 141.727 160.682C141.757 160.131 141.334 159.659 140.782 159.63L140.728 160.628L140.675 161.627ZM149.756 160.098C149.205 160.069 148.735 160.493 148.706 161.045C148.678 161.597 149.102 162.067 149.654 162.095L149.705 161.096L149.756 160.098ZM159.912 162.709C160.463 162.753 160.945 162.342 160.989 161.792C161.032 161.241 160.622 160.759 160.071 160.715L159.992 161.712L159.912 162.709ZM171.622 161.849C171.072 161.793 170.581 162.192 170.525 162.742C170.468 163.291 170.868 163.782 171.417 163.839L171.519 162.844L171.622 161.849ZM181.292 164.525C181.844 164.549 182.311 164.122 182.336 163.57C182.36 163.019 181.933 162.551 181.381 162.527L181.337 163.526L181.292 164.525ZM189.471 162.858C188.919 162.837 188.455 163.268 188.434 163.819C188.413 164.371 188.844 164.836 189.396 164.857L189.433 163.857L189.471 162.858ZM197.514 165.143C198.066 165.162 198.528 164.729 198.546 164.177C198.565 163.625 198.132 163.163 197.58 163.145L197.547 164.144L197.514 165.143ZM205.677 163.395C205.125 163.379 204.664 163.814 204.649 164.366C204.633 164.918 205.067 165.378 205.619 165.394L205.648 164.395L205.677 163.395ZM213.731 165.614C214.284 165.628 214.742 165.191 214.756 164.639C214.77 164.087 214.334 163.628 213.782 163.614L213.757 164.614L213.731 165.614ZM221.878 163.804C221.326 163.792 220.869 164.23 220.857 164.782C220.845 165.335 221.282 165.792 221.835 165.804L221.856 164.804L221.878 163.804ZM229.95 165.967C230.502 165.977 230.958 165.537 230.968 164.985C230.979 164.433 230.539 163.977 229.987 163.967L229.969 164.967L229.95 165.967ZM238.1 164.103C237.548 164.095 237.093 164.536 237.085 165.088C237.077 165.64 237.517 166.094 238.07 166.103L238.085 165.103L238.1 164.103ZM246.182 166.213C246.734 166.219 247.187 165.777 247.193 165.225C247.2 164.673 246.758 164.22 246.206 164.213L246.194 165.213L246.182 166.213ZM254.313 164.297C253.76 164.292 253.309 164.736 253.304 165.288C253.299 165.841 253.743 166.292 254.295 166.297L254.304 165.297L254.313 164.297ZM263.333 166.401C263.885 166.413 264.342 165.975 264.354 165.423C264.366 164.871 263.928 164.414 263.376 164.402L263.354 165.401L263.333 166.401ZM273.389 164.773C272.837 164.744 272.367 165.167 272.337 165.719C272.308 166.27 272.732 166.741 273.283 166.77L273.336 165.771L273.389 164.773ZM283.224 167.421C283.775 167.462 284.255 167.048 284.296 166.498C284.337 165.947 283.923 165.467 283.373 165.426L283.298 166.423L283.224 167.421ZM293.316 166.118C292.765 166.087 292.293 166.51 292.262 167.061C292.232 167.612 292.654 168.084 293.205 168.115L293.261 167.117L293.316 166.118ZM302.46 168.686C303.011 168.721 303.487 168.302 303.521 167.751C303.556 167.2 303.138 166.725 302.587 166.69L302.523 167.688L302.46 168.686ZM311.124 167.089C310.572 167.069 310.109 167.501 310.089 168.053C310.069 168.604 310.501 169.068 311.053 169.088L311.088 168.088L311.124 167.089ZM319.648 169.338C320.201 169.351 320.659 168.914 320.672 168.362C320.685 167.81 320.248 167.352 319.696 167.339L319.672 168.338L319.648 169.338ZM328.259 167.509C327.707 167.5 327.252 167.94 327.243 168.493C327.234 169.045 327.674 169.5 328.226 169.509L328.243 168.509L328.259 167.509ZM336.815 169.626C337.367 169.632 337.82 169.19 337.826 168.637C337.832 168.085 337.389 167.632 336.837 167.626L336.826 168.626L336.815 169.626ZM345.416 167.702C344.864 167.698 344.413 168.143 344.409 168.695C344.406 169.247 344.85 169.698 345.403 169.702L345.409 168.702L345.416 167.702ZM353.983 169.743C354.536 169.744 354.985 169.298 354.986 168.746C354.988 168.194 354.541 167.744 353.989 167.743L353.986 168.743L353.983 169.743ZM362.567 167.754C362.015 167.754 361.567 168.202 361.568 168.754C361.568 169.307 362.016 169.754 362.568 169.754L362.568 168.754L362.567 167.754ZM371.157 169.739C371.709 169.737 372.155 169.288 372.153 168.735C372.152 168.183 371.703 167.737 371.15 167.739L371.153 168.739L371.157 169.739ZM379.732 167.699C379.18 167.702 378.735 168.152 378.739 168.705C378.742 169.257 379.192 169.702 379.744 169.699L379.738 168.699L379.732 167.699ZM389.091 169.541C389.643 169.524 390.077 169.062 390.06 168.51C390.042 167.958 389.581 167.525 389.029 167.542L389.06 168.542L389.091 169.541ZM398.986 166.986C398.437 167.043 398.038 167.535 398.094 168.084C398.151 168.633 398.642 169.033 399.192 168.976L399.089 167.981L398.986 166.986ZM30 1L29.5809 0.0920406C28.1861 0.735804 26.841 1.36767 25.5461 1.9889L25.9787 2.89051L26.4113 3.79211C27.696 3.17572 29.0321 2.54811 30.4191 1.90796L30 1ZM18.0646 6.90763L17.5868 6.02915C14.6422 7.63063 12.0782 9.17937 9.91191 10.7028L10.4872 11.5208L11.0624 12.3388C13.1472 10.8727 15.6411 9.36406 18.5424 7.78611L18.0646 6.90763ZM4.03944 17.5543L3.21581 16.9872C2.22303 18.4289 1.58446 19.9142 1.35118 21.4609L2.34 21.61L3.32882 21.7591C3.50853 20.5676 4.00785 19.3634 4.86306 18.1214L4.03944 17.5543ZM2.34 21.61L1.35118 21.4609C1.16045 22.7254 1.0185 23.9458 0.922333 25.1248L1.91902 25.2061L2.91571 25.2874C3.00801 24.1558 3.14455 22.9808 3.32882 21.7591L2.34 21.61ZM1.93372 32.4383L0.938202 32.5328C1.1907 35.191 1.71386 37.6027 2.44832 39.8232L3.39774 39.5092L4.34715 39.1952C3.66019 37.1182 3.16767 34.8539 2.92924 32.3437L1.93372 32.4383ZM6.44113 46.0565L5.58565 46.5744C6.8847 48.7204 8.36724 50.6818 9.92858 52.5454L10.6951 51.9032L11.4616 51.261C9.94248 49.4478 8.5268 47.571 7.2966 45.5387L6.44113 46.0565ZM15.5229 57.2947L14.7878 57.9727C15.6046 58.8583 16.4159 59.7409 17.2136 60.6355L17.96 59.97L18.7064 59.3045C17.8964 58.3961 17.0751 57.5027 16.258 56.6167L15.5229 57.2947ZM17.96 59.97L17.2136 60.6355C18.1165 61.6481 19.4486 62.4521 21.0441 63.1113L21.4259 62.1871L21.8078 61.2629C20.3472 60.6594 19.3256 59.9989 18.7064 59.3045L17.96 59.97ZM29.4657 64.2567L29.3015 65.2431C31.8224 65.6628 34.629 65.9987 37.6415 66.2756L37.7331 65.2798L37.8246 64.284C34.843 64.0099 32.0878 63.6795 29.6299 63.2703L29.4657 64.2567ZM46.0312 65.8856L45.9732 66.8839C48.664 67.0403 51.4517 67.1724 54.2952 67.2926L54.3375 66.2935L54.3797 65.2944C51.5422 65.1744 48.7658 65.0429 46.0893 64.8873L46.0312 65.8856ZM62.652 66.6184L62.6146 67.6177C65.38 67.7212 68.1609 67.8249 70.9257 67.9395L70.9671 66.9404L71.0085 65.9413C68.239 65.8264 65.4539 65.7226 62.6894 65.6191L62.652 66.6184ZM79.2805 67.3332L79.2259 68.3317C82.0569 68.4867 84.8297 68.6655 87.5058 68.8803L87.5858 67.8835L87.6658 66.8867C84.9687 66.6702 82.1784 66.4904 79.3352 66.3347L79.2805 67.3332ZM95.8654 68.7197L95.74 69.7118C97.147 69.8897 98.5057 70.0839 99.8087 70.2969L99.97 69.31L100.131 68.3231C98.8012 68.1057 97.4183 67.9081 95.9908 67.7276L95.8654 68.7197ZM99.97 69.31L99.8087 70.2969C100.932 70.4805 101.79 70.9692 102.471 71.6604L103.183 70.9585L103.896 70.2567C102.931 69.2776 101.692 68.5782 100.131 68.3231L99.97 69.31ZM105.935 77.6488L104.948 77.8045C105.144 79.0479 105.249 80.2779 105.333 81.3762L106.33 81.3L107.327 81.2238C107.243 80.1175 107.132 78.8204 106.923 77.4931L105.935 77.6488ZM106.33 81.3L105.333 81.3762C105.43 82.6469 105.424 83.9271 105.329 85.2137L106.326 85.2875L107.323 85.3613C107.425 83.9837 107.432 82.6028 107.327 81.2238L106.33 81.3ZM104.809 93.1084L103.851 92.8211C103.11 95.2923 102.151 97.7496 101.08 100.168L101.994 100.573L102.908 100.978C104.002 98.5078 104.995 95.9694 105.767 93.3957L104.809 93.1084ZM98.5158 107.756L97.6262 107.3C97.0085 108.503 96.3934 109.681 95.7924 110.839L96.68 111.3L97.5676 111.761C98.1657 110.608 98.7851 109.421 99.4053 108.213L98.5158 107.756ZM96.68 111.3L95.7924 110.839C95.2268 111.93 94.7378 113.024 94.3151 114.124L95.2486 114.483L96.182 114.842C96.5787 113.809 97.0373 112.783 97.5676 111.761L96.68 111.3ZM93.4349 121.214L92.449 121.046C92.0512 123.383 91.8498 125.74 91.749 128.115L92.7481 128.157L93.7472 128.2C93.8457 125.879 94.0411 123.611 94.4207 121.381L93.4349 121.214ZM92.6542 135.139L91.6542 135.141C91.6572 136.298 91.6624 137.457 91.66 138.628L92.66 138.63L93.66 138.632C93.6624 137.455 93.6572 136.288 93.6541 135.136L92.6542 135.139ZM92.66 138.63L91.66 138.628C91.6567 140.221 92.169 141.718 92.9466 143.124L93.8217 142.64L94.6967 142.156C94.0263 140.944 93.6576 139.783 93.66 138.632L92.66 138.63ZM99.1257 149.181L98.3975 149.867C99.3652 150.895 100.323 151.914 101.21 152.95L101.97 152.3L102.73 151.65C101.807 150.572 100.816 149.519 99.854 148.496L99.1257 149.181ZM101.97 152.3L101.21 152.95C102.235 154.147 103.461 155.155 104.92 156.01L105.426 155.147L105.932 154.284C104.647 153.531 103.597 152.662 102.73 151.65L101.97 152.3ZM113.887 158.085L113.685 159.064C116.28 159.598 119.26 160.015 122.678 160.365L122.78 159.37L122.882 158.375C119.501 158.029 116.593 157.621 114.088 157.105L113.887 158.085ZM131.744 160.099L131.678 161.097C134.45 161.281 137.443 161.453 140.675 161.627L140.728 160.628L140.782 159.63C137.554 159.456 134.57 159.284 131.81 159.101L131.744 160.099ZM149.705 161.096L149.654 162.095C151.114 162.17 152.615 162.248 154.158 162.329L154.21 161.33L154.262 160.331C152.719 160.251 151.217 160.173 149.756 160.098L149.705 161.096ZM154.21 161.33L154.158 162.329C156.215 162.436 158.125 162.567 159.912 162.709L159.992 161.712L160.071 160.715C158.267 160.572 156.339 160.44 154.262 160.331L154.21 161.33ZM171.519 162.844L171.417 163.839C173.467 164.049 175.38 164.226 177.235 164.328L177.29 163.33L177.345 162.332C175.538 162.232 173.663 162.059 171.622 161.849L171.519 162.844ZM177.29 163.33L177.235 164.328C177.977 164.369 179.344 164.437 181.292 164.525L181.337 163.526L181.381 162.527C179.437 162.44 178.077 162.372 177.345 162.332L177.29 163.33ZM189.433 163.857L189.396 164.857C191.794 164.947 194.507 165.044 197.514 165.143L197.547 164.144L197.58 163.145C194.576 163.045 191.867 162.949 189.471 162.858L189.433 163.857ZM205.648 164.395L205.619 165.394C208.176 165.468 210.883 165.542 213.731 165.614L213.757 164.614L213.782 163.614C210.936 163.543 208.231 163.469 205.677 163.395L205.648 164.395ZM221.856 164.804L221.835 165.804C224.446 165.861 227.152 165.915 229.95 165.967L229.969 164.967L229.987 163.967C227.191 163.916 224.487 163.861 221.878 163.804L221.856 164.804ZM238.085 165.103L238.07 166.103C240.706 166.143 243.411 166.18 246.182 166.213L246.194 165.213L246.206 164.213C243.437 164.18 240.734 164.143 238.1 164.103L238.085 165.103ZM254.304 165.297L254.295 166.297C255.634 166.309 256.987 166.32 258.353 166.33L258.36 165.33L258.367 164.33C257.003 164.32 255.651 164.309 254.313 164.297L254.304 165.297ZM258.36 165.33L258.353 166.33C260.091 166.343 261.748 166.367 263.333 166.401L263.354 165.401L263.376 164.402C261.782 164.367 260.115 164.343 258.367 164.33L258.36 165.33ZM273.336 165.771L273.283 166.77C276.922 166.962 280.166 167.193 283.224 167.421L283.298 166.423L283.373 165.426C280.31 165.198 277.049 164.965 273.389 164.773L273.336 165.771ZM293.261 167.117L293.205 168.115C294.85 168.207 296.51 168.281 298.222 168.33L298.25 167.33L298.278 166.33C296.588 166.283 294.947 166.209 293.316 166.118L293.261 167.117ZM298.25 167.33L298.132 168.323C299.209 168.451 300.662 168.572 302.46 168.686L302.523 167.688L302.587 166.69C300.803 166.577 299.392 166.458 298.368 166.337L298.25 167.33ZM311.088 168.088L311.053 169.088C313.622 169.179 316.494 169.263 319.648 169.338L319.672 168.338L319.696 167.339C316.548 167.264 313.683 167.18 311.124 167.089L311.088 168.088ZM328.243 168.509L328.226 169.509C330.942 169.554 333.808 169.593 336.815 169.626L336.826 168.626L336.837 167.626C333.833 167.593 330.971 167.554 328.259 167.509L328.243 168.509ZM345.409 168.702L345.403 169.702C348.168 169.72 351.03 169.734 353.983 169.743L353.986 168.743L353.989 167.743C351.039 167.734 348.179 167.72 345.416 167.702L345.409 168.702ZM362.568 168.754L362.568 169.754C365.363 169.753 368.227 169.748 371.157 169.739L371.153 168.739L371.15 167.739C368.223 167.748 365.36 167.753 362.567 167.754L362.568 168.754ZM379.738 168.699L379.744 169.699C381.162 169.69 382.593 169.681 384.037 169.67L384.03 168.67L384.023 167.67C382.58 167.681 381.149 167.69 379.732 167.699L379.738 168.699ZM384.03 168.67L384.051 169.67C385.913 169.631 387.586 169.588 389.091 169.541L389.06 168.542L389.029 167.542C387.531 167.589 385.865 167.632 384.009 167.67L384.03 168.67Z" fill="#401D26"/>
</svg>
