<svg width="235" height="127" viewBox="0 0 235 127" fill="none" xmlns="http://www.w3.org/2000/svg">
<path d="M51.1961 1.98058C51.7377 1.87227 52.0889 1.34544 51.9806 0.803884C51.8723 0.262324 51.3454 -0.0888926 50.8039 0.0194193L51 1L51.1961 1.98058ZM9.5 12.6L10.007 13.4619L9.5 12.6ZM1.66 29.25L2.65157 29.1204L1.66 29.25ZM17.64 58.64L18.428 58.0244L17.64 58.64ZM74.62 63.35L74.4447 62.3655L74.62 63.35ZM106.97 54.68L107.275 55.6324L106.97 54.68ZM110.99 52.67L109.995 52.7663L110.99 52.67ZM99.01 74.97L99.9326 75.3558L99.01 74.97ZM102.64 94.3L103.482 93.7613L102.64 94.3ZM142.29 100.67L142.319 99.6704L142.29 100.67ZM172.29 94.67L172.374 95.6665L172.29 94.67ZM202.63 95.66L202.493 96.6505L202.63 95.66ZM224.65 116.97L225.544 116.521L225.523 116.479L225.498 116.44L224.65 116.97ZM227.65 121.98L227.041 122.774L227.65 121.98ZM235 125L228.31 115.588L223.504 126.088L235 125ZM47.2691 0.727575C46.7277 0.83642 46.377 1.36359 46.4858 1.90504C46.5947 2.4465 47.1218 2.79719 47.6633 2.68835L47.4662 1.70796L47.2691 0.727575ZM40.6101 4.13085C41.1506 4.0176 41.497 3.48759 41.3837 2.94704C41.2705 2.40649 40.7405 2.0601 40.1999 2.17335L40.405 3.1521L40.6101 4.13085ZM33.1391 3.71209C32.6006 3.83503 32.2638 4.37118 32.3868 4.90961C32.5097 5.44803 33.0459 5.78485 33.5843 5.6619L33.3617 4.687L33.1391 3.71209ZM26.6127 7.36109C27.1469 7.22091 27.4664 6.67422 27.3262 6.14002C27.186 5.60583 26.6393 5.28641 26.1051 5.42658L26.3589 6.39384L26.6127 7.36109ZM19.1303 7.44935C18.6049 7.61969 18.3171 8.18366 18.4874 8.70902C18.6578 9.23438 19.2217 9.52219 19.7471 9.35186L19.4387 8.40061L19.1303 7.44935ZM13.1141 11.8672C13.617 11.639 13.8398 11.0463 13.6116 10.5434C13.3835 10.0404 12.7908 9.81769 12.2878 10.0459L12.701 10.9565L13.1141 11.8672ZM4.85776 14.852C4.46392 15.2392 4.45853 15.8724 4.84571 16.2662C5.2329 16.66 5.86604 16.6654 6.25987 16.2783L5.55882 15.5651L4.85776 14.852ZM2.45673 24.4003C2.50115 23.8498 2.09089 23.3675 1.54039 23.3231C0.989896 23.2787 0.507626 23.6889 0.463212 24.2394L1.45997 24.3199L2.45673 24.4003ZM1.44631 33.6638C1.57272 34.2014 2.11103 34.5347 2.64865 34.4083C3.18628 34.2819 3.51962 33.7436 3.39321 33.206L2.41976 33.4349L1.44631 33.6638ZM6.14932 41.0023C5.90958 40.5048 5.3119 40.2958 4.81436 40.5355C4.31682 40.7752 4.10783 41.3729 4.34756 41.8705L5.24844 41.4364L6.14932 41.0023ZM8.84597 49.2838C9.17081 49.7304 9.79623 49.8292 10.2429 49.5043C10.6895 49.1795 10.7883 48.5541 10.4634 48.1074L9.65471 48.6956L8.84597 49.2838ZM15.7272 54.7018C15.3741 54.2772 14.7435 54.2193 14.3189 54.5724C13.8943 54.9256 13.8364 55.5561 14.1896 55.9807L14.9584 55.3413L15.7272 54.7018ZM19.8398 61.8998C20.3046 62.198 20.9232 62.063 21.2214 61.5982C21.5197 61.1333 21.3846 60.5147 20.9198 60.2165L20.3798 61.0582L19.8398 61.8998ZM27.4053 62.884C26.8718 62.7411 26.3235 63.0576 26.1805 63.5911C26.0375 64.1245 26.354 64.6729 26.8875 64.8159L27.1464 63.85L27.4053 62.884ZM34.2419 66.1978C34.79 66.2659 35.2895 65.8768 35.3575 65.3287C35.4256 64.7806 35.0365 64.2812 34.4884 64.2131L34.3652 65.2054L34.2419 66.1978ZM41.7335 64.789C41.1816 64.7665 40.716 65.1956 40.6935 65.7474C40.671 66.2993 41.1001 66.7649 41.6519 66.7874L41.6927 65.7882L41.7335 64.789ZM49.0614 66.8611C49.6136 66.8511 50.053 66.3952 50.043 65.8431C50.0329 65.2909 49.5771 64.8514 49.0249 64.8615L49.0431 65.8613L49.0614 66.8611ZM56.3211 64.5497C55.77 64.5861 55.3528 65.0623 55.3892 65.6134C55.4255 66.1645 55.9018 66.5817 56.4528 66.5454L56.387 65.5475L56.3211 64.5497ZM63.8186 65.8988C64.3676 65.8388 64.764 65.3451 64.704 64.7961C64.644 64.2471 64.1503 63.8506 63.6013 63.9106L63.7099 64.9047L63.8186 65.8988ZM70.8455 62.9613C70.2996 63.0451 69.925 63.5556 70.0088 64.1015C70.0926 64.6474 70.603 65.022 71.1489 64.9382L70.9972 63.9497L70.8455 62.9613ZM78.9376 63.53C79.4781 63.4167 79.8245 62.8867 79.7112 62.3462C79.598 61.8056 79.068 61.4592 78.5274 61.5725L78.7325 62.5513L78.9376 63.53ZM86.6382 59.6636C86.1035 59.8019 85.7821 60.3474 85.9203 60.8821C86.0586 61.4168 86.6041 61.7382 87.1388 61.5999L86.8885 60.6318L86.6382 59.6636ZM95.2454 59.3551C95.7754 59.1997 96.079 58.6441 95.9236 58.1141C95.7682 57.5841 95.2126 57.2805 94.6827 57.4359L94.964 58.3955L95.2454 59.3551ZM102.678 54.9954C102.151 55.1613 101.859 55.7229 102.025 56.2496C102.191 56.7764 102.752 57.0689 103.279 56.9029L102.979 55.9492L102.678 54.9954ZM108.448 55.1701C108.95 54.938 109.168 54.3437 108.936 53.8425C108.704 53.3413 108.109 53.1231 107.608 53.3551L108.028 54.2626L108.448 55.1701ZM109.48 52.3042C109.013 52.5984 108.872 53.2158 109.166 53.6832C109.461 54.1506 110.078 54.291 110.545 53.9968L110.013 53.1505L109.48 52.3042ZM109.784 55.6395C109.658 56.1772 109.991 56.7154 110.529 56.8418C111.066 56.9682 111.604 56.6349 111.731 56.0972L110.757 55.8684L109.784 55.6395ZM108.845 62.2145C109.151 61.7548 109.027 61.134 108.567 60.8279C108.107 60.5219 107.486 60.6465 107.18 61.1063L108.013 61.6604L108.845 62.2145ZM103.383 66.2257C103.047 66.6636 103.129 67.2914 103.567 67.6279C104.005 67.9644 104.633 67.8822 104.969 67.4443L104.176 66.835L103.383 66.2257ZM101.333 72.6162C101.616 72.1418 101.461 71.528 100.987 71.2451C100.512 70.9622 99.8985 71.1174 99.6157 71.5918L100.475 72.104L101.333 72.6162ZM96.8595 79.8863C96.8277 80.4377 97.2489 80.9104 97.8003 80.9422C98.3517 80.974 98.8244 80.5528 98.8562 80.0014L97.8578 79.9439L96.8595 79.8863ZM101.017 89.4067C100.779 88.9086 100.182 88.6982 99.6836 88.9368C99.1855 89.1753 98.9751 89.7725 99.2137 90.2706L100.116 89.8387L101.017 89.4067ZM104.147 97.7518C104.541 98.1394 105.174 98.1345 105.561 97.741C105.949 97.3475 105.944 96.7143 105.551 96.3268L104.849 97.0393L104.147 97.7518ZM111.138 99.7441C110.618 99.5598 110.046 99.8323 109.862 100.353C109.677 100.873 109.95 101.445 110.47 101.629L110.804 100.687L111.138 99.7441ZM117.629 103.013C118.18 103.052 118.658 102.636 118.697 102.086C118.735 101.535 118.32 101.057 117.769 101.018L117.699 102.016L117.629 103.013ZM124.678 100.984C124.126 101.018 123.707 101.493 123.741 102.044C123.775 102.595 124.249 103.014 124.801 102.98L124.739 101.982L124.678 100.984ZM131.859 102.35C132.409 102.293 132.808 101.802 132.751 101.252C132.694 100.703 132.202 100.304 131.653 100.361L131.756 101.356L131.859 102.35ZM138.716 99.7344C138.164 99.7646 137.742 100.236 137.772 100.788C137.802 101.339 138.274 101.762 138.825 101.731L138.77 100.733L138.716 99.7344ZM146.238 101.47C146.786 101.403 147.176 100.905 147.11 100.357C147.043 99.8084 146.544 99.4181 145.996 99.4849L146.117 100.478L146.238 101.47ZM153.345 97.9062C152.813 98.0531 152.5 98.6039 152.647 99.1362C152.794 99.6686 153.345 99.981 153.877 99.834L153.611 98.8701L153.345 97.9062ZM161.252 97.7467C161.785 97.6036 162.102 97.0552 161.959 96.5218C161.816 95.9884 161.267 95.6719 160.734 95.8149L160.993 96.7808L161.252 97.7467ZM168.324 94.1488C167.779 94.2358 167.407 94.7484 167.494 95.2938C167.581 95.8392 168.094 96.2108 168.639 96.1239L168.482 95.1363L168.324 94.1488ZM176.134 95.413C176.686 95.3848 177.11 94.9147 177.082 94.3632C177.054 93.8116 176.584 93.3874 176.032 93.4156L176.083 94.4143L176.134 95.413ZM183.693 93.2554C183.141 93.2509 182.689 93.695 182.685 94.2472C182.68 94.7995 183.124 95.2508 183.677 95.2553L183.685 94.2553L183.693 93.2554ZM191.222 95.5215C191.773 95.5556 192.247 95.1364 192.281 94.5851C192.316 94.0339 191.896 93.5594 191.345 93.5253L191.283 94.5234L191.222 95.5215ZM198.97 94.1921C198.421 94.1301 197.926 94.5247 197.864 95.0735C197.802 95.6223 198.197 96.1174 198.746 96.1794L198.858 95.1857L198.97 94.1921ZM206.059 97.622C206.569 97.8316 207.154 97.5874 207.363 97.0765C207.573 96.5655 207.329 95.9813 206.818 95.7717L206.438 96.6968L206.059 97.622ZM213.668 100.334C213.264 99.957 212.631 99.9785 212.254 100.382C211.877 100.786 211.899 101.418 212.302 101.795L212.985 101.065L213.668 100.334ZM217.366 107.621C217.693 108.066 218.319 108.161 218.764 107.833C219.209 107.506 219.304 106.88 218.977 106.435L218.171 107.028L217.366 107.621ZM223.412 113.08C223.119 112.612 222.503 112.469 222.034 112.762C221.566 113.054 221.423 113.671 221.715 114.139L222.564 113.61L223.412 113.08ZM224.377 118.72C224.61 119.221 225.204 119.439 225.705 119.206C226.206 118.974 226.424 118.379 226.192 117.878L225.284 118.299L224.377 118.72ZM227.479 120.332C227.164 119.878 226.541 119.765 226.087 120.079C225.633 120.394 225.52 121.016 225.834 121.471L226.656 120.901L227.479 120.332ZM229.115 123.784C229.638 123.961 230.206 123.682 230.384 123.159C230.562 122.636 230.282 122.068 229.759 121.89L229.437 122.837L229.115 123.784ZM233.575 123.249C233.066 123.035 232.48 123.275 232.266 123.784C232.053 124.293 232.292 124.879 232.801 125.093L233.188 124.171L233.575 123.249ZM51 1L50.8039 0.0194193C49.6251 0.255184 48.4457 0.491061 47.2691 0.727575L47.4662 1.70796L47.6633 2.68835C48.8387 2.45206 50.0171 2.21638 51.1961 1.98058L51 1ZM40.405 3.1521L40.1999 2.17335C37.8014 2.67589 35.4388 3.18697 33.1391 3.71209L33.3617 4.687L33.5843 5.6619C35.8691 5.14018 38.2195 4.63171 40.6101 4.13085L40.405 3.1521ZM26.3589 6.39384L26.1051 5.42658C23.6508 6.0706 21.3121 6.74197 19.1303 7.44935L19.4387 8.40061L19.7471 9.35186C21.8845 8.65887 24.1856 7.99799 26.6127 7.36109L26.3589 6.39384ZM12.701 10.9565L12.2878 10.0459C11.0993 10.585 9.99619 11.1479 8.99298 11.7381L9.5 12.6L10.007 13.4619C10.9384 12.914 11.9771 12.383 13.1141 11.8672L12.701 10.9565ZM9.5 12.6L8.99298 11.7381C7.33448 12.7137 5.97111 13.7575 4.85776 14.852L5.55882 15.5651L6.25987 16.2783C7.24374 15.311 8.47322 14.3642 10.007 13.4619L9.5 12.6ZM1.45997 24.3199L0.463212 24.2394C0.315699 26.0678 0.464553 27.8196 0.668437 29.3796L1.66 29.25L2.65157 29.1204C2.45547 27.6199 2.32553 26.0265 2.45673 24.4003L1.45997 24.3199ZM1.66 29.25L0.668437 29.3796C0.86429 30.8782 1.12649 32.3037 1.44631 33.6638L2.41976 33.4349L3.39321 33.206C3.08897 31.9121 2.83879 30.5529 2.65157 29.1204L1.66 29.25ZM5.24844 41.4364L4.34756 41.8705C5.66981 44.6146 7.21844 47.0459 8.84597 49.2838L9.65471 48.6956L10.4634 48.1074C8.88643 45.939 7.40656 43.6116 6.14932 41.0023L5.24844 41.4364ZM14.9584 55.3413L14.1896 55.9807C15.1098 57.0872 16.0033 58.1693 16.852 59.2556L17.64 58.64L18.428 58.0244C17.5588 56.9118 16.6483 55.8092 15.7272 54.7018L14.9584 55.3413ZM17.64 58.64L16.852 59.2556C17.6385 60.2624 18.653 61.1384 19.8398 61.8998L20.3798 61.0582L20.9198 60.2165C19.8804 59.5496 19.048 58.8179 18.428 58.0244L17.64 58.64ZM27.1464 63.85L26.8875 64.8159C29.1256 65.4157 31.6024 65.87 34.2419 66.1978L34.3652 65.2054L34.4884 64.2131C31.9178 63.8938 29.5346 63.4548 27.4053 62.884L27.1464 63.85ZM41.6927 65.7882L41.6519 66.7874C44.0601 66.8856 46.5439 66.9071 49.0614 66.8611L49.0431 65.8613L49.0249 64.8615C46.5422 64.9068 44.098 64.8855 41.7335 64.789L41.6927 65.7882ZM56.387 65.5475L56.4528 66.5454C58.925 66.3822 61.3929 66.1639 63.8186 65.8988L63.7099 64.9047L63.6013 63.9106C61.2032 64.1727 58.7638 64.3885 56.3211 64.5497L56.387 65.5475ZM70.9972 63.9497L71.1489 64.9382C72.3897 64.7477 73.6071 64.5461 74.7953 64.3345L74.62 63.35L74.4447 62.3655C73.2727 62.5742 72.071 62.7732 70.8455 62.9613L70.9972 63.9497ZM74.62 63.35L74.7953 64.3345C76.1714 64.0895 77.5539 63.8199 78.9376 63.53L78.7325 62.5513L78.5274 61.5725C77.1618 61.8586 75.7993 62.1243 74.4447 62.3655L74.62 63.35ZM86.8885 60.6318L87.1388 61.5999C89.8893 60.8888 92.6055 60.1291 95.2454 59.3551L94.964 58.3955L94.6827 57.4359C92.0589 58.2052 89.3638 58.959 86.6382 59.6636L86.8885 60.6318ZM102.979 55.9492L103.279 56.9029C104.651 56.4707 105.986 56.0451 107.275 55.6324L106.97 54.68L106.665 53.7276C105.378 54.1399 104.046 54.5644 102.678 54.9954L102.979 55.9492ZM106.97 54.68L107.275 55.6324C107.685 55.501 108.08 55.3408 108.448 55.1701L108.028 54.2626L107.608 53.3551C107.298 53.4986 106.982 53.6262 106.665 53.7276L106.97 54.68ZM110.013 53.1505L110.545 53.9968C110.865 53.7957 111.063 53.6688 111.193 53.5994C111.277 53.554 111.228 53.5912 111.116 53.6142C111.074 53.6229 110.833 53.6735 110.553 53.5455C110.392 53.4719 110.244 53.3501 110.139 53.1838C110.039 53.0264 110.005 52.8731 109.995 52.7663L110.99 52.67L111.985 52.5737C111.958 52.2891 111.794 51.9136 111.384 51.7263C111.079 51.5869 110.803 51.6369 110.714 51.655C110.51 51.6969 110.33 51.7926 110.246 51.8378C110.038 51.9495 109.755 52.1314 109.48 52.3042L110.013 53.1505ZM110.99 52.67L109.995 52.7663C110.088 53.735 110.008 54.6883 109.784 55.6395L110.757 55.8684L111.731 56.0972C111.999 54.9571 112.102 53.7833 111.985 52.5737L110.99 52.67ZM108.013 61.6604L107.18 61.1063C106.058 62.7917 104.735 64.4674 103.383 66.2257L104.176 66.835L104.969 67.4443C106.294 65.7205 107.675 63.9724 108.845 62.2145L108.013 61.6604ZM100.475 72.104L99.6157 71.5918C99.0387 72.5592 98.5177 73.5554 98.0874 74.5842L99.01 74.97L99.9326 75.3558C100.319 74.4321 100.794 73.5211 101.333 72.6162L100.475 72.104ZM99.01 74.97L98.0874 74.5842C97.3383 76.3753 96.9594 78.153 96.8595 79.8863L97.8578 79.9439L98.8562 80.0014C98.9436 78.484 99.2745 76.9292 99.9326 75.3558L99.01 74.97ZM100.116 89.8387L99.2137 90.2706C100.029 91.9739 100.951 93.5151 101.798 94.8387L102.64 94.3L103.482 93.7613C102.659 92.4735 101.784 91.0082 101.017 89.4067L100.116 89.8387ZM102.64 94.3L101.798 94.8387C102.501 95.9381 103.287 96.905 104.147 97.7518L104.849 97.0393L105.551 96.3268C104.799 95.5871 104.107 94.7373 103.482 93.7613L102.64 94.3ZM110.804 100.687L110.47 101.629C112.721 102.427 115.143 102.84 117.629 103.013L117.699 102.016L117.769 101.018C115.407 100.853 113.172 100.465 111.138 99.7441L110.804 100.687ZM124.739 101.982L124.801 102.98C127.179 102.834 129.563 102.589 131.859 102.35L131.756 101.356L131.653 100.361C129.351 100.6 127.008 100.841 124.678 100.984L124.739 101.982ZM138.77 100.733L138.825 101.731C140.034 101.665 141.183 101.638 142.261 101.67L142.29 100.67L142.319 99.6704C141.169 99.6369 139.962 99.666 138.716 99.7344L138.77 100.733ZM142.29 100.67L142.261 101.67C143.591 101.708 144.915 101.631 146.238 101.47L146.117 100.478L145.996 99.4849C144.756 99.636 143.534 99.7058 142.319 99.6704L142.29 100.67ZM153.611 98.8701L153.877 99.834C156.303 99.1643 158.665 98.4404 161.252 97.7467L160.993 96.7808L160.734 95.8149C158.184 96.4988 155.655 97.2683 153.345 97.9062L153.611 98.8701ZM168.482 95.1363L168.639 96.1239C169.854 95.9303 171.097 95.7738 172.374 95.6665L172.29 94.67L172.206 93.6735C170.876 93.7854 169.583 93.9482 168.324 94.1488L168.482 95.1363ZM172.29 94.67L172.374 95.6665C173.621 95.5616 174.875 95.4774 176.134 95.413L176.083 94.4143L176.032 93.4156C174.752 93.4811 173.476 93.5667 172.206 93.6735L172.29 94.67ZM183.685 94.2553L183.677 95.2553C186.201 95.2758 188.723 95.3671 191.222 95.5215L191.283 94.5234L191.345 93.5253C188.812 93.3688 186.254 93.2762 183.693 93.2554L183.685 94.2553ZM198.858 95.1857L198.746 96.1794C200.007 96.322 201.257 96.4794 202.493 96.6505L202.63 95.66L202.767 94.6695C201.515 94.496 200.249 94.3365 198.97 94.1921L198.858 95.1857ZM202.63 95.66L202.493 96.6505C203.733 96.8224 204.92 97.1547 206.059 97.622L206.438 96.6968L206.818 95.7717C205.534 95.245 204.185 94.8659 202.767 94.6695L202.63 95.66ZM212.985 101.065L212.302 101.795C214.132 103.505 215.811 105.508 217.366 107.621L218.171 107.028L218.977 106.435C217.376 104.26 215.616 102.154 213.668 100.334L212.985 101.065ZM222.564 113.61L221.715 114.139C222.427 115.28 223.147 116.453 223.802 117.5L224.65 116.97L225.498 116.44C224.823 115.361 224.155 114.271 223.412 113.08L222.564 113.61ZM224.65 116.97L223.756 117.419C223.974 117.851 224.175 118.284 224.377 118.72L225.284 118.299L226.192 117.878C225.99 117.445 225.777 116.985 225.544 116.521L224.65 116.97ZM226.656 120.901L225.834 121.471C226.168 121.952 226.56 122.404 227.041 122.774L227.65 121.98L228.259 121.186C227.986 120.977 227.73 120.696 227.479 120.332L226.656 120.901ZM227.65 121.98L227.041 122.774C227.665 123.251 228.369 123.53 229.115 123.784L229.437 122.837L229.759 121.89C229.048 121.648 228.607 121.454 228.259 121.186L227.65 121.98Z" fill="#401D26"/>
</svg>
