<svg width="239" height="321" viewBox="0 0 239 321" fill="none" xmlns="http://www.w3.org/2000/svg">
<path d="M46.4115 1.91139C46.9149 1.68411 47.1387 1.09181 46.9114 0.588461C46.6841 0.0851127 46.0918 -0.138679 45.5885 0.088608L46 1L46.4115 1.91139ZM6.02001 30.63L5.18889 30.0739L6.02001 30.63ZM10.64 81.3L9.82825 81.884L10.64 81.3ZM35.97 103.31L35.4236 104.147L35.97 103.31ZM52.98 115.64L53.722 114.97L52.98 115.64ZM52.68 121.97L53.4681 122.586L52.68 121.97ZM27.7 135.64L28.284 136.452L27.7 135.64ZM18.34 152.93L19.3322 153.055L18.34 152.93ZM36.3 206.63L37.0787 206.003L36.3 206.63ZM64.3 222.32L64.7606 221.432L64.3 222.32ZM99.62 226.99L99.7711 226.001L99.62 226.99ZM146.57 229.34L146.658 230.336L146.57 229.34ZM207.97 234.98L208.361 234.06L207.97 234.98ZM228.97 247.64L229.578 246.846L228.97 247.64ZM237.66 276.94L238.654 277.05L238.671 276.898L238.641 276.748L237.66 276.94ZM224.01 312.99L224.055 313.989L224.613 313.964L224.884 313.476L224.01 312.99ZM222 309L219.723 320.32L230.665 316.632L222 309ZM41.7579 1.86507C41.2593 2.10269 41.0478 2.69947 41.2854 3.19803C41.523 3.69658 42.1198 3.90811 42.6183 3.67049L42.1881 2.76778L41.7579 1.86507ZM35.1647 7.44641C35.6506 7.18388 35.8317 6.57717 35.5692 6.09127C35.3067 5.60537 34.6999 5.42428 34.214 5.68681L34.6894 6.56661L35.1647 7.44641ZM26.8979 9.94595C26.4306 10.2403 26.2904 10.8578 26.5848 11.3251C26.8792 11.7924 27.4966 11.9325 27.9639 11.6382L27.4309 10.7921L26.8979 9.94595ZM21.1234 16.362C21.5629 16.0274 21.6479 15.4 21.3133 14.9606C20.9788 14.5211 20.3513 14.4361 19.9119 14.7707L20.5177 15.5663L21.1234 16.362ZM13.4343 20.2926C13.0361 20.6753 13.0236 21.3083 13.4063 21.7065C13.7891 22.1047 14.4221 22.1172 14.8203 21.7344L14.1273 21.0135L13.4343 20.2926ZM9.27248 27.848C9.61335 27.4135 9.53741 26.7849 9.10287 26.444C8.66832 26.1031 8.03973 26.1791 7.69886 26.6136L8.48567 27.2308L9.27248 27.848ZM3.0279 34.1517C2.81715 34.6622 3.06013 35.2469 3.57062 35.4576C4.08111 35.6684 4.6658 35.4254 4.87655 34.9149L3.95223 34.5333L3.0279 34.1517ZM2.84944 43.2155C2.9107 42.6666 2.51542 42.172 1.96654 42.1107C1.41766 42.0495 0.923047 42.4448 0.861781 42.9936L1.85561 43.1046L2.84944 43.2155ZM0.714548 52.0117C0.751542 52.5628 1.22824 52.9795 1.77929 52.9425C2.33033 52.9055 2.74705 52.4288 2.71006 51.8777L1.7123 51.9447L0.714548 52.0117ZM3.87835 60.5178C3.77039 59.9762 3.24379 59.6246 2.70216 59.7326C2.16053 59.8405 1.80897 60.3671 1.91694 60.9088L2.89765 60.7133L3.87835 60.5178ZM4.17274 69.5855C4.34241 70.1111 4.90601 70.3996 5.43159 70.2299C5.95717 70.0603 6.24569 69.4967 6.07602 68.9711L5.12438 69.2783L4.17274 69.5855ZM9.30084 77.0448C9.05466 76.5504 8.45431 76.3492 7.95993 76.5954C7.46555 76.8416 7.26435 77.4419 7.51054 77.9363L8.40569 77.4906L9.30084 77.0448ZM12.4487 85.2815C12.8005 85.7072 13.4308 85.7672 13.8566 85.4154C14.2823 85.0636 14.3423 84.4333 13.9905 84.0075L13.2196 84.6445L12.4487 85.2815ZM19.6956 90.0458C19.2912 89.6697 18.6584 89.6926 18.2823 90.097C17.9061 90.5013 17.929 91.1341 18.3334 91.5102L19.0145 90.778L19.6956 90.0458ZM24.9101 96.9703C25.3522 97.3013 25.9789 97.2112 26.3099 96.7691C26.6409 96.327 26.5509 95.7003 26.1088 95.3693L25.5094 96.1698L24.9101 96.9703ZM32.9889 100.163C32.5281 99.8584 31.9078 99.985 31.6032 100.446C31.2987 100.906 31.4253 101.527 31.886 101.831L32.4375 100.997L32.9889 100.163ZM39.8336 107.022C40.296 107.324 40.9157 107.194 41.2178 106.732C41.5198 106.269 41.3899 105.65 40.9276 105.347L40.3806 106.185L39.8336 107.022ZM49.6631 111.351C49.2246 111.015 48.5969 111.098 48.2612 111.537C47.9255 111.975 48.0088 112.603 48.4473 112.939L49.0552 112.145L49.6631 111.351ZM52.7965 117.386C52.9349 117.92 53.4805 118.242 54.0152 118.103C54.5499 117.965 54.8711 117.419 54.7327 116.885L53.7646 117.135L52.7965 117.386ZM54.4376 120.838C54.6333 120.322 54.3734 119.744 53.8569 119.549C53.3405 119.353 52.7632 119.613 52.5674 120.129L53.5025 120.484L54.4376 120.838ZM49.5347 123.765C49.1089 124.117 49.0489 124.747 49.4006 125.173C49.7523 125.598 50.3826 125.658 50.8084 125.307L50.1716 124.536L49.5347 123.765ZM44.3971 129.083C44.9025 128.86 45.1318 128.27 44.9092 127.765C44.6866 127.259 44.0964 127.03 43.591 127.252L43.994 128.168L44.3971 129.083ZM36.9447 129.869C36.4295 130.068 36.173 130.647 36.3718 131.162C36.5706 131.677 37.1495 131.934 37.6648 131.735L37.3048 130.802L36.9447 129.869ZM31.2254 134.612C31.7101 134.347 31.8883 133.739 31.6235 133.255C31.3587 132.77 30.7511 132.592 30.2664 132.857L30.7459 133.734L31.2254 134.612ZM23.1843 138.367C22.82 138.782 22.8612 139.414 23.2763 139.778C23.6914 140.142 24.3233 140.101 24.6875 139.686L23.9359 139.026L23.1843 138.367ZM20.2658 148.215C20.411 147.682 20.0968 147.132 19.564 146.987C19.0312 146.842 18.4815 147.156 18.3362 147.689L19.301 147.952L20.2658 148.215ZM16.9604 156.51C16.9149 157.061 17.3241 157.544 17.8745 157.59C18.4249 157.635 18.9081 157.226 18.9536 156.675L17.957 156.593L16.9604 156.51ZM18.6979 163.911C18.6897 163.359 18.2353 162.918 17.6831 162.926C17.1309 162.934 16.6899 163.388 16.6981 163.941L17.698 163.926L18.6979 163.911ZM17.2278 171.378C17.2995 171.926 17.8016 172.312 18.3492 172.24C18.8968 172.168 19.2826 171.666 19.2108 171.118L18.2193 171.248L17.2278 171.378ZM20.6043 178.182C20.4615 177.648 19.9132 177.332 19.3797 177.474C18.8462 177.617 18.5295 178.165 18.6724 178.699L19.6383 178.44L20.6043 178.182ZM21.1043 185.771C21.3199 186.28 21.9069 186.517 22.4153 186.301C22.9238 186.086 23.1612 185.499 22.9455 184.99L22.0249 185.381L21.1043 185.771ZM26.2019 191.421C25.9211 190.945 25.3079 190.788 24.8323 191.068C24.3568 191.349 24.1991 191.963 24.4799 192.438L25.3409 191.929L26.2019 191.421ZM28.6155 198.626C28.9445 199.07 29.5708 199.162 30.0144 198.833C30.458 198.504 30.5508 197.878 30.2217 197.434L29.4186 198.03L28.6155 198.626ZM34.7481 203.155C34.3973 202.728 33.7671 202.667 33.3406 203.018C32.914 203.369 32.8526 203.999 33.2034 204.425L33.9758 203.79L34.7481 203.155ZM38.3955 210.326C38.8018 210.7 39.4344 210.674 39.8086 210.268C40.1827 209.862 40.1567 209.229 39.7505 208.855L39.073 209.591L38.3955 210.326ZM46.1737 213.369C45.6887 213.105 45.0814 213.284 44.8173 213.769C44.5533 214.255 44.7325 214.862 45.2175 215.126L45.6956 214.248L46.1737 213.369ZM52.7107 218.536C53.2239 218.74 53.8053 218.489 54.0094 217.976C54.2134 217.463 53.9628 216.881 53.4496 216.677L53.0801 217.606L52.7107 218.536ZM61.0166 219.683C60.5087 219.466 59.9212 219.702 59.7044 220.21C59.4876 220.718 59.7236 221.305 60.2316 221.522L60.6241 220.602L61.0166 219.683ZM68.1697 224.935C68.6989 225.093 69.256 224.792 69.4139 224.263C69.5718 223.734 69.2709 223.176 68.7416 223.019L68.4557 223.977L68.1697 224.935ZM77.3583 224.494C76.808 224.448 76.3243 224.856 76.2779 225.406C76.2315 225.957 76.64 226.44 77.1904 226.487L77.2744 225.49L77.3583 224.494ZM86.1876 226.942C86.7395 226.963 87.2035 226.532 87.2239 225.98C87.2443 225.428 86.8134 224.964 86.2615 224.944L86.2245 225.943L86.1876 226.942ZM95.263 225.458C94.713 225.407 94.2261 225.812 94.1754 226.362C94.1247 226.912 94.5295 227.398 95.0794 227.449L95.1712 226.453L95.263 225.458ZM103.359 228.557C103.905 228.635 104.412 228.256 104.491 227.709C104.569 227.162 104.19 226.656 103.643 226.577L103.501 227.567L103.359 228.557ZM111.405 227.587C110.856 227.524 110.36 227.918 110.297 228.466C110.234 229.015 110.628 229.511 111.176 229.574L111.291 228.581L111.405 227.587ZM119.031 230.338C119.581 230.381 120.063 229.97 120.106 229.419C120.149 228.868 119.738 228.387 119.187 228.344L119.109 229.341L119.031 230.338ZM126.986 228.797C126.435 228.777 125.971 229.208 125.95 229.76C125.93 230.312 126.361 230.775 126.913 230.796L126.95 229.797L126.986 228.797ZM134.813 230.907C135.366 230.902 135.809 230.45 135.804 229.897C135.799 229.345 135.347 228.902 134.794 228.907L134.804 229.907L134.813 230.907ZM142.592 228.635C142.04 228.669 141.621 229.143 141.654 229.694C141.688 230.245 142.162 230.665 142.714 230.631L142.653 229.633L142.592 228.635ZM150.538 230.011C151.088 229.967 151.499 229.486 151.456 228.935C151.413 228.385 150.931 227.974 150.381 228.017L150.459 229.014L150.538 230.011ZM158.2 227.491C157.649 227.521 157.226 227.993 157.256 228.544C157.287 229.096 157.758 229.518 158.31 229.488L158.255 228.489L158.2 227.491ZM166.072 229.175C166.624 229.161 167.06 228.703 167.047 228.151C167.033 227.599 166.575 227.162 166.023 227.175L166.047 228.175L166.072 229.175ZM173.865 227.134C173.313 227.125 172.858 227.566 172.849 228.118C172.84 228.67 173.281 229.125 173.833 229.134L173.849 228.134L173.865 227.134ZM181.555 229.461C182.106 229.5 182.584 229.086 182.624 228.535C182.664 227.984 182.249 227.505 181.698 227.466L181.627 228.463L181.555 229.461ZM189.533 228.329C188.987 228.245 188.477 228.62 188.393 229.165C188.309 229.711 188.683 230.222 189.229 230.306L189.381 229.318L189.533 228.329ZM196.748 231.888C197.281 232.034 197.831 231.721 197.977 231.188C198.123 230.656 197.81 230.106 197.278 229.959L197.013 230.924L196.748 231.888ZM204.756 232.537C204.245 232.328 203.661 232.573 203.452 233.084C203.243 233.596 203.488 234.179 203.999 234.388L204.378 233.463L204.756 232.537ZM210.347 237.143C210.847 237.379 211.443 237.166 211.679 236.666C211.915 236.167 211.702 235.571 211.202 235.335L210.775 236.239L210.347 237.143ZM216.721 238.202C216.241 237.93 215.63 238.099 215.358 238.579C215.086 239.06 215.255 239.67 215.736 239.942L216.228 239.072L216.721 238.202ZM220.925 243.113C221.387 243.416 222.007 243.287 222.31 242.825C222.613 242.363 222.484 241.743 222.022 241.441L221.474 242.277L220.925 243.113ZM227.11 244.987C226.665 244.66 226.039 244.755 225.711 245.199C225.384 245.644 225.479 246.27 225.923 246.598L226.516 245.792L227.11 244.987ZM230.932 251.016C231.265 251.457 231.892 251.544 232.332 251.211C232.773 250.878 232.86 250.251 232.528 249.81L231.73 250.413L230.932 251.016ZM235.867 257.292C235.735 256.756 235.193 256.428 234.657 256.56C234.121 256.691 233.793 257.233 233.925 257.769L234.896 257.531L235.867 257.292ZM235.133 265.384C235.193 265.933 235.687 266.329 236.236 266.268C236.785 266.208 237.181 265.714 237.121 265.165L236.127 265.274L235.133 265.384ZM238.011 272.931C237.934 272.384 237.429 272.002 236.882 272.078C236.335 272.155 235.954 272.66 236.03 273.207L237.02 273.069L238.011 272.931ZM236.005 281.607C235.914 282.151 236.281 282.667 236.826 282.758C237.371 282.849 237.886 282.481 237.977 281.936L236.991 281.771L236.005 281.607ZM235.749 291.544C235.909 291.016 235.61 290.458 235.082 290.297C234.553 290.137 233.995 290.436 233.835 290.964L234.792 291.254L235.749 291.544ZM230.389 299.904C230.152 300.403 230.365 301 230.864 301.236C231.363 301.473 231.959 301.26 232.196 300.761L231.292 300.333L230.389 299.904ZM227.392 309.365C227.684 308.897 227.542 308.28 227.074 307.987C226.605 307.694 225.988 307.837 225.696 308.305L226.544 308.835L227.392 309.365ZM224.108 311.747C223.847 311.26 223.241 311.077 222.754 311.337C222.267 311.598 222.084 312.204 222.345 312.691L223.226 312.219L224.108 311.747ZM221.422 310.415C221.602 310.937 222.171 311.214 222.693 311.034C223.215 310.854 223.492 310.285 223.312 309.763L222.367 310.089L221.422 310.415ZM46 1L45.5885 0.088608C44.2775 0.680582 43.0009 1.27258 41.7579 1.86507L42.1881 2.76778L42.6183 3.67049C43.8485 3.08417 45.1125 2.49796 46.4115 1.91139L46 1ZM34.6894 6.56661L34.214 5.68681C31.6061 7.09587 29.1717 8.51353 26.8979 9.94595L27.4309 10.7921L27.9639 11.6382C30.1967 10.2316 32.5923 8.83627 35.1647 7.44641L34.6894 6.56661ZM20.5177 15.5663L19.9119 14.7707C17.5421 16.5749 15.3909 18.4117 13.4343 20.2926L14.1273 21.0135L14.8203 21.7344C16.7178 19.9105 18.8101 18.1231 21.1234 16.362L20.5177 15.5663ZM8.48567 27.2308L7.69886 26.6136C6.80839 27.7488 5.97328 28.9016 5.18889 30.0739L6.02001 30.63L6.85113 31.1861C7.60757 30.0555 8.41313 28.9435 9.27248 27.848L8.48567 27.2308ZM6.02001 30.63L5.18889 30.0739C4.33706 31.347 3.6215 32.7139 3.0279 34.1517L3.95223 34.5333L4.87655 34.9149C5.42446 33.5878 6.07944 32.3394 6.85113 31.1861L6.02001 30.63ZM1.85561 43.1046L0.861781 42.9936C0.534585 45.925 0.510311 48.9695 0.714548 52.0117L1.7123 51.9447L2.71006 51.8777C2.51231 48.9323 2.53766 46.0087 2.84944 43.2155L1.85561 43.1046ZM2.89765 60.7133L1.91694 60.9088C2.52347 63.9515 3.30096 66.8851 4.17274 69.5855L5.12438 69.2783L6.07602 68.9711C5.22705 66.3413 4.46928 63.4823 3.87835 60.5178L2.89765 60.7133ZM8.40569 77.4906L7.51054 77.9363C8.28114 79.4838 9.06465 80.8226 9.82825 81.884L10.64 81.3L11.4518 80.716C10.7689 79.7668 10.0392 78.5275 9.30084 77.0448L8.40569 77.4906ZM10.64 81.3L9.82825 81.884C10.6842 83.0738 11.5586 84.2042 12.4487 85.2815L13.2196 84.6445L13.9905 84.0075C13.1284 82.9642 12.2813 81.8691 11.4518 80.716L10.64 81.3ZM19.0145 90.778L18.3334 91.5102C20.4864 93.5129 22.6895 95.3077 24.9101 96.9703L25.5094 96.1698L26.1088 95.3693C23.933 93.7403 21.7866 91.9908 19.6956 90.0458L19.0145 90.778ZM32.4375 100.997L31.886 101.831C33.0703 102.614 34.2526 103.383 35.4236 104.147L35.97 103.31L36.5165 102.473C35.3424 101.706 34.1668 100.942 32.9889 100.163L32.4375 100.997ZM35.97 103.31L35.4236 104.147C37.0014 105.177 38.4648 106.127 39.8336 107.022L40.3806 106.185L40.9276 105.347C39.5609 104.455 38.0866 103.497 36.5165 102.473L35.97 103.31ZM49.0552 112.145L48.4473 112.939C50.0289 114.15 51.2765 115.246 52.238 116.31L52.98 115.64L53.722 114.97C52.648 113.781 51.2964 112.601 49.6631 111.351L49.0552 112.145ZM52.98 115.64L52.238 116.31C52.5012 116.602 52.6874 116.964 52.7965 117.386L53.7646 117.135L54.7327 116.885C54.5544 116.196 54.2305 115.532 53.722 114.97L52.98 115.64ZM53.5025 120.484L52.5674 120.129C52.3908 120.595 52.1575 121.014 51.8919 121.354L52.68 121.97L53.4681 122.586C53.87 122.071 54.1975 121.471 54.4376 120.838L53.5025 120.484ZM52.68 121.97L51.8919 121.354C51.1845 122.26 50.3946 123.055 49.5347 123.765L50.1716 124.536L50.8084 125.307C51.7704 124.512 52.664 123.615 53.4681 122.586L52.68 121.97ZM43.994 128.168L43.591 127.252C41.4802 128.182 39.2579 128.976 36.9447 129.869L37.3048 130.802L37.6648 131.735C39.9146 130.866 42.2295 130.037 44.3971 129.083L43.994 128.168ZM30.7459 133.734L30.2664 132.857C29.1938 133.443 28.1387 134.093 27.116 134.828L27.7 135.64L28.284 136.452C29.2304 135.771 30.2142 135.164 31.2254 134.612L30.7459 133.734ZM27.7 135.64L27.116 134.828C25.6299 135.897 24.3227 137.069 23.1843 138.367L23.9359 139.026L24.6875 139.686C25.7179 138.512 26.9102 137.44 28.284 136.452L27.7 135.64ZM19.301 147.952L18.3362 147.689C17.9027 149.279 17.5773 150.98 17.3478 152.805L18.34 152.93L19.3322 153.055C19.5518 151.309 19.8606 149.701 20.2658 148.215L19.301 147.952ZM18.34 152.93L17.3478 152.805C17.189 154.068 17.0603 155.303 16.9604 156.51L17.957 156.593L18.9536 156.675C19.0511 155.497 19.1768 154.29 19.3322 153.055L18.34 152.93ZM17.698 163.926L16.6981 163.941C16.737 166.561 16.921 169.036 17.2278 171.378L18.2193 171.248L19.2108 171.118C18.9143 168.855 18.7357 166.456 18.6979 163.911L17.698 163.926ZM19.6383 178.44L18.6724 178.699C19.3499 181.23 20.1747 183.579 21.1043 185.771L22.0249 185.381L22.9455 184.99C22.0507 182.88 21.2568 180.619 20.6043 178.182L19.6383 178.44ZM25.3409 191.929L24.4799 192.438C25.8022 194.676 27.2055 196.725 28.6155 198.626L29.4186 198.03L30.2217 197.434C28.8432 195.576 27.4809 193.586 26.2019 191.421L25.3409 191.929ZM33.9758 203.79L33.2034 204.425C34.0098 205.406 34.7852 206.344 35.5213 207.257L36.3 206.63L37.0787 206.003C36.3343 205.079 35.5498 204.13 34.7481 203.155L33.9758 203.79ZM36.3 206.63L35.5213 207.257C36.4275 208.382 37.3893 209.399 38.3955 210.326L39.073 209.591L39.7505 208.855C38.814 207.992 37.9203 207.047 37.0787 206.003L36.3 206.63ZM45.6956 214.248L45.2175 215.126C47.6621 216.456 50.201 217.538 52.7107 218.536L53.0801 217.606L53.4496 216.677C50.9643 215.689 48.5127 214.642 46.1737 213.369L45.6956 214.248ZM60.6241 220.602L60.2316 221.522C61.474 222.052 62.6802 222.606 63.8395 223.208L64.3 222.32L64.7606 221.432C63.5445 220.801 62.2904 220.226 61.0166 219.683L60.6241 220.602ZM64.3 222.32L63.8395 223.208C65.2157 223.922 66.6643 224.486 68.1697 224.935L68.4557 223.977L68.7416 223.019C67.3387 222.6 66.0095 222.08 64.7606 221.432L64.3 222.32ZM77.2744 225.49L77.1904 226.487C80.0876 226.731 83.1175 226.829 86.1876 226.942L86.2245 225.943L86.2615 224.944C83.1718 224.829 80.1975 224.733 77.3583 224.494L77.2744 225.49ZM95.1712 226.453L95.0794 227.449C96.5428 227.584 98.0075 227.755 99.4689 227.979L99.62 226.99L99.7711 226.001C98.2635 225.771 96.7586 225.595 95.263 225.458L95.1712 226.453ZM99.62 226.99L99.4689 227.979C100.696 228.166 101.995 228.361 103.359 228.557L103.501 227.567L103.643 226.577C102.287 226.382 100.995 226.189 99.7711 226.001L99.62 226.99ZM111.291 228.581L111.176 229.574C113.664 229.86 116.289 230.122 119.031 230.338L119.109 229.341L119.187 228.344C116.473 228.131 113.872 227.871 111.405 227.587L111.291 228.581ZM126.95 229.797L126.913 230.796C129.478 230.891 132.116 230.933 134.813 230.907L134.804 229.907L134.794 228.907C132.13 228.933 129.523 228.891 126.986 228.797L126.95 229.797ZM142.653 229.633L142.714 230.631C144.019 230.552 145.335 230.454 146.658 230.336L146.57 229.34L146.482 228.344C145.177 228.46 143.879 228.556 142.592 228.635L142.653 229.633ZM146.57 229.34L146.658 230.336C147.983 230.218 149.276 230.11 150.538 230.011L150.459 229.014L150.381 228.017C149.112 228.117 147.812 228.226 146.482 228.344L146.57 229.34ZM158.255 228.489L158.31 229.488C161.061 229.337 163.644 229.234 166.072 229.175L166.047 228.175L166.023 227.175C163.573 227.235 160.97 227.339 158.2 227.491L158.255 228.489ZM173.849 228.134L173.833 229.134C176.647 229.179 179.21 229.292 181.555 229.461L181.627 228.463L181.698 227.466C179.313 227.294 176.713 227.18 173.865 227.134L173.849 228.134ZM189.381 229.318L189.229 230.306C192.114 230.75 194.579 231.292 196.748 231.888L197.013 230.924L197.278 229.959C195.032 229.343 192.493 228.785 189.533 228.329L189.381 229.318ZM204.378 233.463L203.999 234.388C205.246 234.898 206.412 235.405 207.579 235.9L207.97 234.98L208.361 234.06C207.213 233.572 206.02 233.054 204.756 232.537L204.378 233.463ZM207.97 234.98L207.579 235.9C208.523 236.301 209.446 236.717 210.347 237.143L210.775 236.239L211.202 235.335C210.278 234.898 209.331 234.471 208.361 234.06L207.97 234.98ZM216.228 239.072L215.736 239.942C217.599 240.997 219.333 242.069 220.925 243.113L221.474 242.277L222.022 241.441C220.397 240.376 218.627 239.281 216.721 238.202L216.228 239.072ZM226.516 245.792L225.923 246.598C226.817 247.256 227.631 247.873 228.362 248.434L228.97 247.64L229.578 246.846C228.841 246.281 228.017 245.656 227.11 244.987L226.516 245.792ZM228.97 247.64L228.362 248.434C229.376 249.211 230.221 250.075 230.932 251.016L231.73 250.413L232.528 249.81C231.71 248.728 230.738 247.735 229.578 246.846L228.97 247.64ZM234.896 257.531L233.925 257.769C234.497 260.098 234.831 262.645 235.133 265.384L236.127 265.274L237.121 265.165C236.818 262.417 236.473 259.758 235.867 257.292L234.896 257.531ZM237.02 273.069L236.03 273.207C236.21 274.498 236.42 275.809 236.679 277.132L237.66 276.94L238.641 276.748C238.391 275.469 238.187 274.195 238.011 272.931L237.02 273.069ZM237.66 276.94L236.666 276.83C236.481 278.496 236.259 280.087 236.005 281.607L236.991 281.771L237.977 281.936C238.237 280.38 238.465 278.753 238.654 277.05L237.66 276.94ZM234.792 291.254L233.835 290.964C232.796 294.389 231.607 297.337 230.389 299.904L231.292 300.333L232.196 300.761C233.453 298.112 234.679 295.072 235.749 291.544L234.792 291.254ZM226.544 308.835L225.696 308.305C224.728 309.854 223.833 311.249 223.136 312.504L224.01 312.99L224.884 313.476C225.549 312.279 226.402 310.949 227.392 309.365L226.544 308.835ZM224.01 312.99L223.965 311.991C224.103 311.985 224.21 312.022 224.272 312.054C224.328 312.083 224.347 312.107 224.332 312.092C224.32 312.079 224.291 312.046 224.249 311.985C224.208 311.924 224.161 311.846 224.108 311.747L223.226 312.219L222.345 312.691C222.494 312.969 222.676 313.259 222.903 313.491C223.119 313.711 223.51 314.013 224.055 313.989L224.01 312.99Z" fill="#401D26"/>
</svg>
