<svg width="292" height="226" viewBox="0 0 292 226" fill="none" xmlns="http://www.w3.org/2000/svg">
<path d="M91.9096 3.99574C92.4596 4.04567 92.946 3.64027 92.9959 3.09025C93.0458 2.54022 92.6404 2.05386 92.0904 2.00393L92 2.99984L91.9096 3.99574ZM23.73 6.29984L23.3718 5.36617L23.73 6.29984ZM2.68 34.9298L3.62821 35.2475L2.68 34.9298ZM15.59 67.6098L16.1009 66.7502L15.59 67.6098ZM85.64 86.9398L86.5185 86.4621L85.64 86.9398ZM41.7 135.59L40.8194 135.116L41.7 135.59ZM45.31 163.31L44.6419 164.054L45.31 163.31ZM75.6 180.32L75.288 181.27L75.6 180.32ZM121.27 184.66L121.171 185.655L121.27 184.66ZM187.28 188.66L187.359 187.663L187.28 188.66ZM225.96 195.66L226.146 194.677L225.96 195.66ZM254.3 204.99L254.648 204.052L254.3 204.99ZM279.97 215.65L280.522 214.816L280.442 214.763L280.354 214.726L279.97 215.65ZM285.97 220.31L285.412 221.14L285.97 220.31ZM292 223L284.397 214.309L280.672 225.239L292 223ZM87.8045 1.63126C87.254 1.58578 86.771 1.99511 86.7255 2.54552C86.68 3.09593 87.0893 3.57899 87.6397 3.62447L87.7221 2.62787L87.8045 1.63126ZM79.0806 3.00549C79.6319 3.03924 80.1061 2.61973 80.1399 2.06847C80.1736 1.51722 79.7541 1.04298 79.2029 1.00923L79.1417 2.00736L79.0806 3.00549ZM70.5806 0.589559C70.0287 0.570046 69.5654 1.00166 69.5459 1.5536C69.5264 2.10554 69.958 2.5688 70.51 2.58831L70.5453 1.58893L70.5806 0.589559ZM61.9353 2.41502C62.4876 2.41721 62.9371 1.97128 62.9393 1.419C62.9415 0.866722 62.4955 0.417229 61.9432 0.415032L61.9393 1.41502L61.9353 2.41502ZM53.3015 0.544035C52.7496 0.563627 52.318 1.02694 52.3376 1.57888C52.3572 2.13082 52.8205 2.56237 53.3724 2.54278L53.337 1.54341L53.3015 0.544035ZM44.8365 3.0577C45.3867 3.00931 45.7934 2.52409 45.745 1.97393C45.6967 1.42377 45.2114 1.017 44.6613 1.0654L44.7489 2.06155L44.8365 3.0577ZM36.049 2.12508C35.504 2.21411 35.1343 2.72815 35.2233 3.27321C35.3124 3.81827 35.8264 4.18796 36.3715 4.09893L36.2103 3.112L36.049 2.12508ZM28.0831 5.90985C28.6141 5.75812 28.9216 5.20462 28.7699 4.67359C28.6181 4.14256 28.0646 3.83508 27.5336 3.98682L27.8083 4.94834L28.0831 5.90985ZM19.0839 7.46759C18.6122 7.75487 18.4627 8.37013 18.7499 8.84182C19.0372 9.31351 19.6525 9.46301 20.1242 9.17574L19.604 8.32167L19.0839 7.46759ZM13.5185 15.0173C13.868 14.5896 13.8046 13.9597 13.3769 13.6102C12.9493 13.2607 12.3193 13.3241 11.9698 13.7517L12.7442 14.3845L13.5185 15.0173ZM6.93048 21.6843C6.68153 22.1773 6.87937 22.7788 7.37236 23.0277C7.86536 23.2766 8.46682 23.0788 8.71577 22.5858L7.82312 22.1351L6.93048 21.6843ZM5.14308 30.9351C5.33484 30.4172 5.07043 29.8419 4.55251 29.6501C4.03458 29.4583 3.45927 29.7228 3.26751 30.2407L4.2053 30.5879L5.14308 30.9351ZM0.857373 39.528C0.826623 40.0794 1.24872 40.5514 1.80014 40.5821C2.35157 40.6129 2.82352 40.1908 2.85427 39.6393L1.85582 39.5837L0.857373 39.528ZM3.71646 48.7844C3.59922 48.2447 3.06667 47.9023 2.52697 48.0195C1.98728 48.1367 1.6448 48.6693 1.76204 49.209L2.73925 48.9967L3.71646 48.7844ZM4.95467 58.3219C5.22162 58.8053 5.82997 58.9809 6.31345 58.7139C6.79693 58.447 6.97246 57.8386 6.7055 57.3551L5.83009 57.8385L4.95467 58.3219ZM12.4135 64.1691C11.9877 63.8174 11.3574 63.8775 11.0057 64.3034C10.654 64.7292 10.7141 65.3595 11.14 65.7112L11.7767 64.9401L12.4135 64.1691ZM18.3286 70.2987C18.816 70.5584 19.4216 70.3737 19.6813 69.8863C19.9409 69.3988 19.7563 68.7932 19.2688 68.5336L18.7987 69.4161L18.3286 70.2987ZM25.8337 71.6621C25.3253 71.4463 24.7382 71.6836 24.5225 72.192C24.3068 72.7004 24.544 73.2874 25.0524 73.5032L25.443 72.5826L25.8337 71.6621ZM32.0092 76.1288C32.5331 76.3036 33.0995 76.0206 33.2743 75.4967C33.4491 74.9728 33.1661 74.4064 32.6422 74.2316L32.3257 75.1802L32.0092 76.1288ZM39.6357 76.2918C39.1009 76.1537 38.5555 76.4753 38.4174 77.01C38.2793 77.5448 38.6009 78.0902 39.1356 78.2283L39.3857 77.2601L39.6357 76.2918ZM46.3697 79.8658C46.9116 79.9725 47.4373 79.6197 47.544 79.0778C47.6507 78.5359 47.2979 78.0101 46.756 77.9034L46.5629 78.8846L46.3697 79.8658ZM53.9675 79.1434C53.4213 79.0618 52.9123 79.4384 52.8307 79.9846C52.749 80.5308 53.1256 81.0398 53.6718 81.1214L53.8197 80.1324L53.9675 79.1434ZM60.9991 82.0913C61.5475 82.1562 62.0447 81.7642 62.1096 81.2158C62.1745 80.6673 61.7825 80.1701 61.2341 80.1052L61.1166 81.0983L60.9991 82.0913ZM68.5443 80.9247C67.9954 80.8637 67.501 81.2592 67.44 81.8081C67.379 82.357 67.7745 82.8514 68.3234 82.9124L68.4339 81.9186L68.5443 80.9247ZM75.5775 83.8315C76.1231 83.9168 76.6346 83.5436 76.7199 82.998C76.8053 82.4523 76.4321 81.9408 75.8865 81.8555L75.732 82.8435L75.5775 83.8315ZM83.2589 83.7415C82.7558 83.5136 82.1632 83.7366 81.9353 84.2397C81.7074 84.7428 81.9305 85.3353 82.4335 85.5632L82.8462 84.6524L83.2589 83.7415ZM86.1356 91.2556C86.2312 91.7996 86.7496 92.1631 87.2935 92.0676C87.8375 91.972 88.201 91.4536 88.1055 90.9097L87.1206 91.0826L86.1356 91.2556ZM86.5654 100.07C86.8107 99.575 86.6084 98.975 86.1136 98.7297C85.6188 98.4844 85.0188 98.6866 84.7735 99.1814L85.6694 99.6256L86.5654 100.07ZM79.7404 106.014C79.3578 106.412 79.3705 107.045 79.7688 107.428C80.167 107.81 80.8001 107.798 81.1827 107.399L80.4615 106.706L79.7404 106.014ZM74.4885 113.36C74.9229 113.019 74.9985 112.391 74.6575 111.956C74.3164 111.522 73.6878 111.446 73.2534 111.787L73.8709 112.574L74.4885 113.36ZM66.1612 116.916C65.7037 117.225 65.5837 117.847 65.893 118.305C66.2024 118.762 66.8241 118.882 67.2816 118.573L66.7214 117.744L66.1612 116.916ZM59.8521 123.399C60.3191 123.104 60.4585 122.486 60.1636 122.019C59.8686 121.552 59.251 121.413 58.784 121.708L59.3181 122.553L59.8521 123.399ZM51.316 126.43C50.852 126.73 50.7185 127.348 51.0179 127.813C51.3173 128.277 51.9362 128.41 52.4003 128.111L51.8582 127.27L51.316 126.43ZM45.2907 133.134C45.7144 132.78 45.7708 132.149 45.4165 131.726C45.0623 131.302 44.4316 131.246 44.0079 131.6L44.6493 132.367L45.2907 133.134ZM39.2306 138.659C39.0429 139.178 39.3117 139.752 39.8311 139.939C40.3505 140.127 40.9238 139.858 41.1115 139.339L40.1711 138.999L39.2306 138.659ZM39.7901 146.334C39.803 145.782 39.3659 145.324 38.8138 145.311C38.2616 145.298 37.8036 145.735 37.7907 146.287L38.7904 146.311L39.7901 146.334ZM38.8376 153.971C38.9949 154.501 39.5516 154.802 40.081 154.645C40.6104 154.488 40.912 153.931 40.7547 153.402L39.7961 153.687L38.8376 153.971ZM43.7692 159.887C43.4634 159.427 42.8427 159.302 42.3828 159.608C41.9229 159.914 41.798 160.535 42.1037 160.995L42.9365 160.441L43.7692 159.887ZM47.992 166.938C48.4193 167.288 49.0494 167.225 49.3992 166.798C49.749 166.37 49.6861 165.74 49.2587 165.391L48.6253 166.164L47.992 166.938ZM56.2571 170.432C55.7894 170.139 55.1721 170.28 54.8784 170.747C54.5846 171.215 54.7257 171.832 55.1934 172.126L55.7252 171.279L56.2571 170.432ZM62.966 176.386C63.4644 176.624 64.0614 176.413 64.2994 175.914C64.5375 175.416 64.3265 174.819 63.8282 174.581L63.3971 175.483L62.966 176.386ZM71.8115 177.939C71.2936 177.748 70.7182 178.012 70.5264 178.53C70.3346 179.048 70.599 179.623 71.1169 179.815L71.4642 178.877L71.8115 177.939ZM79.045 182.347C79.5812 182.479 80.1233 182.152 80.2559 181.616C80.3885 181.08 80.0614 180.538 79.5253 180.405L79.2852 181.376L79.045 182.347ZM86.9503 181.759C86.4024 181.689 85.902 182.077 85.8326 182.625C85.7631 183.173 86.151 183.673 86.6989 183.743L86.8246 182.751L86.9503 181.759ZM94.4071 184.418C94.9585 184.449 95.4307 184.027 95.4617 183.476C95.4927 182.924 95.0708 182.452 94.5194 182.421L94.4633 183.42L94.4071 184.418ZM102.153 182.719C101.601 182.703 101.141 183.138 101.125 183.69C101.11 184.242 101.545 184.703 102.097 184.718L102.125 183.719L102.153 182.719ZM109.755 184.941C110.307 184.961 110.77 184.529 110.79 183.977C110.809 183.425 110.378 182.962 109.826 182.942L109.79 183.942L109.755 184.941ZM117.52 183.337C116.969 183.298 116.49 183.712 116.451 184.263C116.411 184.814 116.826 185.293 117.377 185.332L117.448 184.335L117.52 183.337ZM125.298 186.033C125.848 186.08 126.332 185.672 126.379 185.121C126.425 184.571 126.017 184.087 125.467 184.04L125.382 185.037L125.298 186.033ZM133.692 184.652C133.141 184.616 132.665 185.033 132.629 185.584C132.593 186.135 133.01 186.611 133.561 186.648L133.627 185.65L133.692 184.652ZM141.826 187.141C142.377 187.171 142.849 186.749 142.879 186.197C142.909 185.646 142.486 185.174 141.935 185.144L141.88 186.142L141.826 187.141ZM150.187 185.571C149.635 185.544 149.166 185.969 149.139 186.52C149.111 187.072 149.536 187.541 150.088 187.569L150.137 186.57L150.187 185.571ZM158.348 187.969C158.899 187.996 159.368 187.57 159.395 187.019C159.421 186.467 158.996 185.998 158.444 185.972L158.396 186.971L158.348 187.969ZM166.704 186.379C166.153 186.351 165.683 186.775 165.655 187.327C165.626 187.878 166.051 188.348 166.602 188.377L166.653 187.378L166.704 186.379ZM174.85 188.823C175.402 188.855 175.875 188.434 175.907 187.883C175.939 187.332 175.518 186.859 174.966 186.827L174.908 187.825L174.85 188.823ZM183.229 187.354C182.678 187.315 182.2 187.73 182.161 188.281C182.123 188.832 182.538 189.31 183.089 189.349L183.159 188.351L183.229 187.354ZM192.069 190.119C192.618 190.179 193.112 189.784 193.172 189.235C193.233 188.686 192.837 188.191 192.288 188.131L192.178 189.125L192.069 190.119ZM202.087 189.527C201.543 189.432 201.025 189.796 200.93 190.34C200.835 190.884 201.2 191.402 201.744 191.497L201.915 190.512L202.087 189.527ZM211.338 193.433C211.877 193.554 212.412 193.215 212.533 192.676C212.654 192.137 212.315 191.602 211.777 191.481L211.557 192.457L211.338 193.433ZM221.362 193.684C220.823 193.564 220.288 193.904 220.169 194.443C220.049 194.982 220.389 195.516 220.928 195.636L221.145 194.66L221.362 193.684ZM229.378 197.417C229.915 197.546 230.455 197.215 230.584 196.678C230.713 196.141 230.382 195.601 229.845 195.472L229.612 196.445L229.378 197.417ZM237.104 197.538C236.579 197.367 236.015 197.654 235.844 198.18C235.673 198.705 235.961 199.269 236.486 199.44L236.795 198.489L237.104 197.538ZM243.484 201.917C244.001 202.112 244.577 201.851 244.772 201.334C244.967 200.817 244.706 200.24 244.189 200.046L243.836 200.982L243.484 201.917ZM251.167 202.732C250.652 202.533 250.073 202.79 249.875 203.306C249.676 203.821 249.933 204.4 250.448 204.598L250.808 203.665L251.167 202.732ZM257.186 207.157C257.701 207.357 258.281 207.102 258.481 206.588C258.681 206.073 258.426 205.493 257.911 205.293L257.549 206.225L257.186 207.157ZM264.377 207.904C263.868 207.692 263.282 207.933 263.069 208.442C262.857 208.952 263.098 209.538 263.607 209.75L263.992 208.827L264.377 207.904ZM269.99 212.468C270.497 212.687 271.086 212.453 271.305 211.946C271.523 211.439 271.29 210.85 270.783 210.631L270.386 211.55L269.99 212.468ZM277.161 213.38C276.653 213.163 276.065 213.399 275.849 213.907C275.632 214.415 275.868 215.003 276.376 215.22L276.768 214.3L277.161 213.38ZM280.883 217.557C281.316 217.9 281.945 217.826 282.287 217.392C282.629 216.959 282.555 216.33 282.122 215.988L281.502 216.772L280.883 217.557ZM285.065 218.397C284.632 218.053 284.003 218.126 283.66 218.558C283.316 218.99 283.388 219.619 283.821 219.963L284.443 219.18L285.065 218.397ZM286.921 222.043C287.409 222.303 288.014 222.117 288.274 221.63C288.533 221.142 288.348 220.537 287.86 220.277L287.391 221.16L286.921 222.043ZM290.767 221.523C290.247 221.338 289.675 221.61 289.49 222.13C289.305 222.651 289.577 223.223 290.097 223.408L290.432 222.466L290.767 221.523ZM92 2.99984L92.0904 2.00393C90.8103 1.88771 89.3734 1.76091 87.8045 1.63126L87.7221 2.62787L87.6397 3.62447C89.2019 3.75355 90.6332 3.87986 91.9096 3.99574L92 2.99984ZM79.1417 2.00736L79.2029 1.00923C76.4885 0.843044 73.5919 0.696019 70.5806 0.589559L70.5453 1.58893L70.51 2.58831C73.5017 2.69408 76.381 2.8402 79.0806 3.00549L79.1417 2.00736ZM61.9393 1.41502L61.9432 0.415032C59.0895 0.403677 56.1924 0.441419 53.3015 0.544035L53.337 1.54341L53.3724 2.54278C56.2337 2.44121 59.1043 2.40375 61.9353 2.41502L61.9393 1.41502ZM44.7489 2.06155L44.6613 1.0654C41.7143 1.32462 38.8246 1.67172 36.049 2.12508L36.2103 3.112L36.3715 4.09893C39.0904 3.65482 41.9302 3.31335 44.8365 3.0577L44.7489 2.06155ZM27.8083 4.94834L27.5336 3.98682C26.0849 4.40078 24.6936 4.85916 23.3718 5.36617L23.73 6.29984L24.0882 7.2335C25.3485 6.75 26.6836 6.30975 28.0831 5.90985L27.8083 4.94834ZM23.73 6.29984L23.3718 5.36617C21.8438 5.95234 20.4181 6.65498 19.0839 7.46759L19.604 8.32167L20.1242 9.17574C21.3545 8.42643 22.6716 7.77689 24.0882 7.2335L23.73 6.29984ZM12.7442 14.3845L11.9698 13.7517C10.0638 16.084 8.41347 18.7475 6.93048 21.6843L7.82312 22.1351L8.71577 22.5858C10.1503 19.745 11.7254 17.2114 13.5185 15.0173L12.7442 14.3845ZM4.2053 30.5879L3.26751 30.2407C2.74302 31.6573 2.23311 33.1157 1.73179 34.6122L2.68 34.9298L3.62821 35.2475C4.12418 33.767 4.62714 32.3286 5.14308 30.9351L4.2053 30.5879ZM2.68 34.9298L1.73179 34.6122C1.22861 36.1142 0.954629 37.7839 0.857373 39.528L1.85582 39.5837L2.85427 39.6393C2.94426 38.0256 3.19525 36.5399 3.62821 35.2475L2.68 34.9298ZM2.73925 48.9967L1.76204 49.209C2.11096 50.8153 2.54185 52.3905 3.0296 53.8809L3.98 53.5698L4.9304 53.2588C4.46358 51.8324 4.05068 50.323 3.71646 48.7844L2.73925 48.9967ZM3.98 53.5698L3.0296 53.8809C3.54321 55.4502 4.18616 56.93 4.95467 58.3219L5.83009 57.8385L6.7055 57.3551C5.99917 56.0759 5.40592 54.7118 4.9304 53.2588L3.98 53.5698ZM11.7767 64.9401L11.14 65.7112C12.3507 66.711 13.6655 67.6293 15.0791 68.4695L15.59 67.6098L16.1009 66.7502C14.7693 65.9588 13.5395 65.099 12.4135 64.1691L11.7767 64.9401ZM15.59 67.6098L15.0791 68.4695C16.1562 69.1096 17.2399 69.7188 18.3286 70.2987L18.7987 69.4161L19.2688 68.5336C18.207 67.9679 17.1505 67.374 16.1009 66.7502L15.59 67.6098ZM25.443 72.5826L25.0524 73.5032C27.3695 74.4864 29.6936 75.3562 32.0092 76.1288L32.3257 75.1802L32.6422 74.2316C30.3729 73.4745 28.0985 72.6232 25.8337 71.6621L25.443 72.5826ZM39.3857 77.2601L39.1356 78.2283C41.5806 78.8597 43.9983 79.3989 46.3697 79.8658L46.5629 78.8846L46.756 77.9034C44.4181 77.4431 42.0387 76.9123 39.6357 76.2918L39.3857 77.2601ZM53.8197 80.1324L53.6718 81.1214C56.2059 81.5003 58.6576 81.8143 60.9991 82.0913L61.1166 81.0983L61.2341 80.1052C58.9056 79.8297 56.4753 79.5183 53.9675 79.1434L53.8197 80.1324ZM68.4339 81.9186L68.3234 82.9124C71.0011 83.21 73.433 83.4961 75.5775 83.8315L75.732 82.8435L75.8865 81.8555C73.6936 81.5126 71.2223 81.2223 68.5443 80.9247L68.4339 81.9186ZM82.8462 84.6524L82.4335 85.5632C83.6612 86.1194 84.3933 86.7406 84.7615 87.4176L85.64 86.9398L86.5185 86.4621C85.8591 85.2496 84.6881 84.389 83.2589 83.7415L82.8462 84.6524ZM85.64 86.9398L84.7615 87.4176C85.4706 88.7213 85.9152 90.0006 86.1356 91.2556L87.1206 91.0826L88.1055 90.9097C87.845 89.4268 87.3238 87.9428 86.5185 86.4621L85.64 86.9398ZM85.6694 99.6256L84.7735 99.1814C83.6317 101.484 81.8991 103.767 79.7404 106.014L80.4615 106.706L81.1827 107.399C83.4304 105.06 85.3048 102.612 86.5654 100.07L85.6694 99.6256ZM73.8709 112.574L73.2534 111.787C71.0076 113.551 68.6069 115.262 66.1612 116.916L66.7214 117.744L67.2816 118.573C69.7529 116.902 72.1945 115.161 74.4885 113.36L73.8709 112.574ZM59.3181 122.553L58.784 121.708C56.1667 123.361 53.6193 124.944 51.316 126.43L51.8582 127.27L52.4003 128.111C54.6934 126.631 57.2167 125.063 59.8521 123.399L59.3181 122.553ZM44.6493 132.367L44.0079 131.6C42.5851 132.789 41.4382 133.966 40.8194 135.116L41.7 135.59L42.5806 136.064C43.0118 135.262 43.9136 134.286 45.2907 133.134L44.6493 132.367ZM41.7 135.59L40.8194 135.116C40.1792 136.305 39.6537 137.488 39.2306 138.659L40.1711 138.999L41.1115 139.339C41.501 138.261 41.9863 137.168 42.5806 136.064L41.7 135.59ZM38.7904 146.311L37.7907 146.287C37.7257 149.068 38.1512 151.662 38.8376 153.971L39.7961 153.687L40.7547 153.402C40.1202 151.267 39.7306 148.881 39.7901 146.334L38.7904 146.311ZM42.9365 160.441L42.1037 160.995C42.9884 162.325 43.8838 163.373 44.6419 164.054L45.31 163.31L45.9781 162.566C45.3765 162.026 44.587 161.117 43.7692 159.887L42.9365 160.441ZM45.31 163.31L44.6419 164.054C45.6751 164.982 46.7816 165.948 47.992 166.938L48.6253 166.164L49.2587 165.391C48.0791 164.425 46.9967 163.48 45.9781 162.566L45.31 163.31ZM55.7252 171.279L55.1934 172.126C57.4632 173.551 60.0265 174.981 62.966 176.386L63.3971 175.483L63.8282 174.581C60.9578 173.21 58.4618 171.817 56.2571 170.432L55.7252 171.279ZM71.4642 178.877L71.1169 179.815C72.4461 180.307 73.8351 180.793 75.288 181.27L75.6 180.32L75.912 179.37C74.4822 178.9 73.1168 178.423 71.8115 177.939L71.4642 178.877ZM75.6 180.32L75.288 181.27C76.5297 181.678 77.7822 182.034 79.045 182.347L79.2852 181.376L79.5253 180.405C78.3076 180.104 77.1032 179.761 75.912 179.37L75.6 180.32ZM86.8246 182.751L86.6989 183.743C89.2302 184.064 91.8009 184.271 94.4071 184.418L94.4633 183.42L94.5194 182.421C91.9442 182.276 89.4223 182.072 86.9503 181.759L86.8246 182.751ZM102.125 183.719L102.097 184.718C104.619 184.789 107.166 184.85 109.755 184.941L109.79 183.942L109.826 182.942C107.227 182.85 104.663 182.79 102.153 182.719L102.125 183.719ZM117.448 184.335L117.377 185.332C118.634 185.422 119.899 185.529 121.171 185.655L121.27 184.66L121.369 183.665C120.076 183.536 118.793 183.429 117.52 183.337L117.448 184.335ZM121.27 184.66L121.171 185.655C122.509 185.788 123.886 185.914 125.298 186.033L125.382 185.037L125.467 184.04C124.063 183.921 122.696 183.797 121.369 183.665L121.27 184.66ZM133.627 185.65L133.561 186.648C136.245 186.824 139.009 186.987 141.826 187.141L141.88 186.142L141.935 185.144C139.124 184.99 136.367 184.827 133.692 184.652L133.627 185.65ZM150.137 186.57L150.088 187.569C152.824 187.704 155.586 187.836 158.348 187.969L158.396 186.971L158.444 185.972C155.681 185.838 152.922 185.706 150.187 185.571L150.137 186.57ZM166.653 187.378L166.602 188.377C169.382 188.518 172.139 188.666 174.85 188.823L174.908 187.825L174.966 186.827C172.249 186.669 169.487 186.521 166.704 186.379L166.653 187.378ZM183.159 188.351L183.089 189.349C184.481 189.447 185.853 189.549 187.201 189.657L187.28 188.66L187.359 187.663C186.005 187.555 184.627 187.452 183.229 187.354L183.159 188.351ZM187.28 188.66L187.201 189.657C188.885 189.791 190.505 189.946 192.069 190.119L192.178 189.125L192.288 188.131C190.705 187.956 189.064 187.799 187.359 187.663L187.28 188.66ZM201.915 190.512L201.744 191.497C205.189 192.097 208.351 192.762 211.338 193.433L211.557 192.457L211.777 191.481C208.77 190.807 205.575 190.134 202.087 189.527L201.915 190.512ZM221.145 194.66L220.928 195.636C222.554 195.998 224.162 196.338 225.774 196.642L225.96 195.66L226.146 194.677C224.562 194.378 222.975 194.042 221.362 193.684L221.145 194.66ZM225.96 195.66L225.774 196.642C226.994 196.873 228.195 197.133 229.378 197.417L229.612 196.445L229.845 195.472C228.632 195.181 227.4 194.914 226.146 194.677L225.96 195.66ZM236.795 198.489L236.486 199.44C238.861 200.211 241.184 201.051 243.484 201.917L243.836 200.982L244.189 200.046C241.874 199.173 239.519 198.322 237.104 197.538L236.795 198.489ZM250.808 203.665L250.448 204.598C251.615 205.048 252.782 205.493 253.952 205.927L254.3 204.99L254.648 204.052C253.489 203.622 252.33 203.18 251.167 202.732L250.808 203.665ZM254.3 204.99L253.952 205.927C255.049 206.335 256.127 206.745 257.186 207.157L257.549 206.225L257.911 205.293C256.842 204.878 255.756 204.464 254.648 204.052L254.3 204.99ZM263.992 208.827L263.607 209.75C265.789 210.66 267.908 211.569 269.99 212.468L270.386 211.55L270.783 210.631C268.698 209.732 266.57 208.819 264.377 207.904L263.992 208.827ZM276.768 214.3L276.376 215.22C277.448 215.677 278.517 216.129 279.586 216.573L279.97 215.65L280.354 214.726C279.292 214.285 278.229 213.836 277.161 213.38L276.768 214.3ZM279.97 215.65L279.418 216.484C279.899 216.802 280.386 217.165 280.883 217.557L281.502 216.772L282.122 215.988C281.6 215.575 281.066 215.176 280.522 214.816L279.97 215.65ZM284.443 219.18L283.821 219.963C284.34 220.376 284.872 220.777 285.412 221.14L285.97 220.31L286.528 219.48C286.047 219.157 285.561 218.791 285.065 218.397L284.443 219.18ZM285.97 220.31L285.412 221.14C285.918 221.479 286.42 221.777 286.921 222.043L287.391 221.16L287.86 220.277C287.416 220.041 286.972 219.778 286.528 219.48L285.97 220.31Z" fill="#401D26"/>
</svg>
