<svg width="245" height="105" viewBox="0 0 245 105" fill="none" xmlns="http://www.w3.org/2000/svg">
<path d="M226.707 1.70711C227.098 1.31658 227.098 0.683417 226.707 0.292893C226.317 -0.0976311 225.683 -0.0976311 225.293 0.292893L226 1L226.707 1.70711ZM212.34 20.29L213.323 20.4751L212.34 20.29ZM217.97 39.97L217.235 40.6476L217.97 39.97ZM238.98 45.65L239.533 44.8167L238.98 45.65ZM243.34 64.63L242.349 64.4989L243.34 64.63ZM216.05 78.98L216.42 79.909L216.05 78.98ZM175.04 85.66L174.903 84.6694L175.04 85.66ZM133.7 86.67L133.58 87.6627L133.7 86.67ZM38.03 90.66L38.3583 91.6046L38.03 90.66ZM14.03 96.99L13.7138 96.0413L14.03 96.99ZM7.7 98.99L7.97526 99.9514L7.7 98.99ZM0 101L11.1035 104.17L8.29663 92.9688L0 101ZM2.1742 101.486C2.70977 101.351 3.0346 100.808 2.89974 100.272C2.76488 99.7366 2.22139 99.4118 1.68582 99.5466L1.93001 100.516L2.1742 101.486ZM5.52332 98.5548C4.98993 98.698 4.67363 99.2465 4.81685 99.7799C4.96007 100.313 5.50857 100.63 6.04196 100.486L5.78264 99.5205L5.52332 98.5548ZM9.5828 99.4768C10.1112 99.3162 10.4094 98.7576 10.2488 98.2292C10.0882 97.7008 9.52961 97.4026 9.00119 97.5632L9.292 98.52L9.5828 99.4768ZM12.1418 96.5633C11.6173 96.7362 11.3322 97.3016 11.5051 97.8261C11.678 98.3507 12.2434 98.6357 12.7679 98.4628L12.4549 97.5131L12.1418 96.5633ZM17.2711 97.0365C17.8021 96.8845 18.1093 96.3309 17.9574 95.8C17.8055 95.269 17.2519 94.9617 16.7209 95.1136L16.996 96.075L17.2711 97.0365ZM22.7841 93.5671C22.2462 93.6924 21.9118 94.2301 22.0372 94.768C22.1626 95.3058 22.7002 95.6402 23.2381 95.5148L23.0111 94.541L22.7841 93.5671ZM29.2906 94.1286C29.8283 94.0027 30.1622 93.4648 30.0363 92.927C29.9104 92.3893 29.3725 92.0554 28.8347 92.1813L29.0626 93.1549L29.2906 94.1286ZM34.7916 90.6428C34.2616 90.7981 33.9578 91.3537 34.1131 91.8837C34.2685 92.4137 34.824 92.7174 35.354 92.5621L35.0728 91.6025L34.7916 90.6428ZM42.0893 90.703C42.6318 90.5996 42.9877 90.0759 42.8843 89.5334C42.7808 88.9909 42.2572 88.635 41.7147 88.7384L41.902 89.7207L42.0893 90.703ZM49.696 87.5146C49.1482 87.585 48.7612 88.086 48.8315 88.6338C48.9018 89.1816 49.4029 89.5687 49.9507 89.4984L49.8234 88.5065L49.696 87.5146ZM57.8798 88.5982C58.4292 88.5428 58.8298 88.0524 58.7743 87.5029C58.7189 86.9534 58.2284 86.5529 57.679 86.6084L57.7794 87.6033L57.8798 88.5982ZM65.6605 85.8829C65.11 85.9278 64.7002 86.4105 64.7452 86.9609C64.7901 87.5114 65.2728 87.9212 65.8232 87.8763L65.7419 86.8796L65.6605 85.8829ZM73.8023 87.2915C74.3534 87.2556 74.771 86.7797 74.7351 86.2286C74.6991 85.6774 74.2232 85.2598 73.6721 85.2957L73.7372 86.2936L73.8023 87.2915ZM81.6752 84.836C81.1236 84.8634 80.6987 85.3328 80.7261 85.8844C80.7535 86.436 81.2229 86.8609 81.7745 86.8335L81.7249 85.8347L81.6752 84.836ZM89.7588 86.499C90.3107 86.4803 90.743 86.0176 90.7243 85.4657C90.7055 84.9137 90.2429 84.4814 89.6909 84.5002L89.7249 85.4996L89.7588 86.499ZM97.7134 84.2951C97.1612 84.3044 96.7211 84.7596 96.7305 85.3118C96.7398 85.864 97.195 86.3041 97.7472 86.2948L97.7303 85.2949L97.7134 84.2951ZM105.735 86.2348C106.287 86.2361 106.736 85.7895 106.737 85.2372C106.738 84.6849 106.292 84.2362 105.739 84.2348L105.737 85.2348L105.735 86.2348ZM113.764 84.3433C113.212 84.3293 112.753 84.7655 112.739 85.3176C112.725 85.8697 113.161 86.3286 113.713 86.3427L113.739 85.343L113.764 84.3433ZM121.692 86.6568C122.243 86.687 122.715 86.2643 122.745 85.7129C122.775 85.1614 122.352 84.6899 121.801 84.6598L121.746 85.6583L121.692 86.6568ZM129.826 85.2487C129.276 85.1967 128.788 85.6003 128.736 86.1502C128.684 86.7 129.088 87.1879 129.638 87.2398L129.732 86.2442L129.826 85.2487ZM137.056 88.0081C137.606 88.0525 138.089 87.6423 138.133 87.0918C138.178 86.5413 137.767 86.059 137.217 86.0146L137.136 87.0114L137.056 88.0081ZM144.06 86.3768C143.508 86.3609 143.047 86.7956 143.031 87.3476C143.015 87.8997 143.45 88.3601 144.002 88.376L144.031 87.3764L144.06 86.3768ZM150.952 88.435C151.504 88.429 151.947 87.9765 151.941 87.4242C151.935 86.872 151.483 86.4291 150.93 86.4351L150.941 87.435L150.952 88.435ZM157.799 86.2366C157.248 86.2623 156.821 86.7305 156.847 87.2822C156.873 87.8338 157.341 88.2602 157.893 88.2344L157.846 87.2355L157.799 86.2366ZM164.821 87.7881C165.371 87.7428 165.781 87.2599 165.736 86.7095C165.69 86.159 165.207 85.7495 164.657 85.7948L164.739 86.7914L164.821 87.7881ZM171.495 85.1079C170.947 85.1732 170.555 85.6707 170.62 86.2191C170.686 86.7675 171.183 87.1592 171.732 87.0939L171.613 86.1009L171.495 85.1079ZM178.573 86.3083C179.124 86.2691 179.539 85.7906 179.499 85.2398C179.46 84.6889 178.982 84.2741 178.431 84.3134L178.502 85.3109L178.573 86.3083ZM185.416 83.9778C184.864 84.0013 184.435 84.4676 184.459 85.0194C184.482 85.5712 184.949 85.9995 185.501 85.976L185.458 84.9769L185.416 83.9778ZM192.498 85.546C193.048 85.4974 193.455 85.0121 193.406 84.4619C193.358 83.9118 192.872 83.5052 192.322 83.5538L192.41 84.5499L192.498 85.546ZM199.152 82.6941C198.607 82.7851 198.239 83.3004 198.33 83.8452C198.421 84.3899 198.936 84.7578 199.481 84.6668L199.316 83.6805L199.152 82.6941ZM206.379 83.2044C206.914 83.0663 207.235 82.5208 207.097 81.9861C206.959 81.4514 206.414 81.1299 205.879 81.268L206.129 82.2362L206.379 83.2044ZM212.456 79.2609C211.935 79.4444 211.662 80.0154 211.845 80.5363C212.029 81.0573 212.6 81.3308 213.121 81.1473L212.789 80.2041L212.456 79.2609ZM220.175 78.6354C220.705 78.479 221.007 77.9228 220.851 77.3931C220.694 76.8634 220.138 76.5608 219.609 76.7172L219.892 77.6763L220.175 78.6354ZM227.49 74.6384C226.956 74.778 226.636 75.3243 226.775 75.8587C226.915 76.393 227.461 76.7131 227.996 76.5735L227.743 75.606L227.49 74.6384ZM235.862 74.0539C236.371 73.8378 236.607 73.2506 236.391 72.7423C236.175 72.2341 235.588 71.9973 235.08 72.2134L235.471 73.1336L235.862 74.0539ZM241.098 67.8374C240.789 68.2949 240.909 68.9165 241.366 69.2259C241.824 69.5353 242.445 69.4152 242.755 68.9577L241.926 68.3975L241.098 67.8374ZM244.879 59.5754C244.911 59.024 244.49 58.5512 243.939 58.5193C243.387 58.4875 242.914 58.9086 242.883 59.4599L243.881 59.5177L244.879 59.5754ZM241.448 49.9196C241.699 50.412 242.3 50.6084 242.793 50.3583C243.285 50.1082 243.482 49.5063 243.232 49.0139L242.34 49.4667L241.448 49.9196ZM233.509 43.8931C232.957 43.884 232.501 44.3242 232.492 44.8764C232.483 45.4286 232.923 45.8837 233.476 45.8928L233.492 44.893L233.509 43.8931ZM222.107 44.0951C222.613 44.3166 223.203 44.086 223.424 43.5801C223.646 43.0742 223.415 42.4845 222.91 42.263L222.508 43.179L222.107 44.0951ZM215.793 35.1811C215.528 34.6962 214.921 34.5175 214.436 34.7818C213.951 35.0462 213.772 35.6536 214.037 36.1385L214.915 35.6598L215.793 35.1811ZM211.006 25.6199C211.037 26.1713 211.509 26.593 212.061 26.5618C212.612 26.5305 213.034 26.0582 213.002 25.5068L212.004 25.5634L211.006 25.6199ZM215.396 15.2505C215.672 14.7717 215.507 14.1604 215.028 13.8852C214.549 13.61 213.938 13.775 213.662 14.2539L214.529 14.7522L215.396 15.2505ZM221.111 4.62963C220.736 5.0355 220.762 5.66816 221.167 6.04271C221.573 6.41725 222.206 6.39186 222.581 5.98599L221.846 5.30781L221.111 4.62963ZM5.78264 99.5205L6.04196 100.486C6.70357 100.309 7.34948 100.131 7.97526 99.9514L7.7 98.99L7.42474 98.0286C6.8116 98.2042 6.17655 98.3794 5.52332 98.5548L5.78264 99.5205ZM7.7 98.99L7.97526 99.9514C8.52961 99.7926 9.06379 99.6345 9.5828 99.4768L9.292 98.52L9.00119 97.5632C8.49177 97.718 7.96797 97.8731 7.42474 98.0286L7.7 98.99ZM12.4549 97.5131L12.7679 98.4628C13.2974 98.2883 13.8217 98.1135 14.3462 97.9387L14.03 96.99L13.7138 96.0413C13.1887 96.2163 12.6676 96.39 12.1418 96.5633L12.4549 97.5131ZM14.03 96.99L14.3462 97.9387C15.3147 97.6158 16.2902 97.3171 17.2711 97.0365L16.996 96.075L16.7209 95.1136C15.7164 95.401 14.7132 95.7082 13.7138 96.0413L14.03 96.99ZM23.0111 94.541L23.2381 95.5148C25.1977 95.0581 27.3374 94.5858 29.2906 94.1286L29.0626 93.1549L28.8347 92.1813C26.7825 92.6617 24.8764 93.0793 22.7841 93.5671L23.0111 94.541ZM35.0728 91.6025L35.354 92.5621C36.3637 92.2662 37.3661 91.9494 38.3583 91.6046L38.03 90.66L37.7017 89.7154C36.7451 90.0479 35.7745 90.3548 34.7916 90.6428L35.0728 91.6025ZM38.03 90.66L38.3583 91.6046C39.1466 91.3306 40.4013 91.0249 42.0893 90.703L41.902 89.7207L41.7147 88.7384C40.0038 89.0647 38.6325 89.392 37.7017 89.7154L38.03 90.66ZM49.8234 88.5065L49.9507 89.4984C52.342 89.1914 55.0036 88.8885 57.8798 88.5982L57.7794 87.6033L57.679 86.6084C54.7876 86.9001 52.1078 87.205 49.696 87.5146L49.8234 88.5065ZM65.7419 86.8796L65.8232 87.8763C68.3873 87.6669 71.0566 87.4706 73.8023 87.2915L73.7372 86.2936L73.6721 85.2957C70.9157 85.4755 68.2356 85.6727 65.6605 85.8829L65.7419 86.8796ZM81.7249 85.8347L81.7745 86.8335C84.4022 86.7028 87.071 86.5902 89.7588 86.499L89.7249 85.4996L89.6909 84.5002C86.9923 84.5918 84.313 84.7048 81.6752 84.836L81.7249 85.8347ZM97.7303 85.2949L97.7472 86.2948C100.42 86.2495 103.09 86.2285 105.735 86.2348L105.737 85.2348L105.739 84.2348C103.081 84.2285 100.398 84.2496 97.7134 84.2951L97.7303 85.2949ZM113.739 85.343L113.713 86.3427C116.434 86.4119 119.102 86.5153 121.692 86.6568L121.746 85.6583L121.801 84.6598C119.189 84.5171 116.502 84.413 113.764 84.3433L113.739 85.343ZM129.732 86.2442L129.638 87.2398C130.987 87.3673 132.303 87.5081 133.58 87.6627L133.7 86.67L133.82 85.6773C132.524 85.5203 131.191 85.3777 129.826 85.2487L129.732 86.2442ZM133.7 86.67L133.58 87.6627C134.629 87.7898 135.791 87.9061 137.056 88.0081L137.136 87.0114L137.217 86.0146C135.975 85.9145 134.839 85.8007 133.82 85.6773L133.7 86.67ZM144.031 87.3764L144.002 88.376C146.169 88.4384 148.496 88.4615 150.952 88.435L150.941 87.435L150.93 86.4351C148.5 86.4613 146.199 86.4385 144.06 86.3768L144.031 87.3764ZM157.846 87.2355L157.893 88.2344C160.136 88.1295 162.452 87.9828 164.821 87.7881L164.739 86.7914L164.657 85.7948C162.312 85.9876 160.02 86.1328 157.799 86.2366L157.846 87.2355ZM171.613 86.1009L171.732 87.0939C172.873 86.958 174.022 86.8104 175.177 86.6506L175.04 85.66L174.903 84.6694C173.761 84.8276 172.624 84.9735 171.495 85.1079L171.613 86.1009ZM175.04 85.66L175.177 86.6506C176.259 86.5009 177.388 86.3928 178.573 86.3083L178.502 85.3109L178.431 84.3134C177.217 84.3999 176.041 84.5119 174.903 84.6694L175.04 85.66ZM185.458 84.9769L185.501 85.976C187.688 85.8829 190.019 85.765 192.498 85.546L192.41 84.5499L192.322 83.5538C189.888 83.7688 187.593 83.8851 185.416 83.9778L185.458 84.9769ZM199.316 83.6805L199.481 84.6668C201.678 84.3 203.976 83.8254 206.379 83.2044L206.129 82.2362L205.879 81.268C203.536 81.8735 201.295 82.3362 199.152 82.6941L199.316 83.6805ZM212.789 80.2041L213.121 81.1473C214.201 80.7667 215.301 80.3549 216.42 79.909L216.05 78.98L215.68 78.051C214.586 78.4869 213.511 78.8893 212.456 79.2609L212.789 80.2041ZM216.05 78.98L216.42 79.909C217.588 79.4437 218.85 79.0267 220.175 78.6354L219.892 77.6763L219.609 76.7172C218.247 77.1193 216.923 77.5557 215.68 78.051L216.05 78.98ZM227.743 75.606L227.996 76.5735C230.731 75.8592 233.455 75.0776 235.862 74.0539L235.471 73.1336L235.08 72.2134C232.816 73.176 230.212 73.9275 227.49 74.6384L227.743 75.606ZM241.926 68.3975L242.755 68.9577C243.573 67.7481 244.12 66.3586 244.331 64.7611L243.34 64.63L242.349 64.4989C242.178 65.7881 241.743 66.8839 241.098 67.8374L241.926 68.3975ZM243.34 64.63L244.331 64.7611C244.516 63.3636 244.765 61.5465 244.879 59.5754L243.881 59.5177L242.883 59.4599C242.774 61.3448 242.535 63.088 242.349 64.4989L243.34 64.63ZM242.34 49.4667L243.232 49.0139C242.406 47.3882 241.214 45.9319 239.533 44.8167L238.98 45.65L238.427 46.4833C239.789 47.3864 240.761 48.5656 241.448 49.9196L242.34 49.4667ZM238.98 45.65L239.533 44.8167C238.807 44.3354 237.843 44.1392 236.879 44.0372C235.889 43.9324 234.725 43.9133 233.509 43.8931L233.492 44.893L233.476 45.8928C234.718 45.9135 235.785 45.9326 236.668 46.0261C237.576 46.1222 238.127 46.2841 238.427 46.4833L238.98 45.65ZM222.508 43.179L222.91 42.263C221.386 41.5961 219.955 40.6484 218.705 39.2924L217.97 39.97L217.235 40.6476C218.693 42.2304 220.361 43.3306 222.107 44.0951L222.508 43.179ZM217.97 39.97L218.705 39.2924C217.651 38.1478 216.652 36.7577 215.793 35.1811L214.915 35.6598L214.037 36.1385C214.97 37.8496 216.062 39.3751 217.235 40.6476L217.97 39.97ZM212.004 25.5634L213.002 25.5068C212.909 23.8635 213.002 22.1755 213.323 20.4751L212.34 20.29L211.357 20.1049C211.005 21.9733 210.904 23.8239 211.006 25.6199L212.004 25.5634ZM212.34 20.29L213.323 20.4751C213.626 18.8638 214.312 17.1375 215.396 15.2505L214.529 14.7522L213.662 14.2539C212.501 16.275 211.713 18.214 211.357 20.1049L212.34 20.29ZM221.846 5.30781L222.581 5.98599C223.838 4.62367 225.214 3.20006 226.707 1.70711L226 1L225.293 0.292893C223.786 1.80025 222.39 3.24348 221.111 4.62963L221.846 5.30781Z" fill="#401D26"/>
</svg>
