<svg width="22" height="22" viewBox="0 0 22 22" fill="none" xmlns="http://www.w3.org/2000/svg">
<path d="M2.44444 4.44026C1.79614 4.44026 1.17438 4.70055 0.715961 5.16388C0.257539 5.6272 0 6.2556 0 6.91085V19.2638C0 19.919 0.257539 20.5474 0.715961 21.0108C1.17438 21.4741 1.79614 21.7344 2.44444 21.7344H19.5556C20.2039 21.7344 20.8256 21.4741 21.284 21.0108C21.7425 20.5474 22 19.919 22 19.2638V6.91085C22 6.2556 21.7425 5.6272 21.284 5.16388C20.8256 4.70055 20.2039 4.44026 19.5556 4.44026H2.44444ZM2.44444 18.0285L6.72222 12.4697L9.77778 16.1756L14.0556 10.6167L19.5556 18.0285H2.44444ZM18.3333 0.734375C18.9816 0.734375 19.6034 0.994668 20.0618 1.45799C20.5202 1.92132 20.7778 2.54972 20.7778 3.20496H1.22222C1.22222 2.54972 1.47976 1.92132 1.93818 1.45799C2.39661 0.994668 3.01836 0.734375 3.66667 0.734375H18.3333Z" fill="#EAF1EA"/>
</svg>
