<svg width="181" height="403" viewBox="0 0 181 403" fill="none" xmlns="http://www.w3.org/2000/svg">
<path d="M179.956 3.99908C180.508 4.02344 180.975 3.5959 180.999 3.04416C181.023 2.49241 180.596 2.02538 180.044 2.00102L180 3.00005L179.956 3.99908ZM48.0399 7.31005L48.3985 8.24354L48.0399 7.31005ZM30.0399 26.59L30.8886 27.1189L30.0399 26.59ZM32.3099 55.96L31.4257 56.4271L32.3099 55.96ZM93.5099 65.33L93.5342 64.3303L93.5099 65.33ZM105.97 67.65L105.418 68.484L105.97 67.65ZM115.98 79.3L115.128 79.8244L115.98 79.3ZM119.34 101.6L118.342 101.529L119.34 101.6ZM93.3699 131.65L93.902 132.497L93.3699 131.65ZM58.7199 147.64L58.326 146.721L58.7199 147.64ZM7.7099 209.89L6.8333 209.409L7.7099 209.89ZM2.3299 269.27L3.32969 269.291L2.3299 269.27ZM37.5999 347.25L38.4195 346.677L37.5999 347.25ZM65.9699 380.98L66.6046 380.207L65.9699 380.98ZM97.6299 392.65L98.0248 391.731L98.0041 391.722L97.983 391.714L97.6299 392.65ZM114 403L111.429 391.743L102.966 399.597L114 403ZM112.587 400.008C112.2 399.615 111.566 399.611 111.173 399.998C110.78 400.386 110.775 401.019 111.163 401.412L111.875 400.71L112.587 400.008ZM106.554 397.581C107.024 397.872 107.64 397.727 107.931 397.258C108.222 396.789 108.077 396.172 107.607 395.881L107.081 396.731L106.554 397.581ZM103.007 393.708C102.493 393.505 101.912 393.756 101.709 394.269C101.505 394.783 101.756 395.364 102.27 395.567L102.638 394.638L103.007 393.708ZM98.9207 394.264C99.4339 394.469 100.015 394.218 100.22 393.705C100.424 393.192 100.173 392.61 99.6601 392.406L99.2904 393.335L98.9207 394.264ZM93.8778 390.361C93.3477 390.206 92.7923 390.51 92.6374 391.04C92.4825 391.57 92.7866 392.125 93.3167 392.28L93.5972 391.321L93.8778 390.361ZM85.1309 390.144C85.6663 390.28 86.2101 389.955 86.3455 389.42C86.4809 388.884 86.1566 388.341 85.6212 388.205L85.376 389.175L85.1309 390.144ZM77.5289 385.896C77.0059 385.719 76.438 385.999 76.2606 386.522C76.0831 387.045 76.3632 387.613 76.8862 387.79L77.2076 386.843L77.5289 385.896ZM68.9485 384.263C69.4244 384.543 70.0374 384.384 70.3176 383.908C70.5977 383.432 70.439 382.82 69.9631 382.539L69.4558 383.401L68.9485 384.263ZM63.8923 377.818C63.4889 377.441 62.8561 377.462 62.4789 377.865C62.1017 378.269 62.123 378.901 62.5264 379.279L63.2093 378.548L63.8923 377.818ZM57.308 373.982C57.6822 374.388 58.3148 374.414 58.721 374.04C59.1272 373.665 59.1532 373.033 58.779 372.627L58.0435 373.304L57.308 373.982ZM53.9507 367.125C53.5953 366.702 52.9645 366.648 52.5418 367.003C52.1191 367.359 52.0646 367.989 52.42 368.412L53.1854 367.768L53.9507 367.125ZM47.7563 362.672C48.0979 363.106 48.7267 363.181 49.1606 362.839C49.5946 362.497 49.6695 361.869 49.3279 361.435L48.5421 362.053L47.7563 362.672ZM44.8666 355.61C44.5362 355.168 43.9095 355.077 43.467 355.407C43.0244 355.738 42.9335 356.364 43.2639 356.807L44.0652 356.209L44.8666 355.61ZM38.9102 350.839C39.231 351.289 39.8555 351.393 40.3051 351.072C40.7547 350.752 40.8591 350.127 40.5383 349.678L39.7243 350.258L38.9102 350.839ZM35.963 343.121C35.6516 342.664 35.0295 342.547 34.5733 342.858C34.1171 343.17 33.9997 343.792 34.311 344.248L35.137 343.684L35.963 343.121ZM29.4977 337.018C29.7983 337.481 30.4176 337.613 30.8809 337.312C31.3442 337.012 31.4762 336.392 31.1756 335.929L30.3367 336.473L29.4977 337.018ZM26.5641 328.621C26.2754 328.151 25.6597 328.003 25.1889 328.292C24.718 328.58 24.5703 329.196 24.859 329.667L25.7115 329.144L26.5641 328.621ZM20.4195 322.193C20.6946 322.672 21.3058 322.837 21.7847 322.562C22.2636 322.287 22.4288 321.676 22.1537 321.197L21.2866 321.695L20.4195 322.193ZM17.9758 313.645C17.7167 313.158 17.1112 312.972 16.6235 313.232C16.1358 313.491 15.9505 314.096 16.2097 314.584L17.0927 314.115L17.9758 313.645ZM12.2733 306.822C12.513 307.32 13.1106 307.529 13.6082 307.289C14.1057 307.049 14.3148 306.452 14.0751 305.954L13.1742 306.388L12.2733 306.822ZM10.5199 298.105C10.305 297.597 9.71835 297.358 9.20958 297.573C8.70082 297.788 8.46257 298.375 8.67745 298.883L9.59866 298.494L10.5199 298.105ZM5.53202 290.742C5.71326 291.264 6.28311 291.54 6.80481 291.358C7.32651 291.177 7.6025 290.607 7.42126 290.086L6.47664 290.414L5.53202 290.742ZM4.96345 281.876C4.83157 281.34 4.28989 281.012 3.75358 281.144C3.21728 281.276 2.88943 281.817 3.02131 282.354L3.99238 282.115L4.96345 281.876ZM1.50307 273.681C1.5542 274.231 2.04143 274.635 2.59135 274.584C3.14126 274.533 3.54561 274.046 3.49449 273.496L2.49878 273.589L1.50307 273.681ZM3.33564 265.489C3.32761 264.936 2.87343 264.495 2.32121 264.503C1.76898 264.511 1.32782 264.965 1.33585 265.518L2.33575 265.503L3.33564 265.489ZM1.08585 258.01C1.11063 258.561 1.57798 258.988 2.12971 258.964C2.68144 258.939 3.10861 258.472 3.08384 257.92L2.08484 257.965L1.08585 258.01ZM2.74339 250.388C2.7209 249.836 2.25533 249.407 1.7035 249.429C1.15167 249.452 0.722562 249.918 0.745051 250.469L1.74422 250.429L2.74339 250.388ZM0.535401 242.899C0.541231 243.451 0.993647 243.894 1.5459 243.888C2.09816 243.882 2.54112 243.43 2.53529 242.878L1.53534 242.888L0.535401 242.899ZM2.64669 235.391C2.67137 234.84 2.24411 234.372 1.69238 234.348C1.14064 234.323 0.673367 234.75 0.648686 235.302L1.64769 235.347L2.64669 235.391ZM1.2884 227.705C1.21764 228.252 1.60431 228.754 2.15204 228.825C2.69978 228.895 3.20116 228.509 3.27192 227.961L2.28016 227.833L1.2884 227.705ZM4.63313 220.668C4.7682 220.132 4.44358 219.589 3.90807 219.453C3.37256 219.318 2.82894 219.643 2.69387 220.178L3.6635 220.423L4.63313 220.668ZM5.13936 212.883C4.92085 213.39 5.1549 213.979 5.66212 214.197C6.16934 214.416 6.75766 214.182 6.97616 213.674L6.05776 213.279L5.13936 212.883ZM10.5632 206.814C10.834 206.333 10.6633 205.723 10.182 205.452C9.70067 205.182 9.09094 205.352 8.82014 205.834L9.69167 206.324L10.5632 206.814ZM12.9076 198.751C12.6261 199.226 12.7832 199.84 13.2584 200.121C13.7336 200.403 14.3469 200.246 14.6284 199.77L13.768 199.261L12.9076 198.751ZM18.8533 192.83C19.1464 192.361 19.0045 191.744 18.5364 191.451C18.0683 191.158 17.4512 191.3 17.1581 191.768L18.0057 192.299L18.8533 192.83ZM21.5945 184.893C21.2885 185.352 21.4131 185.973 21.8728 186.279C22.3326 186.585 22.9534 186.46 23.2594 186.001L22.4269 185.447L21.5945 184.893ZM27.8664 179.311C28.1872 178.862 28.0828 178.237 27.6332 177.916C27.1837 177.596 26.5592 177.7 26.2384 178.149L27.0524 178.73L27.8664 179.311ZM31.1222 171.572C30.7841 172.009 30.8639 172.637 31.3005 172.975C31.7372 173.313 32.3653 173.234 32.7035 172.797L31.9128 172.185L31.1222 171.572ZM37.8151 166.509C38.1745 166.09 38.1257 165.459 37.7063 165.099C37.2869 164.74 36.6556 164.789 36.2963 165.208L37.0557 165.859L37.8151 166.509ZM41.8296 159.144C41.4434 159.538 41.4503 160.171 41.8451 160.558C42.2399 160.944 42.873 160.937 43.2592 160.542L42.5444 159.843L41.8296 159.144ZM49.1465 155.042C49.5691 154.686 49.6235 154.055 49.2679 153.633C48.9123 153.21 48.2815 153.156 47.8589 153.511L48.5027 154.276L49.1465 155.042ZM54.593 148.641C54.1185 148.923 53.9629 149.537 54.2454 150.012C54.528 150.486 55.1417 150.642 55.6163 150.359L55.1046 149.5L54.593 148.641ZM63.5077 146.707C64.0178 146.495 64.2595 145.91 64.0476 145.4C63.8358 144.89 63.2506 144.648 62.7406 144.86L63.1241 145.783L63.5077 146.707ZM71.5809 141.236C71.07 141.446 70.8261 142.03 71.036 142.541C71.2459 143.052 71.8301 143.296 72.341 143.086L71.9609 142.161L71.5809 141.236ZM81.1559 139.306C81.6582 139.076 81.8793 138.483 81.6497 137.981C81.4201 137.478 80.8268 137.257 80.3245 137.487L80.7402 138.396L81.1559 139.306ZM88.7746 133.22C88.2932 133.49 88.1222 134.1 88.3929 134.581C88.6635 135.063 89.2731 135.234 89.7546 134.963L89.2646 134.091L88.7746 133.22ZM96.7932 130.629C97.2531 130.323 97.3781 129.702 97.0723 129.242C96.7666 128.782 96.1459 128.657 95.686 128.963L96.2396 129.796L96.7932 130.629ZM101.216 125.047C100.776 125.38 100.689 126.007 101.023 126.448C101.356 126.888 101.984 126.974 102.424 126.641L101.82 125.844L101.216 125.047ZM107.77 122.251C108.181 121.882 108.216 121.25 107.848 120.839C107.479 120.427 106.847 120.393 106.435 120.761L107.103 121.506L107.77 122.251ZM111.186 116.012C110.821 116.426 110.86 117.058 111.274 117.424C111.688 117.79 112.32 117.75 112.685 117.337L111.936 116.674L111.186 116.012ZM116.877 111.721C117.164 111.248 117.013 110.633 116.541 110.347C116.069 110.06 115.454 110.21 115.167 110.683L116.022 111.202L116.877 111.721ZM117.801 104.707C117.658 105.24 117.974 105.788 118.508 105.931C119.041 106.074 119.59 105.758 119.733 105.224L118.767 104.965L117.801 104.707ZM120.526 95.8779C120.522 95.3257 120.07 94.8817 119.518 94.8862C118.966 94.8908 118.522 95.3422 118.526 95.8944L119.526 95.8862L120.526 95.8779ZM117.196 84.8278C117.341 85.3605 117.891 85.6741 118.424 85.5284C118.957 85.3826 119.27 84.8326 119.125 84.2999L118.16 84.5639L117.196 84.8278ZM114.718 75.481C114.408 75.0238 113.786 74.9043 113.329 75.2141C112.872 75.524 112.752 76.1457 113.062 76.6029L113.89 76.042L114.718 75.481ZM108.295 70.7947C108.695 71.1756 109.328 71.1602 109.709 70.7602C110.09 70.3603 110.074 69.7273 109.674 69.3464L108.985 70.0706L108.295 70.7947ZM103.349 65.333C102.818 65.1813 102.265 65.4888 102.113 66.0199C101.961 66.5509 102.269 67.1044 102.8 67.2561L103.075 66.2945L103.349 65.333ZM96.6688 66.4499C97.2203 66.4799 97.6916 66.0571 97.7216 65.5057C97.7516 64.9542 97.3288 64.4828 96.7774 64.4529L96.7231 65.4514L96.6688 66.4499ZM89.5587 64.2349C89.0066 64.2218 88.5484 64.6587 88.5352 65.2109C88.5221 65.763 88.9591 66.2212 89.5112 66.2344L89.535 65.2346L89.5587 64.2349ZM81.5554 66.0445C82.1075 66.0579 82.566 65.6213 82.5794 65.0691C82.5929 64.517 82.1562 64.0585 81.6041 64.0451L81.5797 65.0448L81.5554 66.0445ZM73.6649 63.8387C73.1128 63.8231 72.6526 64.2579 72.637 64.81C72.6213 65.3621 73.0562 65.8223 73.6082 65.8379L73.6366 64.8383L73.6649 63.8387ZM65.6537 65.5774C66.2055 65.5987 66.6702 65.1686 66.6914 64.6167C66.7127 64.0648 66.2826 63.6002 65.7307 63.5789L65.6922 64.5782L65.6537 65.5774ZM57.8197 63.196C57.2685 63.1622 56.7943 63.5817 56.7605 64.133C56.7268 64.6842 57.1463 65.1585 57.6975 65.1922L57.7586 64.1941L57.8197 63.196ZM49.7282 64.5284C50.2771 64.5903 50.7721 64.1955 50.8339 63.6467C50.8958 63.0979 50.501 62.6028 49.9522 62.541L49.8402 63.5347L49.7282 64.5284ZM42.2556 61.2435C41.7198 61.1094 41.1768 61.4351 41.0427 61.9708C40.9086 62.5066 41.2342 63.0496 41.77 63.1837L42.0128 62.2136L42.2556 61.2435ZM34.1877 59.7788C34.6164 60.127 35.2462 60.0617 35.5943 59.633C35.9425 59.2043 35.8772 58.5745 35.4485 58.2263L34.8181 59.0025L34.1877 59.7788ZM31.4895 52.0829C31.2571 51.582 30.6625 51.3643 30.1615 51.5968C29.6605 51.8292 29.4429 52.4238 29.6754 52.9248L30.5824 52.5039L31.4895 52.0829ZM26.942 45.5065C27.083 46.0404 27.6303 46.3589 28.1642 46.2179C28.6982 46.0768 29.0167 45.5296 28.8756 44.9956L27.9088 45.251L26.942 45.5065ZM27.8887 37.6169C27.8945 37.0646 27.4514 36.6123 26.8992 36.6066C26.3469 36.6008 25.8946 37.0439 25.8888 37.5961L26.8888 37.6065L27.8887 37.6169ZM27.3751 29.6826C27.175 30.1973 27.4301 30.7768 27.9449 30.9769C28.4596 31.177 29.0391 30.9219 29.2392 30.4072L28.3072 30.0449L27.3751 29.6826ZM32.6777 24.3176C32.9806 23.8558 32.8517 23.2359 32.3899 22.933C31.928 22.6301 31.3081 22.759 31.0053 23.2208L31.8415 23.7692L32.6777 24.3176ZM34.8831 17.687C34.55 18.1275 34.637 18.7547 35.0774 19.0878C35.5179 19.421 36.1451 19.334 36.4782 18.8935L35.6807 18.2903L34.8831 17.687ZM40.7124 13.8655C41.0945 13.4667 41.0811 12.8337 40.6823 12.4516C40.2836 12.0694 39.6506 12.0829 39.2684 12.4816L39.9904 13.1736L40.7124 13.8655ZM44.5313 8.0056C44.0677 8.30572 43.9352 8.92486 44.2353 9.38848C44.5354 9.8521 45.1546 9.98463 45.6182 9.6845L45.0747 8.84505L44.5313 8.0056ZM52.24 6.93189C52.7687 6.77237 53.068 6.21442 52.9085 5.68567C52.749 5.15693 52.191 4.85761 51.6623 5.01713L51.9511 5.97451L52.24 6.93189ZM59.8347 3.07024C59.2917 3.17094 58.9331 3.69279 59.0338 4.23581C59.1345 4.77884 59.6564 5.13741 60.1994 5.03671L60.017 4.05347L59.8347 3.07024ZM68.3104 3.83302C68.8589 3.7687 69.2514 3.27188 69.1871 2.72336C69.1228 2.17483 68.626 1.78231 68.0774 1.84663L68.1939 2.83983L68.3104 3.83302ZM76.3681 1.06363C75.8173 1.10478 75.4042 1.58461 75.4454 2.13536C75.4865 2.68611 75.9664 3.09922 76.5171 3.05807L76.4426 2.06085L76.3681 1.06363ZM84.7634 2.56658C85.3151 2.54107 85.7417 2.07314 85.7161 1.52145C85.6906 0.969753 85.2227 0.543202 84.671 0.568719L84.7172 1.56765L84.7634 2.56658ZM92.9806 0.272737C92.4285 0.287121 91.9926 0.746345 92.007 1.29844C92.0214 1.85054 92.4806 2.28644 93.0327 2.27206L93.0067 1.2724L92.9806 0.272737ZM101.293 2.12157C101.845 2.11545 102.288 1.6628 102.282 1.11055C102.276 0.558303 101.823 0.115573 101.271 0.12169L101.282 1.12163L101.293 2.12157ZM109.557 0.0796779C109.005 0.0794202 108.557 0.526927 108.557 1.07921C108.556 1.6315 109.004 2.07942 109.556 2.07968L109.557 1.07968L109.557 0.0796779ZM117.861 2.12313C118.413 2.12847 118.865 1.6851 118.871 1.13284C118.876 0.580578 118.433 0.128559 117.88 0.123224L117.871 1.12318L117.861 2.12313ZM126.143 0.234674C125.591 0.225247 125.136 0.665255 125.126 1.21746C125.117 1.76966 125.557 2.22496 126.109 2.23438L126.126 1.23453L126.143 0.234674ZM134.405 2.40236C134.958 2.41519 135.416 1.978 135.428 1.42587C135.441 0.873731 135.004 0.415735 134.452 0.402904L134.429 1.40263L134.405 2.40236ZM142.747 0.617728C142.195 0.602042 141.735 1.03686 141.719 1.58892C141.703 2.14098 142.138 2.60124 142.69 2.61692L142.719 1.61733L142.747 0.617728ZM150.949 2.87021C151.501 2.88832 151.963 2.45553 151.981 1.90354C152 1.35155 151.567 0.889396 151.015 0.871285L150.982 1.87075L150.949 2.87021ZM159.293 1.15898C158.741 1.13878 158.277 1.56981 158.257 2.12173C158.237 2.67364 158.668 3.13744 159.22 3.15764L159.257 2.15831L159.293 1.15898ZM167.495 3.47454C168.047 3.49656 168.512 3.06705 168.534 2.51521C168.556 1.96336 168.127 1.49815 167.575 1.47613L167.535 2.47533L167.495 3.47454ZM175.857 1.81892C175.305 1.7953 174.838 2.22345 174.815 2.77523C174.791 3.32701 175.219 3.79347 175.771 3.81709L175.814 2.81801L175.857 1.81892ZM107.081 396.731L107.607 395.881C106.52 395.207 105.569 394.775 104.693 394.4L104.3 395.32L103.907 396.24C104.745 396.598 105.591 396.984 106.554 397.581L107.081 396.731ZM104.3 395.32L104.693 394.4C104.111 394.152 103.552 393.924 103.007 393.708L102.638 394.638L102.27 395.567C102.803 395.779 103.345 396 103.907 396.24L104.3 395.32ZM99.2904 393.335L99.6601 392.406C99.1277 392.194 98.5864 391.973 98.0248 391.731L97.6299 392.65L97.235 393.569C97.8172 393.819 98.3759 394.048 98.9207 394.264L99.2904 393.335ZM97.6299 392.65L97.983 391.714C96.6652 391.217 95.2891 390.773 93.8778 390.361L93.5972 391.321L93.3167 392.28C94.6949 392.683 96.0199 393.111 97.2768 393.586L97.6299 392.65ZM85.376 389.175L85.6212 388.205C82.8922 387.515 80.1628 386.79 77.5289 385.896L77.2076 386.843L76.8862 387.79C79.5996 388.711 82.3934 389.452 85.1309 390.144L85.376 389.175ZM69.4558 383.401L69.9631 382.539C68.7811 381.844 67.6572 381.072 66.6046 380.207L65.9699 380.98L65.3352 381.753C66.4764 382.69 67.687 383.52 68.9485 384.263L69.4558 383.401ZM65.9699 380.98L66.6046 380.207C65.7443 379.501 64.8389 378.703 63.8923 377.818L63.2093 378.548L62.5264 379.279C63.499 380.188 64.4367 381.015 65.3352 381.753L65.9699 380.98ZM58.0435 373.304L58.779 372.627C57.232 370.947 55.6184 369.108 53.9507 367.125L53.1854 367.768L52.42 368.412C54.1043 370.415 55.7379 372.277 57.308 373.982L58.0435 373.304ZM48.5421 362.053L49.3279 361.435C47.8672 359.579 46.3777 357.634 44.8666 355.61L44.0652 356.209L43.2639 356.807C44.7846 358.844 46.2845 360.802 47.7563 362.672L48.5421 362.053ZM39.7243 350.258L40.5383 349.678C39.8348 348.692 39.1283 347.691 38.4195 346.677L37.5999 347.25L36.7803 347.823C37.4927 348.842 38.2029 349.848 38.9102 350.839L39.7243 350.258ZM37.5999 347.25L38.4195 346.677C37.592 345.493 36.7729 344.307 35.963 343.121L35.137 343.684L34.311 344.248C35.1252 345.441 35.9485 346.633 36.7803 347.823L37.5999 347.25ZM30.3367 336.473L31.1756 335.929C29.5915 333.487 28.0522 331.049 26.5641 328.621L25.7115 329.144L24.859 329.667C26.3564 332.109 27.9047 334.562 29.4977 337.018L30.3367 336.473ZM21.2866 321.695L22.1537 321.197C20.6939 318.655 19.2988 316.135 17.9758 313.645L17.0927 314.115L16.2097 314.584C17.5436 317.094 18.9494 319.634 20.4195 322.193L21.2866 321.695ZM13.1742 306.388L14.0751 305.954C12.7889 303.284 11.6006 300.664 10.5199 298.105L9.59866 298.494L8.67745 298.883C9.77216 301.475 10.9742 304.126 12.2733 306.822L13.1742 306.388ZM6.47664 290.414L7.42126 290.086C6.43123 287.236 5.60695 284.493 4.96345 281.876L3.99238 282.115L3.02131 282.354C3.68175 285.039 4.52468 287.842 5.53202 290.742L6.47664 290.414ZM2.49878 273.589L3.49449 273.496C3.35811 272.029 3.30224 270.626 3.32969 269.291L2.3299 269.27L1.33011 269.25C1.30094 270.669 1.36054 272.148 1.50307 273.681L2.49878 273.589ZM2.3299 269.27L3.32969 269.291C3.35501 268.059 3.35456 266.789 3.33564 265.489L2.33575 265.503L1.33585 265.518C1.35451 266.8 1.35485 268.046 1.33011 269.25L2.3299 269.27ZM2.08484 257.965L3.08384 257.92C2.97354 255.464 2.84787 252.952 2.74339 250.388L1.74422 250.429L0.745051 250.469C0.849699 253.037 0.976225 255.568 1.08585 258.01L2.08484 257.965ZM1.53534 242.888L2.53529 242.878C2.50896 240.383 2.53536 237.88 2.64669 235.391L1.64769 235.347L0.648686 235.302C0.535341 237.836 0.508779 240.377 0.535401 242.899L1.53534 242.888ZM2.28016 227.833L3.27192 227.961C3.59284 225.477 4.03548 223.037 4.63313 220.668L3.6635 220.423L2.69387 220.178C2.07403 222.636 1.61785 225.154 1.2884 227.705L2.28016 227.833ZM6.05776 213.279L6.97616 213.674C7.46197 212.547 7.99727 211.445 8.5865 210.371L7.7099 209.89L6.8333 209.409C6.212 210.541 5.64904 211.7 5.13936 212.883L6.05776 213.279ZM7.7099 209.89L8.5865 210.371C9.24402 209.174 9.90302 207.988 10.5632 206.814L9.69167 206.324L8.82014 205.834C8.1565 207.013 7.49412 208.205 6.8333 209.409L7.7099 209.89ZM13.768 199.261L14.6284 199.77C16.035 197.395 17.4442 195.08 18.8533 192.83L18.0057 192.299L17.1581 191.768C15.74 194.034 14.3222 196.363 12.9076 198.751L13.768 199.261ZM22.4269 185.447L23.2594 186.001C24.7999 183.686 26.3368 181.455 27.8664 179.311L27.0524 178.73L26.2384 178.149C24.6955 180.311 23.1464 182.561 21.5945 184.893L22.4269 185.447ZM31.9128 172.185L32.7035 172.797C34.4241 170.575 36.1298 168.477 37.8151 166.509L37.0557 165.859L36.2963 165.208C34.5876 167.203 32.8612 169.327 31.1222 171.572L31.9128 172.185ZM42.5444 159.843L43.2592 160.542C45.267 158.49 47.2327 156.652 49.1465 155.042L48.5027 154.276L47.8589 153.511C45.8885 155.169 43.8755 157.052 41.8296 159.144L42.5444 159.843ZM55.1046 149.5L55.6163 150.359C56.8167 149.644 57.9835 149.044 59.1138 148.559L58.7199 147.64L58.326 146.721C57.1043 147.244 55.8589 147.887 54.593 148.641L55.1046 149.5ZM58.7199 147.64L59.1138 148.559C60.625 147.912 62.0873 147.297 63.5077 146.707L63.1241 145.783L62.7406 144.86C61.3148 145.452 59.8454 146.07 58.326 146.721L58.7199 147.64ZM71.9609 142.161L72.341 143.086C75.4015 141.828 78.3107 140.606 81.1559 139.306L80.7402 138.396L80.3245 137.487C77.5152 138.771 74.6346 139.981 71.5809 141.236L71.9609 142.161ZM89.2646 134.091L89.7546 134.963C91.1264 134.192 92.5052 133.374 93.902 132.497L93.3699 131.65L92.8378 130.803C91.4695 131.663 90.1188 132.464 88.7746 133.22L89.2646 134.091ZM93.3699 131.65L93.902 132.497C94.841 131.907 95.8085 131.283 96.7932 130.629L96.2396 129.796L95.686 128.963C94.7168 129.607 93.7637 130.222 92.8378 130.803L93.3699 131.65ZM101.82 125.844L102.424 126.641C104.24 125.264 106.045 123.797 107.77 122.251L107.103 121.506L106.435 120.761C104.757 122.265 102.996 123.698 101.216 125.047L101.82 125.844ZM111.936 116.674L112.685 117.337C114.27 115.543 115.696 113.666 116.877 111.721L116.022 111.202L115.167 110.683C114.059 112.508 112.709 114.289 111.186 116.012L111.936 116.674ZM118.767 104.965L119.733 105.224C120.045 104.057 120.252 102.872 120.337 101.671L119.34 101.6L118.342 101.529C118.267 102.594 118.083 103.654 117.801 104.707L118.767 104.965ZM119.34 101.6L120.337 101.671C120.478 99.684 120.542 97.7461 120.526 95.8779L119.526 95.8862L118.526 95.8944C118.541 97.7062 118.48 99.5913 118.342 101.529L119.34 101.6ZM118.16 84.5639L119.125 84.2999C118.552 82.2084 117.794 80.3397 116.831 78.7757L115.98 79.3L115.128 79.8244C115.968 81.1876 116.66 82.8698 117.196 84.8278L118.16 84.5639ZM115.98 79.3L116.831 78.7757C116.159 77.6839 115.459 76.5749 114.718 75.481L113.89 76.042L113.062 76.6029C113.78 77.6628 114.463 78.7444 115.128 79.8244L115.98 79.3ZM108.985 70.0706L109.674 69.3464C108.704 68.4222 107.658 67.568 106.522 66.8161L105.97 67.65L105.418 68.484C106.444 69.1629 107.398 69.9408 108.295 70.7947L108.985 70.0706ZM105.97 67.65L106.522 66.8161C105.641 66.2333 104.731 65.7278 103.349 65.333L103.075 66.2945L102.8 67.2561C103.932 67.5795 104.655 67.9791 105.418 68.484L105.97 67.65ZM96.7231 65.4514L96.7774 64.4529C95.8112 64.4003 94.7361 64.3595 93.5342 64.3303L93.5099 65.33L93.4856 66.3298C94.6717 66.3586 95.7264 66.3987 96.6688 66.4499L96.7231 65.4514ZM93.5099 65.33L93.5342 64.3303C92.1812 64.2975 90.8562 64.2658 89.5587 64.2349L89.535 65.2346L89.5112 66.2344C90.8085 66.2652 92.1331 66.2969 93.4856 66.3298L93.5099 65.33ZM81.5797 65.0448L81.6041 64.0451C78.8129 63.9771 76.169 63.9097 73.6649 63.8387L73.6366 64.8383L73.6082 65.8379C76.1161 65.909 78.763 65.9764 81.5554 66.0445L81.5797 65.0448ZM65.6922 64.5782L65.7307 63.5789C62.8747 63.4688 60.2433 63.3443 57.8197 63.196L57.7586 64.1941L57.6975 65.1922C60.1404 65.3418 62.7876 65.4669 65.6537 65.5774L65.6922 64.5782ZM49.8402 63.5347L49.9522 62.541C46.9382 62.2013 44.3956 61.7791 42.2556 61.2435L42.0128 62.2136L41.77 63.1837C44.0251 63.7481 46.6618 64.1828 49.7282 64.5284L49.8402 63.5347ZM34.8181 59.0025L35.4485 58.2263C34.4835 57.4426 33.7481 56.5417 33.1941 55.493L32.3099 55.96L31.4257 56.4271C32.1069 57.7167 33.0158 58.8271 34.1877 59.7788L34.8181 59.0025ZM32.3099 55.96L33.1941 55.493C32.6879 54.5347 32.0942 53.386 31.4895 52.0829L30.5824 52.5039L29.6754 52.9248C30.3011 54.2732 30.9129 55.4565 31.4257 56.4271L32.3099 55.96ZM27.9088 45.251L28.8756 44.9956C28.2583 42.6589 27.8623 40.1642 27.8887 37.6169L26.8888 37.6065L25.8888 37.5961C25.8601 40.3614 26.2898 43.0381 26.942 45.5065L27.9088 45.251ZM28.3072 30.0449L29.2392 30.4072C29.6683 29.3035 30.2121 28.2046 30.8886 27.1189L30.0399 26.59L29.1912 26.0612C28.4484 27.2534 27.8488 28.4639 27.3751 29.6826L28.3072 30.0449ZM30.0399 26.59L30.8886 27.1189C31.4857 26.1606 32.082 25.226 32.6777 24.3176L31.8415 23.7692L31.0053 23.2208C30.4003 24.1434 29.7956 25.0911 29.1912 26.0612L30.0399 26.59ZM35.6807 18.2903L36.4782 18.8935C37.8969 17.0178 39.3081 15.3308 40.7124 13.8655L39.9904 13.1736L39.2684 12.4816C37.7985 14.0154 36.3371 15.7646 34.8831 17.687L35.6807 18.2903ZM45.0747 8.84505L45.6182 9.6845C46.5565 9.07704 47.4832 8.59517 48.3985 8.24354L48.0399 7.31005L47.6813 6.37656C46.6176 6.78517 45.5677 7.33469 44.5313 8.0056L45.0747 8.84505ZM48.0399 7.31005L48.3985 8.24354C49.5893 7.78609 50.8601 7.34819 52.24 6.93189L51.9511 5.97451L51.6623 5.01713C50.2358 5.44752 48.9184 5.90132 47.6813 6.37656L48.0399 7.31005ZM60.017 4.05347L60.1994 5.03671C62.6057 4.59047 65.287 4.18755 68.3104 3.83302L68.1939 2.83983L68.0774 1.84663C65.0162 2.20561 62.2904 2.61483 59.8347 3.07024L60.017 4.05347ZM76.4426 2.06085L76.5171 3.05807C79.0638 2.8678 81.8049 2.70342 84.7634 2.56658L84.7172 1.56765L84.671 0.568719C81.6958 0.706331 78.9357 0.871802 76.3681 1.06363L76.4426 2.06085ZM93.0067 1.2724L93.0327 2.27206C95.6395 2.20414 98.3893 2.15373 101.293 2.12157L101.282 1.12163L101.271 0.12169C98.358 0.15395 95.5982 0.204539 92.9806 0.272737L93.0067 1.2724ZM109.557 1.07968L109.556 2.07968C112.21 2.08092 114.976 2.09526 117.861 2.12313L117.871 1.12318L117.88 0.123224C114.989 0.0952939 112.217 0.0809187 109.557 0.0796779L109.557 1.07968ZM126.126 1.23453L126.109 2.23438C128.781 2.28 131.545 2.3359 134.405 2.40236L134.429 1.40263L134.452 0.402904C131.588 0.33635 128.82 0.280363 126.143 0.234674L126.126 1.23453ZM142.719 1.61733L142.69 2.61692C145.365 2.69293 148.117 2.7773 150.949 2.87021L150.982 1.87075L151.015 0.871285C148.18 0.778284 145.425 0.693826 142.747 0.617728L142.719 1.61733ZM159.257 2.15831L159.22 3.15764C161.911 3.25614 164.669 3.36173 167.495 3.47454L167.535 2.47533L167.575 1.47613C164.746 1.36324 161.986 1.25757 159.293 1.15898L159.257 2.15831ZM175.814 2.81801L175.771 3.81709C177.151 3.87615 178.545 3.93681 179.956 3.99908L180 3.00005L180.044 2.00102C178.633 1.93872 177.237 1.87802 175.857 1.81892L175.814 2.81801Z" fill="#401D26"/>
</svg>
