<svg width="159" height="114" viewBox="0 0 159 114" fill="none" xmlns="http://www.w3.org/2000/svg">
<path d="M158.029 1.99959C158.581 1.98382 159.015 1.5235 159 0.97144C158.984 0.419381 158.523 -0.0153652 157.971 0.000407934L158 1L158.029 1.99959ZM84.68 13.28L85.6413 13.5554L84.68 13.28ZM85.98 24.28L85.1185 24.7877L85.98 24.28ZM130.92 37.99L130.841 38.9868L130.92 37.99ZM141.65 48.97L140.786 49.4743L141.65 48.97ZM143.34 60.97L142.353 60.8068L143.34 60.97ZM109.41 86.63L109.845 87.5306L109.41 86.63ZM33.83 105.64L33.9388 106.634L33.9762 106.63L34.0132 106.623L33.83 105.64ZM11.7 108.66L11.8438 109.65L11.885 109.644L11.9255 109.634L11.7 108.66ZM0 111L11.1839 113.873L8.0801 102.751L0 111ZM3.12847 111.165C3.66318 111.027 3.98464 110.481 3.84645 109.947C3.70826 109.412 3.16276 109.09 2.62804 109.229L2.87826 110.197L3.12847 111.165ZM8.60159 108.032C8.05419 108.106 7.66984 108.609 7.74312 109.156C7.8164 109.704 8.31957 110.088 8.86697 110.015L8.73428 109.023L8.60159 108.032ZM17.3391 108.632C17.8852 108.55 18.2612 108.041 18.1789 107.495C18.0966 106.948 17.5871 106.572 17.041 106.655L17.19 107.644L17.3391 108.632ZM28.1624 105.262C27.6136 105.323 27.2188 105.818 27.2806 106.367C27.3425 106.916 27.8375 107.311 28.3863 107.249L28.2744 106.255L28.1624 105.262ZM37.8565 105.906C38.3994 105.804 38.7571 105.282 38.6556 104.739C38.5541 104.196 38.0317 103.838 37.4888 103.94L37.6726 104.923L37.8565 105.906ZM45.166 102.496C44.6233 102.599 44.2667 103.122 44.3694 103.665C44.4721 104.207 44.9952 104.564 45.5379 104.461L45.3519 103.479L45.166 102.496ZM53.227 102.992C53.7692 102.888 54.1239 102.363 54.0192 101.821C53.9146 101.279 53.3901 100.924 52.8478 101.029L53.0374 102.011L53.227 102.992ZM60.5104 99.5275C59.9687 99.6354 59.6171 100.162 59.7251 100.704C59.833 101.245 60.3596 101.597 60.9012 101.489L60.7058 100.508L60.5104 99.5275ZM68.567 99.9265C69.1076 99.8134 69.4542 99.2835 69.3411 98.7429C69.2281 98.2023 68.6982 97.8558 68.1576 97.9688L68.3623 98.9476L68.567 99.9265ZM75.7783 96.3195C75.2395 96.4407 74.901 96.9757 75.0222 97.5146C75.1434 98.0534 75.6784 98.3919 76.2172 98.2708L75.9978 97.2951L75.7783 96.3195ZM83.8413 96.4676C84.3771 96.3336 84.7028 95.7906 84.5688 95.2548C84.4348 94.7191 83.8919 94.3933 83.3561 94.5273L83.5987 95.4974L83.8413 96.4676ZM90.8664 92.511C90.3359 92.6648 90.0306 93.2195 90.1844 93.7499C90.3382 94.2803 90.8929 94.5857 91.4233 94.4319L91.1448 93.4714L90.8664 92.511ZM98.9166 92.0463C99.4377 91.8634 99.7119 91.2927 99.529 90.7716C99.3462 90.2504 98.7755 89.9762 98.2543 90.1591L98.5854 91.1027L98.9166 92.0463ZM105.462 87.3408C104.955 87.5611 104.723 88.1502 104.943 88.6567C105.164 89.1631 105.753 89.3951 106.259 89.1748L105.86 88.2578L105.462 87.3408ZM113.144 85.9395C113.641 85.6994 113.849 85.1016 113.609 84.6042C113.369 84.1068 112.771 83.8983 112.274 84.1384L112.709 85.0389L113.144 85.9395ZM118.842 80.931C118.347 81.1771 118.146 81.7774 118.392 82.2719C118.638 82.7663 119.239 82.9676 119.733 82.7215L119.288 81.8263L118.842 80.931ZM126.273 79.3385C126.758 79.0746 126.937 78.4674 126.673 77.9822C126.409 77.4971 125.802 77.3177 125.317 77.5816L125.795 78.4601L126.273 79.3385ZM131.55 73.8995C131.088 74.2019 130.958 74.8217 131.261 75.2838C131.563 75.7459 132.183 75.8753 132.645 75.5729L132.097 74.7362L131.55 73.8995ZM138.575 70.9992C138.977 70.6199 138.995 69.987 138.615 69.5856C138.236 69.1842 137.603 69.1663 137.202 69.5456L137.888 70.2724L138.575 70.9992ZM141.354 64.0376C141.122 64.539 141.341 65.1332 141.842 65.3648C142.343 65.5965 142.938 65.3778 143.169 64.8764L142.262 64.457L141.354 64.0376ZM144.662 57.9365C144.684 57.3847 144.255 56.9193 143.703 56.8971C143.151 56.8749 142.686 57.3043 142.664 57.8561L143.663 57.8963L144.662 57.9365ZM141.953 52.0959C142.122 52.6217 142.685 52.911 143.211 52.742C143.737 52.5731 144.026 52.0099 143.857 51.4841L142.905 51.79L141.953 52.0959ZM140.65 44.932C140.393 44.4434 139.788 44.2559 139.3 44.5132C138.811 44.7706 138.623 45.3753 138.881 45.864L139.766 45.398L140.65 44.932ZM134.212 40.0576C134.683 40.3458 135.299 40.1976 135.587 39.7265C135.875 39.2554 135.727 38.6398 135.256 38.3516L134.734 39.2046L134.212 40.0576ZM126.893 36.703C126.342 36.6684 125.867 37.0872 125.832 37.6384C125.798 38.1896 126.216 38.6645 126.768 38.6991L126.83 37.701L126.893 36.703ZM118.591 38.2504C119.142 38.2798 119.613 37.8565 119.642 37.305C119.672 36.7535 119.248 36.2826 118.697 36.2533L118.644 37.2519L118.591 38.2504ZM110.559 35.7006C110.009 35.6493 109.522 36.0535 109.471 36.6034C109.419 37.1533 109.824 37.6406 110.373 37.692L110.466 36.6963L110.559 35.7006ZM102.148 36.4722C102.687 36.5929 103.222 36.2538 103.343 35.7149C103.463 35.1759 103.124 34.6412 102.585 34.5205L102.367 35.4964L102.148 36.4722ZM95.142 31.8722C94.6552 31.6113 94.0491 31.7946 93.7883 32.2814C93.5275 32.7682 93.7107 33.3743 94.1975 33.6351L94.6698 32.7536L95.142 31.8722ZM87.5731 28.2742C87.9287 28.6968 88.5596 28.751 88.9821 28.3953C89.4046 28.0397 89.4588 27.4088 89.1032 26.9863L88.3381 27.6303L87.5731 28.2742ZM85.7603 21.3792C85.5877 20.8545 85.0226 20.5691 84.4979 20.7416C83.9733 20.9142 83.6878 21.4793 83.8604 22.004L84.8103 21.6916L85.7603 21.3792ZM83.1707 15.9906C83.1243 16.5409 83.5327 17.0247 84.0831 17.0712C84.6334 17.1176 85.1172 16.7092 85.1636 16.1588L84.1672 16.0747L83.1707 15.9906ZM87.6088 11.2277C88.0611 10.9108 88.1708 10.2872 87.8539 9.83493C87.537 9.38262 86.9134 9.27288 86.4611 9.58981L87.0349 10.4088L87.6088 11.2277ZM93.6716 6.43375C93.1425 6.59229 92.8422 7.14968 93.0007 7.67872C93.1593 8.20776 93.7167 8.50811 94.2457 8.34957L93.9586 7.39166L93.6716 6.43375ZM101.523 6.61212C102.066 6.50731 102.42 5.98276 102.315 5.44051C102.211 4.89827 101.686 4.54366 101.144 4.64847L101.334 5.6303L101.523 6.61212ZM108.681 3.41078C108.134 3.48735 107.753 3.99282 107.83 4.53977C107.906 5.08672 108.412 5.46804 108.959 5.39147L108.82 4.40113L108.681 3.41078ZM116.453 4.47513C117.003 4.41648 117.4 3.92376 117.342 3.3746C117.283 2.82543 116.79 2.42779 116.241 2.48643L116.347 3.48078L116.453 4.47513ZM123.828 1.76893C123.278 1.81493 122.869 2.29838 122.915 2.84875C122.961 3.39912 123.445 3.80798 123.995 3.76198L123.912 2.76546L123.828 1.76893ZM131.535 3.19988C132.086 3.16335 132.503 2.687 132.466 2.13593C132.43 1.58485 131.954 1.16773 131.402 1.20426L131.469 2.20207L131.535 3.19988ZM138.986 0.754952C138.434 0.784032 138.01 1.2547 138.04 1.80622C138.069 2.35774 138.539 2.78126 139.091 2.75218L139.038 1.75356L138.986 0.754952ZM146.658 2.39612C147.21 2.37309 147.639 1.9071 147.616 1.35529C147.593 0.803488 147.127 0.374832 146.575 0.397862L146.617 1.39699L146.658 2.39612ZM154.17 0.116565C153.618 0.13456 153.185 0.596625 153.203 1.14862C153.221 1.70061 153.683 2.1335 154.235 2.1155L154.203 1.11603L154.17 0.116565ZM8.73428 109.023L8.86697 110.015C9.43799 109.938 9.94987 109.88 10.4374 109.825C10.9214 109.77 11.3866 109.716 11.8438 109.65L11.7 108.66L11.5562 107.67C11.1341 107.732 10.6987 107.782 10.2109 107.838C9.72655 107.893 9.19523 107.953 8.60159 108.032L8.73428 109.023ZM11.7 108.66L11.9255 109.634C13.4815 109.274 15.1858 108.957 17.3391 108.632L17.19 107.644L17.041 106.655C14.8514 106.985 13.0939 107.311 11.4745 107.686L11.7 108.66ZM28.2744 106.255L28.3863 107.249C30.0658 107.06 31.9078 106.856 33.9388 106.634L33.83 105.64L33.7212 104.646C31.6892 104.868 29.8449 105.072 28.1624 105.262L28.2744 106.255ZM33.83 105.64L34.0132 106.623C35.3176 106.38 36.5985 106.141 37.8565 105.906L37.6726 104.923L37.4888 103.94C36.2313 104.175 34.9508 104.414 33.6468 104.657L33.83 105.64ZM45.3519 103.479L45.5379 104.461C48.2114 103.955 50.7718 103.466 53.227 102.992L53.0374 102.011L52.8478 101.029C50.3955 101.502 47.8376 101.99 45.166 102.496L45.3519 103.479ZM60.7058 100.508L60.9012 101.489C63.5916 100.953 66.1423 100.434 68.567 99.9265L68.3623 98.9476L68.1576 97.9688C65.7401 98.4744 63.1957 98.9924 60.5104 99.5275L60.7058 100.508ZM75.9978 97.2951L76.2172 98.2708C78.9223 97.6623 81.4548 97.0644 83.8413 96.4676L83.5987 95.4974L83.3561 94.5273C80.9874 95.1196 78.4706 95.7139 75.7783 96.3195L75.9978 97.2951ZM91.1448 93.4714L91.4233 94.4319C94.0896 93.6588 96.5689 92.8701 98.9166 92.0463L98.5854 91.1027L98.2543 90.1591C95.9455 90.9692 93.5017 91.7469 90.8664 92.511L91.1448 93.4714ZM105.86 88.2578L106.259 89.1748C107.475 88.6461 108.666 88.0993 109.845 87.5306L109.41 86.63L108.975 85.7294C107.82 86.2867 106.653 86.8227 105.462 87.3408L105.86 88.2578ZM109.41 86.63L109.845 87.5306C110.961 86.9918 112.064 86.4607 113.144 85.9395L112.709 85.0389L112.274 84.1384C111.193 84.6603 110.095 85.1889 108.975 85.7294L109.41 86.63ZM119.288 81.8263L119.733 82.7215C122.037 81.5746 124.224 80.4528 126.273 79.3385L125.795 78.4601L125.317 77.5816C123.297 78.6803 121.133 79.7904 118.842 80.931L119.288 81.8263ZM132.097 74.7362L132.645 75.5729C134.901 74.0966 136.896 72.5866 138.575 70.9992L137.888 70.2724L137.202 69.5456C135.632 71.0285 133.739 72.4665 131.55 73.8995L132.097 74.7362ZM142.262 64.457L143.169 64.8764C143.72 63.6847 144.11 62.44 144.327 61.1332L143.34 60.97L142.353 60.8068C142.168 61.9298 141.832 63.0026 141.354 64.0376L142.262 64.457ZM143.34 60.97L144.327 61.1332C144.5 60.0872 144.619 59.0168 144.662 57.9365L143.663 57.8963L142.664 57.8561C142.624 58.8437 142.515 59.8313 142.353 60.8068L143.34 60.97ZM142.905 51.79L143.857 51.4841C143.526 50.4543 143.084 49.4434 142.514 48.4657L141.65 48.97L140.786 49.4743C141.28 50.3203 141.664 51.1974 141.953 52.0959L142.905 51.79ZM141.65 48.97L142.514 48.4657C141.904 47.4222 141.34 46.2419 140.65 44.932L139.766 45.398L138.881 45.864C139.519 47.0758 140.15 48.3845 140.786 49.4743L141.65 48.97ZM134.734 39.2046L135.256 38.3516C134.052 37.6148 132.649 37.1246 130.999 36.9932L130.92 37.99L130.841 38.9868C132.173 39.093 133.273 39.4829 134.212 40.0576L134.734 39.2046ZM130.92 37.99L130.999 36.9932C129.606 36.8822 128.237 36.7873 126.893 36.703L126.83 37.701L126.768 38.6991C128.103 38.7829 129.461 38.8769 130.841 38.9868L130.92 37.99ZM118.644 37.2519L118.697 36.2533C115.836 36.101 113.125 35.9402 110.559 35.7006L110.466 36.6963L110.373 37.692C112.982 37.9355 115.727 38.098 118.591 38.2504L118.644 37.2519ZM102.367 35.4964L102.585 34.5205C99.8484 33.9078 97.3683 33.0649 95.142 31.8722L94.6698 32.7536L94.1975 33.6351C96.623 34.9346 99.2842 35.831 102.148 36.4722L102.367 35.4964ZM88.3381 27.6303L89.1032 26.9863C88.2982 26.0299 87.5436 24.9636 86.8415 23.7723L85.98 24.28L85.1185 24.7877C85.874 26.0699 86.6925 27.2281 87.5731 28.2742L88.3381 27.6303ZM85.98 24.28L86.8415 23.7723C86.3916 23.0088 86.0322 22.2061 85.7603 21.3792L84.8103 21.6916L83.8604 22.004C84.1757 22.963 84.5936 23.8971 85.1185 24.7877L85.98 24.28ZM84.1672 16.0747L85.1636 16.1588C85.2382 15.2756 85.3987 14.402 85.6413 13.5554L84.68 13.28L83.7187 13.0046C83.4402 13.9764 83.2562 14.9781 83.1707 15.9906L84.1672 16.0747ZM84.68 13.28L85.6413 13.5554C85.8468 12.8382 86.4348 12.0503 87.6088 11.2277L87.0349 10.4088L86.4611 9.58981C85.0844 10.5544 84.0982 11.68 83.7187 13.0046L84.68 13.28ZM93.9586 7.39166L94.2457 8.34957C96.3147 7.72953 98.7405 7.15003 101.523 6.61212L101.334 5.6303L101.144 4.64847C98.314 5.19546 95.8205 5.78976 93.6716 6.43375L93.9586 7.39166ZM108.82 4.40113L108.959 5.39147C111.289 5.06517 113.788 4.75976 116.453 4.47513L116.347 3.48078L116.241 2.48643C113.557 2.77307 111.036 3.08107 108.681 3.41078L108.82 4.40113ZM123.912 2.76546L123.995 3.76198C126.4 3.56098 128.913 3.37364 131.535 3.19988L131.469 2.20207L131.402 1.20426C128.771 1.37871 126.246 1.56689 123.828 1.76893L123.912 2.76546ZM139.038 1.75356L139.091 2.75218C141.533 2.6234 144.056 2.50474 146.658 2.39612L146.617 1.39699L146.575 0.397862C143.966 0.506765 141.436 0.625767 138.986 0.754952L139.038 1.75356ZM154.203 1.11603L154.235 2.1155C155.484 2.07482 156.748 2.03618 158.029 1.99959L158 1L157.971 0.000407934C156.688 0.0370728 155.421 0.0757895 154.17 0.116565L154.203 1.11603Z" fill="#401D26"/>
</svg>
