<svg width="32" height="33" viewBox="0 0 32 33" fill="none" xmlns="http://www.w3.org/2000/svg">
<path d="M17.6448 0.639648C19.4447 0.644448 20.3583 0.654048 21.147 0.676448L21.4574 0.687647C21.8158 0.700447 22.1694 0.716446 22.5966 0.735646C24.2989 0.815644 25.4604 1.08444 26.4796 1.47963C27.5355 1.88602 28.4251 2.4364 29.3146 3.32438C30.1285 4.12394 30.7581 5.0915 31.1593 6.15951C31.5545 7.17869 31.8233 8.34026 31.9033 10.0442C31.9225 10.4698 31.9385 10.8234 31.9513 11.1834L31.9609 11.4938C31.9849 12.281 31.9945 13.1945 31.9977 14.9945L31.9993 16.1881V18.284C32.0032 19.451 31.9909 20.6181 31.9625 21.7847L31.9529 22.0951C31.9401 22.4551 31.9241 22.8087 31.9049 23.2343C31.8249 24.9383 31.5529 26.0982 31.1593 27.119C30.7581 28.187 30.1285 29.1546 29.3146 29.9541C28.5151 30.768 27.5476 31.3976 26.4796 31.7989C25.4604 32.1941 24.2989 32.4629 22.5966 32.5429L21.4574 32.5909L21.147 32.6005C20.3583 32.6229 19.4447 32.6341 17.6448 32.6373L16.4513 32.6389H14.357C13.1895 32.643 12.0219 32.6307 10.8548 32.6021L10.5444 32.5925C10.1646 32.5781 9.78485 32.5616 9.40524 32.5429C7.70292 32.4629 6.54138 32.1941 5.52063 31.7989C4.45321 31.3974 3.48624 30.7678 2.68717 29.9541C1.87273 29.1547 1.24262 28.1872 0.840868 27.119C0.445688 26.0998 0.176901 24.9383 0.0969051 23.2343L0.0489076 22.0951L0.0409082 21.7847C0.0114153 20.6181 -0.00191877 19.4511 0.000910029 18.284V14.9945C-0.00351838 13.8275 0.00821561 12.6605 0.0361084 11.4938L0.0473078 11.1834C0.0601071 10.8234 0.0761063 10.4698 0.0953053 10.0442C0.175301 8.34026 0.444088 7.18029 0.839268 6.15951C1.24196 5.09106 1.87317 4.12346 2.68877 3.32438C3.48738 2.51088 4.45379 1.88134 5.52063 1.47963C6.54138 1.08444 7.70132 0.815644 9.40524 0.735646C9.83081 0.716446 10.186 0.700447 10.5444 0.687647L10.8548 0.678047C12.0214 0.649621 13.1884 0.637353 14.3554 0.641248L17.6448 0.639648ZM16.0001 8.63945C13.8785 8.63945 11.8438 9.48229 10.3435 10.9825C8.84332 12.4828 8.00051 14.5176 8.00051 16.6393C8.00051 18.7609 8.84332 20.7957 10.3435 22.296C11.8438 23.7962 13.8785 24.6391 16.0001 24.6391C18.1217 24.6391 20.1565 23.7962 21.6567 22.296C23.1569 20.7957 23.9997 18.7609 23.9997 16.6393C23.9997 14.5176 23.1569 12.4828 21.6567 10.9825C20.1565 9.48229 18.1217 8.63945 16.0001 8.63945ZM16.0001 11.8394C16.6304 11.8393 17.2546 11.9633 17.837 12.2044C18.4193 12.4456 18.9485 12.799 19.3943 13.2447C19.8401 13.6903 20.1937 14.2194 20.435 14.8017C20.6763 15.384 20.8006 16.0081 20.8007 16.6385C20.8008 17.2688 20.6767 17.893 20.4356 18.4754C20.1945 19.0577 19.841 19.5869 19.3954 20.0327C18.9498 20.4785 18.4207 20.8322 17.8384 21.0735C17.2561 21.3148 16.632 21.439 16.0017 21.4391C14.7287 21.4391 13.5079 20.9334 12.6078 20.0333C11.7076 19.1331 11.2019 17.9123 11.2019 16.6393C11.2019 15.3663 11.7076 14.1454 12.6078 13.2452C13.5079 12.3451 14.7287 11.8394 16.0017 11.8394M24.4013 6.23951C23.8709 6.23951 23.3622 6.45022 22.9871 6.82528C22.6121 7.20035 22.4014 7.70904 22.4014 8.23946C22.4014 8.76989 22.6121 9.27858 22.9871 9.65364C23.3622 10.0287 23.8709 10.2394 24.4013 10.2394C24.9317 10.2394 25.4404 10.0287 25.8154 9.65364C26.1905 9.27858 26.4012 8.76989 26.4012 8.23946C26.4012 7.70904 26.1905 7.20035 25.8154 6.82528C25.4404 6.45022 24.9317 6.23951 24.4013 6.23951Z" fill="white"/>
</svg>
