<svg width="209" height="89" viewBox="0 0 209 89" fill="none" xmlns="http://www.w3.org/2000/svg">
<path d="M23.3148 1.94916C23.839 1.7753 24.123 1.20941 23.9492 0.685203C23.7753 0.160997 23.2094 -0.123016 22.6852 0.0508408L23 1L23.3148 1.94916ZM5.69001 16.97L6.45847 17.6099L5.69001 16.97ZM3.32001 50.97L2.34006 51.1693L3.32001 50.97ZM39.58 64.01L39.658 65.007L39.58 64.01ZM62.97 43.03L62.2006 42.3912L62.97 43.03ZM123.83 33.33L123.822 32.33L123.83 33.33ZM158.96 48.64L159.469 47.7794L158.96 48.64ZM188.63 68.63L189.337 67.9229L189.31 67.8962L189.282 67.8716L188.63 68.63ZM199.31 80.64L198.536 81.2727L198.566 81.3104L198.601 81.345L199.31 80.64ZM209 89L205.289 78.0655L197.675 86.7465L209 89ZM17.3611 3.36179C16.9345 3.71256 16.873 4.34274 17.2238 4.76932C17.5746 5.19591 18.2047 5.25737 18.6313 4.90659L17.9962 4.13419L17.3611 3.36179ZM10.311 13.1424C10.6795 12.7311 10.6449 12.0989 10.2336 11.7303C9.82224 11.3618 9.19002 11.3964 8.82146 11.8077L9.56622 12.4751L10.311 13.1424ZM2.59864 20.376C2.39513 20.8894 2.64637 21.4706 3.15979 21.6741C3.67322 21.8776 4.2544 21.6264 4.45791 21.1129L3.52827 20.7445L2.59864 20.376ZM2.71565 29.3439C2.76311 28.7936 2.35552 28.3091 1.80528 28.2616C1.25504 28.2142 0.770509 28.6218 0.723052 29.172L1.71935 29.2579L2.71565 29.3439ZM0.63642 38.0421C0.66657 38.5936 1.13806 39.0162 1.68952 38.986C2.24098 38.9559 2.66359 38.4844 2.63344 37.9329L1.63493 37.9875L0.63642 38.0421ZM3.54148 46.5192C3.45727 45.9734 2.94652 45.5992 2.40069 45.6834C1.85486 45.7676 1.48065 46.2784 1.56487 46.8242L2.55318 46.6717L3.54148 46.5192ZM3.93358 54.7844C4.24994 55.2371 4.87339 55.3476 5.32608 55.0313C5.77878 54.7149 5.8893 54.0915 5.57293 53.6388L4.75326 54.2116L3.93358 54.7844ZM10.5725 58.1736C10.1186 57.8591 9.49555 57.9721 9.18101 58.426C8.86646 58.88 8.97948 59.503 9.43343 59.8175L10.003 58.9956L10.5725 58.1736ZM15.7137 63.3521C16.2371 63.5285 16.8044 63.2472 16.9807 62.7239C17.1571 62.2005 16.8758 61.6332 16.3525 61.4569L16.0331 62.4045L15.7137 63.3521ZM22.7803 62.8261C22.2324 62.7565 21.7318 63.1442 21.6622 63.692C21.5926 64.2399 21.9803 64.7405 22.5282 64.8101L22.6542 63.8181L22.7803 62.8261ZM29.3907 65.306C29.9428 65.3199 30.4017 64.8836 30.4156 64.3315C30.4296 63.7794 29.9933 63.3205 29.4412 63.3066L29.4159 64.3063L29.3907 65.306ZM36.1487 63.2237C35.597 63.2496 35.1708 63.7179 35.1968 64.2696C35.2227 64.8212 35.691 65.2474 36.2427 65.2215L36.1957 64.2226L36.1487 63.2237ZM43.8753 64.1715C44.4001 63.9994 44.686 63.4345 44.5139 62.9097C44.3418 62.3849 43.7769 62.0989 43.2521 62.271L43.5637 63.2212L43.8753 64.1715ZM49.7999 58.3022C49.3917 58.6743 49.3625 59.3068 49.7346 59.7149C50.1067 60.1231 50.7392 60.1523 51.1473 59.7802L50.4736 59.0412L49.7999 58.3022ZM56.6053 53.4978C56.9325 53.0529 56.837 52.427 56.3921 52.0998C55.9472 51.7726 55.3213 51.868 54.9941 52.3129L55.7997 52.9054L56.6053 53.4978ZM59.6838 45.6732C59.3607 46.1211 59.4618 46.7461 59.9097 47.0692C60.3576 47.3924 60.9826 47.2912 61.3057 46.8433L60.4948 46.2582L59.6838 45.6732ZM66.3942 41.0414C66.826 40.6971 66.8969 40.0679 66.5525 39.6361C66.2082 39.2043 65.579 39.1334 65.1472 39.4777L65.7707 40.2596L66.3942 41.0414ZM72.4694 35.7538C71.9422 35.9184 71.6482 36.4792 71.8128 37.0064C71.9774 37.5335 72.5382 37.8275 73.0654 37.6629L72.7674 36.7083L72.4694 35.7538ZM80.61 36.0663C81.1568 35.9893 81.5377 35.4835 81.4607 34.9366C81.3837 34.3897 80.8779 34.0088 80.331 34.0858L80.4705 35.076L80.61 36.0663ZM88.2456 33.2789C87.6947 33.3187 87.2805 33.7976 87.3203 34.3484C87.3601 34.8993 87.839 35.3135 88.3898 35.2737L88.3177 34.2763L88.2456 33.2789ZM96.2356 34.8472C96.7874 34.8251 97.2168 34.3598 97.1947 33.8079C97.1725 33.2561 96.7072 32.8267 96.1554 32.8488L96.1955 33.848L96.2356 34.8472ZM104.059 32.6044C103.507 32.6173 103.069 33.0754 103.082 33.6276C103.095 34.1797 103.553 34.6168 104.106 34.6038L104.082 33.6041L104.059 32.6044ZM111.994 34.4579C112.546 34.4499 112.988 33.9957 112.98 33.4435C112.972 32.8913 112.518 32.4501 111.965 32.4581L111.98 33.458L111.994 34.4579ZM119.874 32.3649C119.322 32.3703 118.878 32.8222 118.884 33.3745C118.889 33.9268 119.341 34.3702 119.893 34.3649L119.883 33.3649L119.874 32.3649ZM128.578 34.5952C129.126 34.6625 129.625 34.2727 129.693 33.7245C129.76 33.1763 129.37 32.6774 128.822 32.6101L128.7 33.6026L128.578 34.5952ZM138.48 35.1566C137.969 34.9478 137.385 35.1929 137.176 35.7041C136.967 36.2154 137.212 36.7992 137.723 37.0081L138.102 36.0824L138.48 35.1566ZM146.18 41.4835C146.647 41.778 147.264 41.6379 147.559 41.1707C147.853 40.7034 147.713 40.0859 147.246 39.7915L146.713 40.6375L146.18 41.4835ZM155.387 45.2041C154.926 44.8994 154.306 45.0259 154.001 45.4865C153.697 45.9472 153.823 46.5676 154.284 46.8723L154.835 46.0382L155.387 45.2041ZM162.306 51.7802C162.781 52.0617 163.394 51.9046 163.676 51.4294C163.957 50.9542 163.8 50.3408 163.325 50.0594L162.815 50.9198L162.306 51.7802ZM171.012 54.6974C170.543 54.406 169.927 54.5501 169.635 55.0192C169.344 55.4884 169.488 56.1049 169.957 56.3963L170.485 55.5468L171.012 54.6974ZM177.417 61.2638C177.871 61.5778 178.494 61.464 178.808 61.0097C179.122 60.5554 179.008 59.9325 178.554 59.6185L177.985 60.4412L177.417 61.2638ZM185.803 64.9919C185.371 64.6476 184.742 64.7186 184.398 65.1505C184.053 65.5823 184.124 66.2115 184.556 66.5558L185.18 65.7738L185.803 64.9919ZM190.696 72.2027C191.073 72.6058 191.706 72.6265 192.109 72.2489C192.512 71.8714 192.533 71.2385 192.155 70.8355L191.425 71.5191L190.696 72.2027ZM197.514 76.8989C197.159 76.476 196.528 76.4213 196.105 76.7766C195.683 77.1319 195.628 77.7627 195.983 78.1855L196.749 77.5422L197.514 76.8989ZM201.061 83.5319C201.486 83.8852 202.116 83.8276 202.47 83.4031C202.823 82.9786 202.765 82.3481 202.341 81.9948L201.701 82.7633L201.061 83.5319ZM207.247 86.132C206.829 85.7704 206.198 85.8158 205.836 86.2332C205.475 86.6507 205.52 87.2822 205.937 87.6438L206.592 86.8879L207.247 86.132ZM23 1L22.6852 0.0508408C21.1228 0.569039 19.3014 1.76628 17.3611 3.36179L17.9962 4.13419L18.6313 4.90659C20.5241 3.35017 22.1132 2.3477 23.3148 1.94916L23 1ZM9.56622 12.4751L8.82146 11.8077C7.53395 13.2446 6.22739 14.7619 4.92155 16.3301L5.69001 16.97L6.45847 17.6099C7.75068 16.0581 9.04141 14.5593 10.311 13.1424L9.56622 12.4751ZM5.69001 16.97L4.92155 16.3301C3.96639 17.4772 3.20309 18.851 2.59864 20.376L3.52827 20.7445L4.45791 21.1129C5.00349 19.7365 5.66851 18.5586 6.45847 17.6099L5.69001 16.97ZM1.71935 29.2579L0.723052 29.172C0.47832 32.0096 0.471434 35.0244 0.63642 38.0421L1.63493 37.9875L2.63344 37.9329C2.47236 34.9868 2.48068 32.0683 2.71565 29.3439L1.71935 29.2579ZM2.55318 46.6717L1.56487 46.8242C1.79596 48.322 2.05726 49.7784 2.34006 51.1693L3.32001 50.97L4.29996 50.7707C4.02349 49.411 3.76776 47.9858 3.54148 46.5192L2.55318 46.6717ZM3.32001 50.97L2.34006 51.1693C2.61344 52.5138 3.18285 53.7102 3.93358 54.7844L4.75326 54.2116L5.57293 53.6388C4.9512 52.7491 4.50984 51.803 4.29996 50.7707L3.32001 50.97ZM10.003 58.9956L9.43343 59.8175C10.4327 60.5099 11.464 61.1779 12.4153 61.812L12.97 60.98L13.5247 60.1479C12.5427 59.4933 11.5527 58.8528 10.5725 58.1736L10.003 58.9956ZM12.97 60.98L12.4153 61.812C13.3039 62.4045 14.4202 62.9162 15.7137 63.3521L16.0331 62.4045L16.3525 61.4569C15.1661 61.057 14.2231 60.6135 13.5247 60.1479L12.97 60.98ZM22.6542 63.8181L22.5282 64.8101C24.6082 65.0744 26.9088 65.2434 29.3907 65.306L29.4159 64.3063L29.4412 63.3066C27.0173 63.2455 24.7847 63.0808 22.7803 62.8261L22.6542 63.8181ZM36.1957 64.2226L36.2427 65.2215C37.3573 65.169 38.4966 65.0978 39.658 65.007L39.58 64.01L39.5021 63.013C38.3609 63.1023 37.2423 63.1722 36.1487 63.2237L36.1957 64.2226ZM39.58 64.01L39.658 65.007C41.1604 64.8895 42.5617 64.6022 43.8753 64.1715L43.5637 63.2212L43.2521 62.271C42.0905 62.6519 40.8461 62.9079 39.5021 63.013L39.58 64.01ZM50.4736 59.0412L51.1473 59.7802C53.1776 57.9291 54.9528 55.7448 56.6053 53.4978L55.7997 52.9054L54.9941 52.3129C53.3733 54.5168 51.6883 56.5805 49.7999 58.3022L50.4736 59.0412ZM60.4948 46.2582L61.3057 46.8433C62.1069 45.7328 62.9115 44.666 63.7394 43.6688L62.97 43.03L62.2006 42.3912C61.3332 43.436 60.4997 44.5423 59.6838 45.6732L60.4948 46.2582ZM62.97 43.03L63.7394 43.6688C64.5577 42.6831 65.4262 41.8133 66.3942 41.0414L65.7707 40.2596L65.1472 39.4777C64.0599 40.3448 63.0954 41.3135 62.2006 42.3912L62.97 43.03ZM72.7674 36.7083L73.0654 37.6629C75.1542 37.0107 77.624 36.4868 80.61 36.0663L80.4705 35.076L80.331 34.0858C77.2736 34.5164 74.6915 35.06 72.4694 35.7538L72.7674 36.7083ZM88.3177 34.2763L88.3898 35.2737C90.7652 35.1019 93.3702 34.9622 96.2356 34.8472L96.1955 33.848L96.1554 32.8488C93.2743 32.9644 90.6473 33.1052 88.2456 33.2789L88.3177 34.2763ZM104.082 33.6041L104.106 34.6038C106.575 34.5459 109.2 34.4983 111.994 34.4579L111.98 33.458L111.965 32.4581C109.167 32.4985 106.535 32.5463 104.059 32.6044L104.082 33.6041ZM119.883 33.3649L119.893 34.3649C121.177 34.3525 122.492 34.341 123.838 34.33L123.83 33.33L123.822 32.33C122.475 32.341 121.159 32.3526 119.874 32.3649L119.883 33.3649ZM123.83 33.33L123.838 34.33C125.495 34.3164 127.071 34.4101 128.578 34.5952L128.7 33.6026L128.822 32.6101C127.228 32.4143 125.564 32.3158 123.822 32.33L123.83 33.33ZM138.102 36.0824L137.723 37.0081C140.719 38.2318 143.486 39.7861 146.18 41.4835L146.713 40.6375L147.246 39.7915C144.499 38.0601 141.622 36.4407 138.48 35.1566L138.102 36.0824ZM154.835 46.0382L154.284 46.8723C155.648 47.7746 157.031 48.6607 158.451 49.5006L158.96 48.64L159.469 47.7794C158.089 46.9627 156.736 46.0963 155.387 45.2041L154.835 46.0382ZM158.96 48.64L158.451 49.5006C159.758 50.2741 161.038 51.0295 162.306 51.7802L162.815 50.9198L163.325 50.0594C162.059 49.3096 160.771 48.5499 159.469 47.7794L158.96 48.64ZM170.485 55.5468L169.957 56.3963C172.485 57.9666 174.961 59.5669 177.417 61.2638L177.985 60.4412L178.554 59.6185C176.065 57.8985 173.56 56.2801 171.012 54.6974L170.485 55.5468ZM185.18 65.7738L184.556 66.5558C185.694 67.4627 186.833 68.4047 187.978 69.3884L188.63 68.63L189.282 67.8716C188.118 66.8715 186.959 65.9138 185.803 64.9919L185.18 65.7738ZM188.63 68.63L187.923 69.3371C188.894 70.308 189.816 71.2634 190.696 72.2027L191.425 71.5191L192.155 70.8355C191.261 69.8812 190.324 68.9101 189.337 67.9229L188.63 68.63ZM196.749 77.5422L195.983 78.1855C196.869 79.2396 197.715 80.2685 198.536 81.2727L199.31 80.64L200.084 80.0073C199.261 79 198.409 77.963 197.514 76.8989L196.749 77.5422ZM199.31 80.64L198.601 81.345C199.305 82.0534 200.055 82.6939 201.061 83.5319L201.701 82.7633L202.341 81.9948C201.335 81.1574 200.65 80.5698 200.019 79.935L199.31 80.64Z" fill="#401D26"/>
</svg>
