<svg width="116" height="71" viewBox="0 0 116 71" fill="none" xmlns="http://www.w3.org/2000/svg">
<path d="M55 1C55 0.447715 54.5523 0 54 0C53.4477 0 53 0.447715 53 1H54H55ZM58.31 14.64L57.5356 15.2727L58.31 14.64ZM112.32 25.3L111.387 25.6587L112.32 25.3ZM114.66 32.63L113.66 32.6385L114.66 32.63ZM89.37 52.66L89.1094 51.6945L89.37 52.66ZM22.04 56.66L22.1038 57.658L22.1144 57.6572L22.04 56.66ZM8.36 61.31L7.72734 60.5356L7.68958 60.5664L7.65501 60.6008L8.36 61.31ZM0 71L10.9345 67.2891L2.25352 59.675L0 71ZM2.868 69.2466C3.22957 68.8292 3.18425 68.1976 2.76677 67.8361C2.34929 67.4745 1.71775 67.5198 1.35618 67.9373L2.11209 68.592L2.868 69.2466ZM5.46812 63.0612C5.11478 63.4857 5.17245 64.1162 5.59691 64.4696C6.02138 64.8229 6.65191 64.7653 7.00525 64.3408L6.23668 63.701L5.46812 63.0612ZM11.8865 60.188C12.3767 59.9336 12.5678 59.3299 12.3133 58.8398C12.0589 58.3496 11.4552 58.1585 10.965 58.4129L11.4258 59.3005L11.8865 60.188ZM18.2268 56.0857C17.6821 56.1771 17.3146 56.6927 17.406 57.2373C17.4973 57.782 18.0129 58.1495 18.5576 58.0581L18.3922 57.0719L18.2268 56.0857ZM26.3083 57.3792C26.8596 57.3468 27.2802 56.8735 27.2478 56.3222C27.2154 55.7709 26.7421 55.3502 26.1908 55.3827L26.2495 56.3809L26.3083 57.3792ZM34.6373 54.9768C34.0855 54.9985 33.6557 55.4635 33.6774 56.0153C33.6992 56.5672 34.1642 56.997 34.716 56.9752L34.6767 55.976L34.6373 54.9768ZM43.1443 56.6889C43.6964 56.6724 44.1305 56.2115 44.114 55.6594C44.0975 55.1074 43.6366 54.6732 43.0845 54.6898L43.1144 55.6893L43.1443 56.6889ZM51.5249 54.4519C50.9728 54.4671 50.5376 54.927 50.5528 55.4791C50.5681 56.0312 51.0279 56.4664 51.58 56.4512L51.5525 55.4515L51.5249 54.4519ZM60.0212 56.2048C60.5732 56.1871 61.0063 55.7253 60.9886 55.1733C60.971 54.6213 60.5091 54.1881 59.9571 54.2058L59.9892 55.2053L60.0212 56.2048ZM68.3792 53.887C67.8275 53.9122 67.4006 54.3798 67.4257 54.9315C67.4508 55.4832 67.9184 55.9101 68.4701 55.885L68.4246 54.886L68.3792 53.887ZM76.9248 55.3902C77.4755 55.3486 77.8883 54.8685 77.8467 54.3178C77.8051 53.767 77.325 53.3543 76.7743 53.3959L76.8495 54.393L76.9248 55.3902ZM85.0916 52.5041C84.5457 52.5881 84.1714 53.0988 84.2554 53.6446C84.3394 54.1905 84.8501 54.5648 85.3959 54.4808L85.2438 53.4925L85.0916 52.5041ZM93.7999 52.3659C94.3237 52.1908 94.6063 51.6242 94.4312 51.1004C94.2561 50.5766 93.6895 50.294 93.1657 50.4691L93.4828 51.4175L93.7999 52.3659ZM101.002 47.2755C100.507 47.5206 100.305 48.1205 100.55 48.6154C100.795 49.1104 101.395 49.3129 101.89 49.0678L101.446 48.1716L101.002 47.2755ZM109.342 44.3513C109.766 43.9979 109.824 43.3674 109.47 42.943C109.117 42.5186 108.486 42.461 108.062 42.8144L108.702 43.5829L109.342 44.3513ZM112.956 36.4765C112.757 36.9917 113.014 37.5706 113.529 37.7694C114.044 37.9682 114.623 37.7116 114.822 37.1963L113.889 36.8364L112.956 36.4765ZM115.357 30.473C115.221 29.9377 114.676 29.614 114.141 29.75C113.606 29.886 113.282 30.4301 113.418 30.9654L114.387 30.7192L115.357 30.473ZM112.135 27.4795C112.351 27.988 112.938 28.2255 113.446 28.01C113.955 27.7945 114.192 27.2075 113.977 26.6991L113.056 27.0893L112.135 27.4795ZM109.154 23.1837C108.603 23.1456 108.126 23.5613 108.088 24.1123C108.05 24.6633 108.465 25.1408 109.016 25.1789L109.085 24.1813L109.154 23.1837ZM102.017 25.2305C102.569 25.2097 102.999 24.7454 102.978 24.1935C102.957 23.6416 102.493 23.2111 101.941 23.2319L101.979 24.2312L102.017 25.2305ZM94.8471 23.4834C94.295 23.4976 93.8589 23.9566 93.8731 24.5087C93.8872 25.0608 94.3462 25.4969 94.8983 25.4828L94.8727 24.4831L94.8471 23.4834ZM87.7328 25.5153C88.285 25.5271 88.7421 25.089 88.7539 24.5369C88.7658 23.9847 88.3277 23.5275 87.7756 23.5157L87.7542 24.5155L87.7328 25.5153ZM80.7525 23.1115C80.2029 23.0567 79.713 23.4578 79.6582 24.0074C79.6034 24.5569 80.0044 25.0469 80.554 25.1017L80.6533 24.1066L80.7525 23.1115ZM73.4088 23.9816C73.9478 24.1022 74.4825 23.7631 74.6031 23.2242C74.7238 22.6853 74.3847 22.1505 73.8458 22.0299L73.6273 23.0057L73.4088 23.9816ZM67.256 19.9362C66.7494 19.7161 66.1604 19.9483 65.9403 20.4549C65.7202 20.9614 65.9525 21.5505 66.459 21.7705L66.8575 20.8533L67.256 19.9362ZM60.158 17.9336C60.5797 18.2904 61.2106 18.2378 61.5674 17.8162C61.9241 17.3945 61.8715 16.7636 61.4499 16.4068L60.804 17.1702L60.158 17.9336ZM57.2045 11.1345C56.9515 10.6436 56.3485 10.4507 55.8575 10.7037C55.3666 10.9567 55.1737 11.5597 55.4267 12.0507L56.3156 11.5926L57.2045 11.1345ZM53.234 4.76768C53.3047 5.31541 53.8061 5.70208 54.3538 5.63132C54.9016 5.56057 55.2882 5.05918 55.2175 4.51145L54.2257 4.63956L53.234 4.76768ZM6.23668 63.701L7.00525 64.3408C7.84258 63.3349 8.43015 62.6503 9.06499 62.0192L8.36 61.31L7.65501 60.6008C6.94664 61.3049 6.30607 62.0546 5.46812 63.0612L6.23668 63.701ZM8.36 61.31L8.99266 62.0844C9.89044 61.351 10.8567 60.7226 11.8865 60.188L11.4258 59.3005L10.965 58.4129C9.8196 59.0075 8.73711 59.7107 7.72734 60.5356L8.36 61.31ZM18.3922 57.0719L18.5576 58.0581C19.6978 57.8669 20.8813 57.7361 22.1038 57.658L22.04 56.66L21.9762 55.662C20.6945 55.744 19.4425 55.8818 18.2268 56.0857L18.3922 57.0719ZM22.04 56.66L22.1144 57.6572C23.472 57.5559 24.8725 57.4637 26.3083 57.3792L26.2495 56.3809L26.1908 55.3827C24.7461 55.4677 23.3351 55.5606 21.9656 55.6628L22.04 56.66ZM34.6767 55.976L34.716 56.9752C37.474 56.8666 40.2977 56.774 43.1443 56.6889L43.1144 55.6893L43.0845 54.6898C40.2344 54.775 37.4039 54.8678 34.6373 54.9768L34.6767 55.976ZM51.5525 55.4515L51.58 56.4512C54.4287 56.3727 57.2575 56.2934 60.0212 56.2048L59.9892 55.2053L59.9571 54.2058C57.1983 54.2942 54.3735 54.3734 51.5249 54.4519L51.5525 55.4515ZM68.4246 54.886L68.4701 55.885C71.4566 55.749 74.2979 55.5885 76.9248 55.3902L76.8495 54.393L76.7743 53.3959C74.1733 53.5923 71.3529 53.7517 68.3792 53.887L68.4246 54.886ZM85.2438 53.4925L85.3959 54.4808C86.991 54.2352 88.4163 53.9532 89.6306 53.6255L89.37 52.66L89.1094 51.6945C87.9897 51.9968 86.642 52.2654 85.0916 52.5041L85.2438 53.4925ZM89.37 52.66L89.6306 53.6255C90.8803 53.2882 92.294 52.8694 93.7999 52.3659L93.4828 51.4175L93.1657 50.4691C91.6999 50.9592 90.3241 51.3667 89.1094 51.6945L89.37 52.66ZM101.446 48.1716L101.89 49.0678C104.537 47.7566 107.132 46.1913 109.342 44.3513L108.702 43.5829L108.062 42.8144C106.008 44.5252 103.557 46.0103 101.002 47.2755L101.446 48.1716ZM113.889 36.8364L114.822 37.1963C115.373 35.7675 115.674 34.2414 115.66 32.6215L114.66 32.63L113.66 32.6385C113.672 33.9938 113.421 35.2704 112.956 36.4765L113.889 36.8364ZM114.66 32.63L115.66 32.6215C115.654 31.8976 115.535 31.1753 115.357 30.473L114.387 30.7192L113.418 30.9654C113.569 31.5607 113.656 32.1183 113.66 32.6385L114.66 32.63ZM113.056 27.0893L113.977 26.6991C113.718 26.0892 113.471 25.5072 113.253 24.9413L112.32 25.3L111.387 25.6587C111.619 26.2627 111.881 26.8784 112.135 27.4795L113.056 27.0893ZM112.32 25.3L113.253 24.9413C112.958 24.1714 112.229 23.7921 111.6 23.5859C110.933 23.3672 110.092 23.2486 109.154 23.1837L109.085 24.1813L109.016 25.1789C109.899 25.24 110.546 25.345 110.977 25.4863C111.446 25.6401 111.424 25.7572 111.387 25.6587L112.32 25.3ZM101.979 24.2312L101.941 23.2319C99.7721 23.3137 97.3827 23.4185 94.8471 23.4834L94.8727 24.4831L94.8983 25.4828C97.45 25.4174 99.8628 25.3117 102.017 25.2305L101.979 24.2312ZM87.7542 24.5155L87.7756 23.5157C85.4488 23.466 83.0877 23.3445 80.7525 23.1115L80.6533 24.1066L80.554 25.1017C82.9521 25.3409 85.3665 25.4647 87.7328 25.5153L87.7542 24.5155ZM73.6273 23.0057L73.8458 22.0299C71.5214 21.5095 69.3031 20.8255 67.256 19.9362L66.8575 20.8533L66.459 21.7705C68.6445 22.72 70.9873 23.4394 73.4088 23.9816L73.6273 23.0057ZM60.804 17.1702L61.4499 16.4068C60.5907 15.6798 59.7992 14.8822 59.0844 14.0073L58.31 14.64L57.5356 15.2727C58.3317 16.2471 59.2101 17.1316 60.158 17.9336L60.804 17.1702ZM58.31 14.64L59.0844 14.0073C58.3549 13.1144 57.7302 12.1547 57.2045 11.1345L56.3156 11.5926L55.4267 12.0507C56.0144 13.1912 56.7152 14.2684 57.5356 15.2727L58.31 14.64ZM54.2257 4.63956L55.2175 4.51145C55.0714 3.3806 55 2.20835 55 1H54H53C53 2.28683 53.076 3.54501 53.234 4.76768L54.2257 4.63956Z" fill="#401D26"/>
</svg>
