<svg width="23" height="24" viewBox="0 0 23 24" fill="none" xmlns="http://www.w3.org/2000/svg">
<path d="M22.5655 1.27225C22.5455 1.18238 22.4756 1.11249 22.3907 1.08752C19.4651 0.373599 12.7103 2.91977 9.0508 6.57926C8.39678 7.22828 7.80268 7.93222 7.27347 8.68109C6.14517 8.58124 5.01687 8.66612 4.05332 9.08548C1.33741 10.2787 0.548595 13.399 0.323933 14.737C0.279001 14.9966 0.453738 15.2462 0.718339 15.2911C0.763272 15.2961 0.808204 15.3011 0.853137 15.2961L5.21158 14.8169C5.21657 15.1464 5.23654 15.4759 5.27149 15.8004C5.29146 16.025 5.3963 16.2397 5.55606 16.3995L7.24352 18.0819C7.40328 18.2417 7.61795 18.3465 7.84262 18.3665C8.16713 18.4015 8.49164 18.4214 8.82114 18.4264L8.34186 22.7799C8.31191 23.0445 8.50662 23.2841 8.77122 23.3091C8.81615 23.3141 8.86108 23.3141 8.90102 23.3041C10.239 23.0894 13.3643 22.3006 14.5525 19.5847C14.9719 18.6211 15.0568 17.4978 14.9619 16.3745C15.7158 15.8453 16.4197 15.2462 17.0687 14.5972C20.7382 10.9477 23.2694 4.34262 22.5655 1.27225ZM16.7891 10.2387C15.8556 11.1723 14.3378 11.1773 13.4042 10.2387C12.4657 9.30515 12.4657 7.78744 13.4042 6.84885C14.3378 5.91026 15.8556 5.91026 16.7941 6.84885C17.7277 7.78744 17.7277 9.30515 16.7891 10.2387Z" fill="#F1EAEB"/>
</svg>
