<svg width="32" height="33" viewBox="0 0 32 33" fill="none" xmlns="http://www.w3.org/2000/svg">
<path d="M16 0.639648C24.8368 0.639648 32 7.80284 32 16.6396C32 25.4764 24.8368 32.6396 16 32.6396C13.1724 32.6445 10.3945 31.8962 7.95202 30.4716L0.00642472 32.6396L2.16962 24.6908C0.743958 22.2475 -0.0049306 19.4685 2.44299e-05 16.6396C2.44299e-05 7.80284 7.16322 0.639648 16 0.639648ZM10.5472 9.11964L10.2272 9.13244C10.0203 9.1467 9.81817 9.20104 9.63202 9.29244C9.45854 9.39086 9.30012 9.51372 9.16162 9.65724C8.96962 9.83804 8.86082 9.99484 8.74402 10.1468C8.15221 10.9163 7.83358 11.8609 7.83842 12.8316C7.84162 13.6156 8.04642 14.3788 8.36642 15.0924C9.02082 16.5356 10.0976 18.0636 11.5184 19.4796C11.8608 19.8204 12.1968 20.1628 12.5584 20.4812C14.3239 22.0355 16.4277 23.1564 18.7024 23.7548L19.6112 23.894C19.9072 23.91 20.2032 23.8876 20.5008 23.8732C20.9667 23.8487 21.4216 23.7225 21.8336 23.5036C22.043 23.3954 22.2474 23.2779 22.4464 23.1516C22.4464 23.1516 22.5141 23.1058 22.6464 23.0076C22.8624 22.8476 22.9952 22.734 23.1744 22.5468C23.3088 22.4082 23.4208 22.2471 23.5104 22.0636C23.6352 21.8028 23.76 21.3052 23.8112 20.8908C23.8496 20.574 23.8384 20.4012 23.8336 20.294C23.8272 20.1228 23.6848 19.9452 23.5296 19.87L22.5984 19.4524C22.5984 19.4524 21.2064 18.846 20.3552 18.4588C20.2661 18.42 20.1707 18.3978 20.0736 18.3932C19.9641 18.3818 19.8535 18.394 19.7491 18.4291C19.6448 18.4641 19.5492 18.5212 19.4688 18.5964C19.4608 18.5932 19.3536 18.6844 18.1968 20.086C18.1304 20.1753 18.039 20.2427 17.9341 20.2797C17.8292 20.3168 17.7157 20.3217 17.608 20.294C17.5037 20.2662 17.4016 20.231 17.3024 20.1884C17.104 20.1052 17.0352 20.0732 16.8992 20.0156C15.9806 19.6155 15.1303 19.074 14.3792 18.4108C14.1776 18.2348 13.9904 18.0428 13.7984 17.8572C13.169 17.2544 12.6204 16.5724 12.1664 15.8284L12.072 15.6764C12.0052 15.5737 11.9505 15.4637 11.9088 15.3484C11.848 15.1132 12.0064 14.9244 12.0064 14.9244C12.0064 14.9244 12.3952 14.4988 12.576 14.2684C12.752 14.0444 12.9008 13.8268 12.9968 13.6716C13.1856 13.3676 13.2448 13.0556 13.1456 12.814C12.6976 11.7196 12.2347 10.6311 11.7568 9.54844C11.6624 9.33404 11.3824 9.18044 11.128 9.15004C11.0416 9.13937 10.9552 9.13084 10.8688 9.12444C10.654 9.11212 10.4386 9.11426 10.224 9.13084L10.5472 9.11964Z" fill="white"/>
</svg>
